M48
; DRILL file {KiCad 5.1.9-73d0e3b20d~88~ubuntu20.04.1} date Sat Mar  6 00:26:53 2021
; FORMAT={-:-/ absolute / inch / decimal}
; #@! TF.CreationDate,2021-03-06T00:26:53+00:00
; #@! TF.GenerationSoftware,Kicad,Pcbnew,5.1.9-73d0e3b20d~88~ubuntu20.04.1
; #@! TF.FileFunction,Plated,1,2,PTH
FMAT,2
INCH
T1C0.0157
T2C0.1063
%
G90
G05
T1
X2.9213Y-2.1142
X2.9213Y-2.6063
X2.9228Y-2.7872
X2.9252Y-1.937
X3.0079Y-1.9055
X3.0118Y-2.1535
X3.0118Y-2.8189
X3.0157Y-2.5709
X3.0866Y-2.2756
X3.0866Y-2.4449
X3.1024Y-1.9409
X3.1063Y-2.1102
X3.1063Y-2.6102
X3.1078Y-2.7822
X3.1378Y-2.0276
X3.1478Y-2.8122
X3.1578Y-2.6572
X3.1835Y-2.2756
X3.1835Y-2.4449
X3.2178Y-2.8122
X3.248Y-2.5591
X3.2803Y-2.2756
X3.2803Y-2.4449
X3.2828Y-2.8122
X3.3661Y-2.6496
X3.3772Y-2.2756
X3.3772Y-2.4449
X3.4213Y-2.7362
X3.474Y-2.2756
X3.474Y-2.4449
X3.4803Y-2.6299
X3.5433Y-2.811
X3.5709Y-2.2756
X3.5709Y-2.4449
X3.6417Y-2.6339
X3.6677Y-2.2756
X3.6677Y-2.4449
X3.7008Y-2.689
X3.7559Y-2.7362
X3.7646Y-2.2756
X3.7646Y-2.4449
X3.8614Y-2.2756
X3.8614Y-2.4449
X3.8622Y-2.815
X3.9331Y-2.815
X3.9583Y-2.2756
X3.9583Y-2.4449
X3.9685Y-2.6339
X3.9882Y-2.0236
X4.0236Y-2.1142
X4.0236Y-2.7795
X4.0276Y-1.9331
X4.0276Y-2.6102
X4.0551Y-2.2756
X4.0551Y-2.4449
X4.1142Y-1.9055
X4.1142Y-2.1535
X4.1142Y-2.5748
X4.1142Y-2.8189
X4.2008Y-1.937
X4.2008Y-2.1181
X4.2008Y-2.6102
X4.2047Y-2.7795
T2
X3.0118Y-2.0276
X3.0118Y-2.6969
X4.1142Y-2.0276
X4.1142Y-2.6969
T0
M30
