%TF.GenerationSoftware,KiCad,Pcbnew,5.1.9-73d0e3b20d~88~ubuntu20.04.1*%
%TF.CreationDate,2021-03-06T00:26:18+00:00*%
%TF.ProjectId,SMA_to_uFL,534d415f-746f-45f7-9546-4c2e6b696361,1.0*%
%TF.SameCoordinates,Original*%
%TF.FileFunction,Copper,L1,Top*%
%TF.FilePolarity,Positive*%
%FSLAX46Y46*%
G04 Gerber Fmt 4.6, Leading zero omitted, Abs format (unit mm)*
G04 Created by KiCad (PCBNEW 5.1.9-73d0e3b20d~88~ubuntu20.04.1) date 2021-03-06 00:26:18*
%MOMM*%
%LPD*%
G01*
G04 APERTURE LIST*
%TA.AperFunction,ComponentPad*%
%ADD10C,4.700000*%
%TD*%
%TA.AperFunction,SMDPad,CuDef*%
%ADD11R,3.600000X1.270000*%
%TD*%
%TA.AperFunction,SMDPad,CuDef*%
%ADD12R,4.200000X1.350000*%
%TD*%
%TA.AperFunction,SMDPad,CuDef*%
%ADD13R,1.050000X2.200000*%
%TD*%
%TA.AperFunction,SMDPad,CuDef*%
%ADD14R,1.000000X1.050000*%
%TD*%
%TA.AperFunction,SMDPad,CuDef*%
%ADD15R,2.200000X1.050000*%
%TD*%
%TA.AperFunction,SMDPad,CuDef*%
%ADD16R,1.050000X1.000000*%
%TD*%
%TA.AperFunction,ViaPad*%
%ADD17C,0.800000*%
%TD*%
%TA.AperFunction,Conductor*%
%ADD18C,1.800000*%
%TD*%
%TA.AperFunction,Conductor*%
%ADD19C,0.250000*%
%TD*%
%TA.AperFunction,Conductor*%
%ADD20C,0.064000*%
%TD*%
%TA.AperFunction,Conductor*%
%ADD21C,0.100000*%
%TD*%
%TA.AperFunction,Conductor*%
%ADD22C,0.254000*%
%TD*%
G04 APERTURE END LIST*
D10*
%TO.P, ,1*%
%TO.N,GND*%
X104500000Y-68500000D03*
%TD*%
%TO.P, ,1*%
%TO.N,GND*%
X76500000Y-68500000D03*
%TD*%
%TO.P, ,1*%
%TO.N,GND*%
X104500000Y-51500000D03*
%TD*%
%TO.P, ,1*%
%TO.N,GND*%
X76500000Y-51500000D03*
%TD*%
%TO.P,R2,2*%
%TO.N,GND*%
%TA.AperFunction,SMDPad,CuDef*%
G36*
G01*
X81260000Y-66085000D02*
X81260000Y-66455000D01*
G75*
G02*
X81125000Y-66590000I-135000J0D01*
G01*
X80855000Y-66590000D01*
G75*
G02*
X80720000Y-66455000I0J135000D01*
G01*
X80720000Y-66085000D01*
G75*
G02*
X80855000Y-65950000I135000J0D01*
G01*
X81125000Y-65950000D01*
G75*
G02*
X81260000Y-66085000I0J-135000D01*
G01*
G37*
%TD.AperFunction*%
%TO.P,R2,1*%
%TO.N,Net-(J4-Pad1)*%
%TA.AperFunction,SMDPad,CuDef*%
G36*
G01*
X82280000Y-66085000D02*
X82280000Y-66455000D01*
G75*
G02*
X82145000Y-66590000I-135000J0D01*
G01*
X81875000Y-66590000D01*
G75*
G02*
X81740000Y-66455000I0J135000D01*
G01*
X81740000Y-66085000D01*
G75*
G02*
X81875000Y-65950000I135000J0D01*
G01*
X82145000Y-65950000D01*
G75*
G02*
X82280000Y-66085000I0J-135000D01*
G01*
G37*
%TD.AperFunction*%
%TD*%
%TO.P,R1,2*%
%TO.N,GND*%
%TA.AperFunction,SMDPad,CuDef*%
G36*
G01*
X83740000Y-66455000D02*
X83740000Y-66085000D01*
G75*
G02*
X83875000Y-65950000I135000J0D01*
G01*
X84145000Y-65950000D01*
G75*
G02*
X84280000Y-66085000I0J-135000D01*
G01*
X84280000Y-66455000D01*
G75*
G02*
X84145000Y-66590000I-135000J0D01*
G01*
X83875000Y-66590000D01*
G75*
G02*
X83740000Y-66455000I0J135000D01*
G01*
G37*
%TD.AperFunction*%
%TO.P,R1,1*%
%TO.N,Net-(J4-Pad1)*%
%TA.AperFunction,SMDPad,CuDef*%
G36*
G01*
X82720000Y-66455000D02*
X82720000Y-66085000D01*
G75*
G02*
X82855000Y-65950000I135000J0D01*
G01*
X83125000Y-65950000D01*
G75*
G02*
X83260000Y-66085000I0J-135000D01*
G01*
X83260000Y-66455000D01*
G75*
G02*
X83125000Y-66590000I-135000J0D01*
G01*
X82855000Y-66590000D01*
G75*
G02*
X82720000Y-66455000I0J135000D01*
G01*
G37*
%TD.AperFunction*%
%TD*%
D11*
%TO.P,J5,1*%
%TO.N,Net-(J1-Pad1)*%
X74800000Y-60000000D03*
D12*
%TO.P,J5,2*%
%TO.N,GND*%
X75000000Y-62825000D03*
X75000000Y-57175000D03*
%TD*%
D13*
%TO.P,J4,2*%
%TO.N,GND*%
X83975000Y-69475000D03*
D14*
%TO.P,J4,1*%
%TO.N,Net-(J4-Pad1)*%
X82500000Y-67950000D03*
D13*
%TO.P,J4,2*%
%TO.N,GND*%
X81025000Y-69475000D03*
%TD*%
%TO.P,J3,2*%
%TO.N,GND*%
X91975000Y-69475000D03*
D14*
%TO.P,J3,1*%
X90500000Y-67950000D03*
D13*
%TO.P,J3,2*%
X89025000Y-69475000D03*
%TD*%
%TO.P,J2,2*%
%TO.N,GND*%
X99975000Y-69475000D03*
D14*
%TO.P,J2,1*%
%TO.N,Net-(J2-Pad1)*%
X98500000Y-67950000D03*
D13*
%TO.P,J2,2*%
%TO.N,GND*%
X97025000Y-69475000D03*
%TD*%
D15*
%TO.P,J1,2*%
%TO.N,GND*%
X105475000Y-58525000D03*
D16*
%TO.P,J1,1*%
%TO.N,Net-(J1-Pad1)*%
X103950000Y-60000000D03*
D15*
%TO.P,J1,2*%
%TO.N,GND*%
X105475000Y-61475000D03*
%TD*%
D17*
%TO.N,GND*%
X78400000Y-57800000D03*
X80860000Y-57800000D03*
X83320000Y-57800000D03*
X85780000Y-57800000D03*
X88240000Y-57800000D03*
X90700000Y-57800000D03*
X93160000Y-57800000D03*
X95620000Y-57800000D03*
X98080000Y-57800000D03*
X100540000Y-57800000D03*
X103000000Y-57800000D03*
X78400000Y-62100000D03*
X80860000Y-62100000D03*
X83320000Y-62100000D03*
X85780000Y-62100000D03*
X88240000Y-62100000D03*
X90700000Y-62100000D03*
X93160000Y-62100000D03*
X95620000Y-62100000D03*
X98080000Y-62100000D03*
X100540000Y-62100000D03*
X103000000Y-62100000D03*
X79953000Y-71430000D03*
X81731000Y-71430000D03*
X83382000Y-71430000D03*
X86900000Y-69500000D03*
X88400000Y-66800000D03*
X90000000Y-71400000D03*
X92500000Y-66900000D03*
X94000000Y-68300000D03*
X95400000Y-69500000D03*
X98100000Y-71500000D03*
X99900000Y-71500000D03*
X100800000Y-66900000D03*
X80207000Y-67493000D03*
X85500000Y-67300000D03*
X82500000Y-65000000D03*
X74300000Y-49200000D03*
X76400000Y-48400000D03*
X78800000Y-49300000D03*
X74200000Y-53700000D03*
X76500000Y-54700000D03*
X78900000Y-53600000D03*
X79700000Y-51500000D03*
X101300000Y-51400000D03*
X102300000Y-49100000D03*
X104500000Y-48400000D03*
X106700000Y-49200000D03*
X104500000Y-54700000D03*
X102200000Y-53700000D03*
X106700000Y-53800000D03*
X106800000Y-70600000D03*
X106700000Y-66300000D03*
X104500000Y-65400000D03*
X104500000Y-71600000D03*
X102200000Y-70600000D03*
X102300000Y-66300000D03*
X76500000Y-71600000D03*
X74238000Y-70795000D03*
X78937000Y-70668000D03*
X74200000Y-66200000D03*
X76600000Y-65300000D03*
X78900000Y-66300000D03*
%TD*%
D18*
%TO.N,Net-(J1-Pad1)*%
X74800000Y-60000000D02*
X103321000Y-60000000D01*
D19*
%TO.N,Net-(J4-Pad1)*%
X82990000Y-66270000D02*
X82010000Y-66270000D01*
X82010000Y-66368000D02*
X82500000Y-66858000D01*
X82010000Y-66270000D02*
X82010000Y-66368000D01*
X82490000Y-66368000D02*
X82000000Y-66858000D01*
X82490000Y-66270000D02*
X82490000Y-66368000D01*
X82500000Y-67950000D02*
X82500000Y-67254000D01*
D18*
X82500000Y-67254000D02*
X82500000Y-66858000D01*
%TD*%
D20*
%TO.N,GND*%
X106293034Y-48020077D02*
X106574904Y-48105179D01*
X106834876Y-48243409D01*
X107063050Y-48429503D01*
X107250733Y-48656373D01*
X107390773Y-48915372D01*
X107477841Y-49196643D01*
X107511000Y-49512128D01*
X107511001Y-70476076D01*
X107479923Y-70793034D01*
X107394822Y-71074903D01*
X107256591Y-71334876D01*
X107070494Y-71563053D01*
X106843630Y-71750732D01*
X106584628Y-71890773D01*
X106303357Y-71977841D01*
X105987871Y-72011000D01*
X75023914Y-72011000D01*
X74706966Y-71979923D01*
X74425097Y-71894822D01*
X74165124Y-71756591D01*
X73936947Y-71570494D01*
X73749268Y-71343630D01*
X73609227Y-71084628D01*
X73522159Y-70803357D01*
X73489000Y-70487871D01*
X73489000Y-70277623D01*
X74767632Y-70277623D01*
X75043528Y-70559103D01*
X75473225Y-70803682D01*
X75942380Y-70959732D01*
X76432964Y-71021255D01*
X76926125Y-70985888D01*
X77402910Y-70854989D01*
X77844996Y-70633589D01*
X77932680Y-70575000D01*
X80339226Y-70575000D01*
X80342315Y-70606365D01*
X80351464Y-70636526D01*
X80366321Y-70664321D01*
X80386316Y-70688684D01*
X80410679Y-70708679D01*
X80438474Y-70723536D01*
X80468635Y-70732685D01*
X80500000Y-70735774D01*
X80953000Y-70735000D01*
X80993000Y-70695000D01*
X80993000Y-69507000D01*
X80380000Y-69507000D01*
X80340000Y-69547000D01*
X80339226Y-70575000D01*
X77932680Y-70575000D01*
X77956472Y-70559103D01*
X78232368Y-70277623D01*
X76500000Y-68545255D01*
X74767632Y-70277623D01*
X73489000Y-70277623D01*
X73489000Y-68432964D01*
X73978745Y-68432964D01*
X74014112Y-68926125D01*
X74145011Y-69402910D01*
X74366411Y-69844996D01*
X74440897Y-69956472D01*
X74722377Y-70232368D01*
X76454745Y-68500000D01*
X76545255Y-68500000D01*
X78277623Y-70232368D01*
X78559103Y-69956472D01*
X78803682Y-69526775D01*
X78959732Y-69057620D01*
X79021255Y-68567036D01*
X79007484Y-68375000D01*
X80339226Y-68375000D01*
X80340000Y-69403000D01*
X80380000Y-69443000D01*
X80993000Y-69443000D01*
X80993000Y-68255000D01*
X80953000Y-68215000D01*
X80500000Y-68214226D01*
X80468635Y-68217315D01*
X80438474Y-68226464D01*
X80410679Y-68241321D01*
X80386316Y-68261316D01*
X80366321Y-68285679D01*
X80351464Y-68313474D01*
X80342315Y-68343635D01*
X80339226Y-68375000D01*
X79007484Y-68375000D01*
X78985888Y-68073875D01*
X78854989Y-67597090D01*
X78633589Y-67155004D01*
X78559103Y-67043528D01*
X78277623Y-66767632D01*
X76545255Y-68500000D01*
X76454745Y-68500000D01*
X74722377Y-66767632D01*
X74440897Y-67043528D01*
X74196318Y-67473225D01*
X74040268Y-67942380D01*
X73978745Y-68432964D01*
X73489000Y-68432964D01*
X73489000Y-66722377D01*
X74767632Y-66722377D01*
X76500000Y-68454745D01*
X78232368Y-66722377D01*
X78102618Y-66590000D01*
X80559226Y-66590000D01*
X80562315Y-66621365D01*
X80571464Y-66651526D01*
X80586321Y-66679321D01*
X80606316Y-66703684D01*
X80630679Y-66723679D01*
X80658474Y-66738536D01*
X80688635Y-66747685D01*
X80720000Y-66750774D01*
X80918000Y-66750000D01*
X80958000Y-66710000D01*
X80958000Y-66302000D01*
X80600000Y-66302000D01*
X80560000Y-66342000D01*
X80559226Y-66590000D01*
X78102618Y-66590000D01*
X77956472Y-66440897D01*
X77526775Y-66196318D01*
X77057620Y-66040268D01*
X76567036Y-65978745D01*
X76073875Y-66014112D01*
X75597090Y-66145011D01*
X75155004Y-66366411D01*
X75043528Y-66440897D01*
X74767632Y-66722377D01*
X73489000Y-66722377D01*
X73489000Y-65950000D01*
X80559226Y-65950000D01*
X80560000Y-66198000D01*
X80600000Y-66238000D01*
X80958000Y-66238000D01*
X80958000Y-65830000D01*
X81022000Y-65830000D01*
X81022000Y-66238000D01*
X81042000Y-66238000D01*
X81042000Y-66302000D01*
X81022000Y-66302000D01*
X81022000Y-66710000D01*
X81062000Y-66750000D01*
X81190231Y-66750501D01*
X81186000Y-66793456D01*
X81186000Y-67318543D01*
X81205013Y-67511588D01*
X81280149Y-67759278D01*
X81402163Y-67987550D01*
X81566367Y-68187633D01*
X81583997Y-68202102D01*
X81583997Y-68218113D01*
X81581365Y-68217315D01*
X81550000Y-68214226D01*
X81097000Y-68215000D01*
X81057000Y-68255000D01*
X81057000Y-69443000D01*
X81077000Y-69443000D01*
X81077000Y-69507000D01*
X81057000Y-69507000D01*
X81057000Y-70695000D01*
X81097000Y-70735000D01*
X81550000Y-70735774D01*
X81581365Y-70732685D01*
X81611526Y-70723536D01*
X81639321Y-70708679D01*
X81663684Y-70688684D01*
X81683679Y-70664321D01*
X81698536Y-70636526D01*
X81699909Y-70632000D01*
X83300091Y-70632000D01*
X83301464Y-70636526D01*
X83316321Y-70664321D01*
X83336316Y-70688684D01*
X83360679Y-70708679D01*
X83388474Y-70723536D01*
X83418635Y-70732685D01*
X83450000Y-70735774D01*
X83903000Y-70735000D01*
X83943000Y-70695000D01*
X83943000Y-69507000D01*
X84007000Y-69507000D01*
X84007000Y-70695000D01*
X84047000Y-70735000D01*
X84500000Y-70735774D01*
X84531365Y-70732685D01*
X84561526Y-70723536D01*
X84589321Y-70708679D01*
X84613684Y-70688684D01*
X84633679Y-70664321D01*
X84648536Y-70636526D01*
X84657685Y-70606365D01*
X84660774Y-70575000D01*
X88339226Y-70575000D01*
X88342315Y-70606365D01*
X88351464Y-70636526D01*
X88366321Y-70664321D01*
X88386316Y-70688684D01*
X88410679Y-70708679D01*
X88438474Y-70723536D01*
X88468635Y-70732685D01*
X88500000Y-70735774D01*
X88953000Y-70735000D01*
X88993000Y-70695000D01*
X88993000Y-69507000D01*
X89057000Y-69507000D01*
X89057000Y-70695000D01*
X89097000Y-70735000D01*
X89550000Y-70735774D01*
X89581365Y-70732685D01*
X89611526Y-70723536D01*
X89639321Y-70708679D01*
X89663684Y-70688684D01*
X89683679Y-70664321D01*
X89698536Y-70636526D01*
X89707685Y-70606365D01*
X89710774Y-70575000D01*
X91289226Y-70575000D01*
X91292315Y-70606365D01*
X91301464Y-70636526D01*
X91316321Y-70664321D01*
X91336316Y-70688684D01*
X91360679Y-70708679D01*
X91388474Y-70723536D01*
X91418635Y-70732685D01*
X91450000Y-70735774D01*
X91903000Y-70735000D01*
X91943000Y-70695000D01*
X91943000Y-69507000D01*
X92007000Y-69507000D01*
X92007000Y-70695000D01*
X92047000Y-70735000D01*
X92500000Y-70735774D01*
X92531365Y-70732685D01*
X92561526Y-70723536D01*
X92589321Y-70708679D01*
X92613684Y-70688684D01*
X92633679Y-70664321D01*
X92648536Y-70636526D01*
X92657685Y-70606365D01*
X92660774Y-70575000D01*
X96339226Y-70575000D01*
X96342315Y-70606365D01*
X96351464Y-70636526D01*
X96366321Y-70664321D01*
X96386316Y-70688684D01*
X96410679Y-70708679D01*
X96438474Y-70723536D01*
X96468635Y-70732685D01*
X96500000Y-70735774D01*
X96953000Y-70735000D01*
X96993000Y-70695000D01*
X96993000Y-69507000D01*
X96380000Y-69507000D01*
X96340000Y-69547000D01*
X96339226Y-70575000D01*
X92660774Y-70575000D01*
X92660000Y-69547000D01*
X92620000Y-69507000D01*
X92007000Y-69507000D01*
X91943000Y-69507000D01*
X91330000Y-69507000D01*
X91290000Y-69547000D01*
X91289226Y-70575000D01*
X89710774Y-70575000D01*
X89710000Y-69547000D01*
X89670000Y-69507000D01*
X89057000Y-69507000D01*
X88993000Y-69507000D01*
X88380000Y-69507000D01*
X88340000Y-69547000D01*
X88339226Y-70575000D01*
X84660774Y-70575000D01*
X84660000Y-69547000D01*
X84620000Y-69507000D01*
X84007000Y-69507000D01*
X83943000Y-69507000D01*
X83923000Y-69507000D01*
X83923000Y-69443000D01*
X83943000Y-69443000D01*
X83943000Y-68255000D01*
X84007000Y-68255000D01*
X84007000Y-69443000D01*
X84620000Y-69443000D01*
X84660000Y-69403000D01*
X84660774Y-68375000D01*
X88339226Y-68375000D01*
X88340000Y-69403000D01*
X88380000Y-69443000D01*
X88993000Y-69443000D01*
X88993000Y-68255000D01*
X89057000Y-68255000D01*
X89057000Y-69443000D01*
X89670000Y-69443000D01*
X89710000Y-69403000D01*
X89710698Y-68475000D01*
X89839226Y-68475000D01*
X89842315Y-68506365D01*
X89851464Y-68536526D01*
X89866321Y-68564321D01*
X89886316Y-68588684D01*
X89910679Y-68608679D01*
X89938474Y-68623536D01*
X89968635Y-68632685D01*
X90000000Y-68635774D01*
X90428000Y-68635000D01*
X90468000Y-68595000D01*
X90468000Y-67982000D01*
X90532000Y-67982000D01*
X90532000Y-68595000D01*
X90572000Y-68635000D01*
X91000000Y-68635774D01*
X91031365Y-68632685D01*
X91061526Y-68623536D01*
X91089321Y-68608679D01*
X91113684Y-68588684D01*
X91133679Y-68564321D01*
X91148536Y-68536526D01*
X91157685Y-68506365D01*
X91160774Y-68475000D01*
X91160604Y-68375000D01*
X91289226Y-68375000D01*
X91290000Y-69403000D01*
X91330000Y-69443000D01*
X91943000Y-69443000D01*
X91943000Y-68255000D01*
X92007000Y-68255000D01*
X92007000Y-69443000D01*
X92620000Y-69443000D01*
X92660000Y-69403000D01*
X92660774Y-68375000D01*
X96339226Y-68375000D01*
X96340000Y-69403000D01*
X96380000Y-69443000D01*
X96993000Y-69443000D01*
X96993000Y-68255000D01*
X97057000Y-68255000D01*
X97057000Y-69443000D01*
X97077000Y-69443000D01*
X97077000Y-69507000D01*
X97057000Y-69507000D01*
X97057000Y-70695000D01*
X97097000Y-70735000D01*
X97550000Y-70735774D01*
X97581365Y-70732685D01*
X97611526Y-70723536D01*
X97639321Y-70708679D01*
X97663684Y-70688684D01*
X97683679Y-70664321D01*
X97698536Y-70636526D01*
X97699909Y-70632000D01*
X99300091Y-70632000D01*
X99301464Y-70636526D01*
X99316321Y-70664321D01*
X99336316Y-70688684D01*
X99360679Y-70708679D01*
X99388474Y-70723536D01*
X99418635Y-70732685D01*
X99450000Y-70735774D01*
X99903000Y-70735000D01*
X99943000Y-70695000D01*
X99943000Y-69507000D01*
X100007000Y-69507000D01*
X100007000Y-70695000D01*
X100047000Y-70735000D01*
X100500000Y-70735774D01*
X100531365Y-70732685D01*
X100561526Y-70723536D01*
X100589321Y-70708679D01*
X100613684Y-70688684D01*
X100633679Y-70664321D01*
X100648536Y-70636526D01*
X100657685Y-70606365D01*
X100660774Y-70575000D01*
X100660551Y-70277623D01*
X102767632Y-70277623D01*
X103043528Y-70559103D01*
X103473225Y-70803682D01*
X103942380Y-70959732D01*
X104432964Y-71021255D01*
X104926125Y-70985888D01*
X105402910Y-70854989D01*
X105844996Y-70633589D01*
X105956472Y-70559103D01*
X106232368Y-70277623D01*
X104500000Y-68545255D01*
X102767632Y-70277623D01*
X100660551Y-70277623D01*
X100660000Y-69547000D01*
X100620000Y-69507000D01*
X100007000Y-69507000D01*
X99943000Y-69507000D01*
X99923000Y-69507000D01*
X99923000Y-69443000D01*
X99943000Y-69443000D01*
X99943000Y-68255000D01*
X100007000Y-68255000D01*
X100007000Y-69443000D01*
X100620000Y-69443000D01*
X100660000Y-69403000D01*
X100660730Y-68432964D01*
X101978745Y-68432964D01*
X102014112Y-68926125D01*
X102145011Y-69402910D01*
X102366411Y-69844996D01*
X102440897Y-69956472D01*
X102722377Y-70232368D01*
X104454745Y-68500000D01*
X104545255Y-68500000D01*
X106277623Y-70232368D01*
X106559103Y-69956472D01*
X106803682Y-69526775D01*
X106959732Y-69057620D01*
X107021255Y-68567036D01*
X106985888Y-68073875D01*
X106854989Y-67597090D01*
X106633589Y-67155004D01*
X106559103Y-67043528D01*
X106277623Y-66767632D01*
X104545255Y-68500000D01*
X104454745Y-68500000D01*
X102722377Y-66767632D01*
X102440897Y-67043528D01*
X102196318Y-67473225D01*
X102040268Y-67942380D01*
X101978745Y-68432964D01*
X100660730Y-68432964D01*
X100660774Y-68375000D01*
X100657685Y-68343635D01*
X100648536Y-68313474D01*
X100633679Y-68285679D01*
X100613684Y-68261316D01*
X100589321Y-68241321D01*
X100561526Y-68226464D01*
X100531365Y-68217315D01*
X100500000Y-68214226D01*
X100047000Y-68215000D01*
X100007000Y-68255000D01*
X99943000Y-68255000D01*
X99903000Y-68215000D01*
X99450000Y-68214226D01*
X99418635Y-68217315D01*
X99416003Y-68218113D01*
X99416003Y-67425000D01*
X99408010Y-67343842D01*
X99384337Y-67265803D01*
X99345894Y-67193881D01*
X99294159Y-67130841D01*
X99231119Y-67079106D01*
X99159197Y-67040663D01*
X99081158Y-67016990D01*
X99000000Y-67008997D01*
X98000000Y-67008997D01*
X97918842Y-67016990D01*
X97840803Y-67040663D01*
X97768881Y-67079106D01*
X97705841Y-67130841D01*
X97654106Y-67193881D01*
X97615663Y-67265803D01*
X97591990Y-67343842D01*
X97583997Y-67425000D01*
X97583997Y-68218113D01*
X97581365Y-68217315D01*
X97550000Y-68214226D01*
X97097000Y-68215000D01*
X97057000Y-68255000D01*
X96993000Y-68255000D01*
X96953000Y-68215000D01*
X96500000Y-68214226D01*
X96468635Y-68217315D01*
X96438474Y-68226464D01*
X96410679Y-68241321D01*
X96386316Y-68261316D01*
X96366321Y-68285679D01*
X96351464Y-68313474D01*
X96342315Y-68343635D01*
X96339226Y-68375000D01*
X92660774Y-68375000D01*
X92657685Y-68343635D01*
X92648536Y-68313474D01*
X92633679Y-68285679D01*
X92613684Y-68261316D01*
X92589321Y-68241321D01*
X92561526Y-68226464D01*
X92531365Y-68217315D01*
X92500000Y-68214226D01*
X92047000Y-68215000D01*
X92007000Y-68255000D01*
X91943000Y-68255000D01*
X91903000Y-68215000D01*
X91450000Y-68214226D01*
X91418635Y-68217315D01*
X91388474Y-68226464D01*
X91360679Y-68241321D01*
X91336316Y-68261316D01*
X91316321Y-68285679D01*
X91301464Y-68313474D01*
X91292315Y-68343635D01*
X91289226Y-68375000D01*
X91160604Y-68375000D01*
X91160000Y-68022000D01*
X91120000Y-67982000D01*
X90532000Y-67982000D01*
X90468000Y-67982000D01*
X89880000Y-67982000D01*
X89840000Y-68022000D01*
X89839226Y-68475000D01*
X89710698Y-68475000D01*
X89710774Y-68375000D01*
X89707685Y-68343635D01*
X89698536Y-68313474D01*
X89683679Y-68285679D01*
X89663684Y-68261316D01*
X89639321Y-68241321D01*
X89611526Y-68226464D01*
X89581365Y-68217315D01*
X89550000Y-68214226D01*
X89097000Y-68215000D01*
X89057000Y-68255000D01*
X88993000Y-68255000D01*
X88953000Y-68215000D01*
X88500000Y-68214226D01*
X88468635Y-68217315D01*
X88438474Y-68226464D01*
X88410679Y-68241321D01*
X88386316Y-68261316D01*
X88366321Y-68285679D01*
X88351464Y-68313474D01*
X88342315Y-68343635D01*
X88339226Y-68375000D01*
X84660774Y-68375000D01*
X84657685Y-68343635D01*
X84648536Y-68313474D01*
X84633679Y-68285679D01*
X84613684Y-68261316D01*
X84589321Y-68241321D01*
X84561526Y-68226464D01*
X84531365Y-68217315D01*
X84500000Y-68214226D01*
X84047000Y-68215000D01*
X84007000Y-68255000D01*
X83943000Y-68255000D01*
X83903000Y-68215000D01*
X83450000Y-68214226D01*
X83418635Y-68217315D01*
X83416003Y-68218113D01*
X83416003Y-68202102D01*
X83433633Y-68187633D01*
X83597837Y-67987551D01*
X83719851Y-67759279D01*
X83794987Y-67511589D01*
X83803515Y-67425000D01*
X89839226Y-67425000D01*
X89840000Y-67878000D01*
X89880000Y-67918000D01*
X90468000Y-67918000D01*
X90468000Y-67305000D01*
X90532000Y-67305000D01*
X90532000Y-67918000D01*
X91120000Y-67918000D01*
X91160000Y-67878000D01*
X91160774Y-67425000D01*
X91157685Y-67393635D01*
X91148536Y-67363474D01*
X91133679Y-67335679D01*
X91113684Y-67311316D01*
X91089321Y-67291321D01*
X91061526Y-67276464D01*
X91031365Y-67267315D01*
X91000000Y-67264226D01*
X90572000Y-67265000D01*
X90532000Y-67305000D01*
X90468000Y-67305000D01*
X90428000Y-67265000D01*
X90000000Y-67264226D01*
X89968635Y-67267315D01*
X89938474Y-67276464D01*
X89910679Y-67291321D01*
X89886316Y-67311316D01*
X89866321Y-67335679D01*
X89851464Y-67363474D01*
X89842315Y-67393635D01*
X89839226Y-67425000D01*
X83803515Y-67425000D01*
X83814000Y-67318544D01*
X83814000Y-66793457D01*
X83809769Y-66750501D01*
X83938000Y-66750000D01*
X83978000Y-66710000D01*
X83978000Y-66302000D01*
X84042000Y-66302000D01*
X84042000Y-66710000D01*
X84082000Y-66750000D01*
X84280000Y-66750774D01*
X84311365Y-66747685D01*
X84341526Y-66738536D01*
X84369321Y-66723679D01*
X84370907Y-66722377D01*
X102767632Y-66722377D01*
X104500000Y-68454745D01*
X106232368Y-66722377D01*
X105956472Y-66440897D01*
X105526775Y-66196318D01*
X105057620Y-66040268D01*
X104567036Y-65978745D01*
X104073875Y-66014112D01*
X103597090Y-66145011D01*
X103155004Y-66366411D01*
X103043528Y-66440897D01*
X102767632Y-66722377D01*
X84370907Y-66722377D01*
X84393684Y-66703684D01*
X84413679Y-66679321D01*
X84428536Y-66651526D01*
X84437685Y-66621365D01*
X84440774Y-66590000D01*
X84440000Y-66342000D01*
X84400000Y-66302000D01*
X84042000Y-66302000D01*
X83978000Y-66302000D01*
X83958000Y-66302000D01*
X83958000Y-66238000D01*
X83978000Y-66238000D01*
X83978000Y-65830000D01*
X84042000Y-65830000D01*
X84042000Y-66238000D01*
X84400000Y-66238000D01*
X84440000Y-66198000D01*
X84440774Y-65950000D01*
X84437685Y-65918635D01*
X84428536Y-65888474D01*
X84413679Y-65860679D01*
X84393684Y-65836316D01*
X84369321Y-65816321D01*
X84341526Y-65801464D01*
X84311365Y-65792315D01*
X84280000Y-65789226D01*
X84082000Y-65790000D01*
X84042000Y-65830000D01*
X83978000Y-65830000D01*
X83938000Y-65790000D01*
X83740000Y-65789226D01*
X83708635Y-65792315D01*
X83678474Y-65801464D01*
X83650679Y-65816321D01*
X83626316Y-65836316D01*
X83618762Y-65845520D01*
X83583142Y-65778879D01*
X83514618Y-65695382D01*
X83431121Y-65626858D01*
X83335860Y-65575940D01*
X83232495Y-65544584D01*
X83125000Y-65533997D01*
X82855000Y-65533997D01*
X82747505Y-65544584D01*
X82704115Y-65557746D01*
X82500000Y-65537643D01*
X82295885Y-65557746D01*
X82252495Y-65544584D01*
X82145000Y-65533997D01*
X81875000Y-65533997D01*
X81767505Y-65544584D01*
X81664140Y-65575940D01*
X81568879Y-65626858D01*
X81485382Y-65695382D01*
X81416858Y-65778879D01*
X81381238Y-65845520D01*
X81373684Y-65836316D01*
X81349321Y-65816321D01*
X81321526Y-65801464D01*
X81291365Y-65792315D01*
X81260000Y-65789226D01*
X81062000Y-65790000D01*
X81022000Y-65830000D01*
X80958000Y-65830000D01*
X80918000Y-65790000D01*
X80720000Y-65789226D01*
X80688635Y-65792315D01*
X80658474Y-65801464D01*
X80630679Y-65816321D01*
X80606316Y-65836316D01*
X80586321Y-65860679D01*
X80571464Y-65888474D01*
X80562315Y-65918635D01*
X80559226Y-65950000D01*
X73489000Y-65950000D01*
X73489000Y-63660549D01*
X74928000Y-63660000D01*
X74968000Y-63620000D01*
X74968000Y-62857000D01*
X75032000Y-62857000D01*
X75032000Y-63620000D01*
X75072000Y-63660000D01*
X77100000Y-63660774D01*
X77131365Y-63657685D01*
X77161526Y-63648536D01*
X77189321Y-63633679D01*
X77213684Y-63613684D01*
X77233679Y-63589321D01*
X77248536Y-63561526D01*
X77257685Y-63531365D01*
X77260774Y-63500000D01*
X77260000Y-62897000D01*
X77220000Y-62857000D01*
X75032000Y-62857000D01*
X74968000Y-62857000D01*
X74948000Y-62857000D01*
X74948000Y-62793000D01*
X74968000Y-62793000D01*
X74968000Y-62030000D01*
X75032000Y-62030000D01*
X75032000Y-62793000D01*
X77220000Y-62793000D01*
X77260000Y-62753000D01*
X77260774Y-62150000D01*
X77257685Y-62118635D01*
X77248536Y-62088474D01*
X77233679Y-62060679D01*
X77213684Y-62036316D01*
X77189321Y-62016321D01*
X77161526Y-62001464D01*
X77156700Y-62000000D01*
X104214226Y-62000000D01*
X104217315Y-62031365D01*
X104226464Y-62061526D01*
X104241321Y-62089321D01*
X104261316Y-62113684D01*
X104285679Y-62133679D01*
X104313474Y-62148536D01*
X104343635Y-62157685D01*
X104375000Y-62160774D01*
X105403000Y-62160000D01*
X105443000Y-62120000D01*
X105443000Y-61507000D01*
X105507000Y-61507000D01*
X105507000Y-62120000D01*
X105547000Y-62160000D01*
X106575000Y-62160774D01*
X106606365Y-62157685D01*
X106636526Y-62148536D01*
X106664321Y-62133679D01*
X106688684Y-62113684D01*
X106708679Y-62089321D01*
X106723536Y-62061526D01*
X106732685Y-62031365D01*
X106735774Y-62000000D01*
X106735000Y-61547000D01*
X106695000Y-61507000D01*
X105507000Y-61507000D01*
X105443000Y-61507000D01*
X104255000Y-61507000D01*
X104215000Y-61547000D01*
X104214226Y-62000000D01*
X77156700Y-62000000D01*
X77131365Y-61992315D01*
X77100000Y-61989226D01*
X75072000Y-61990000D01*
X75032000Y-62030000D01*
X74968000Y-62030000D01*
X74928000Y-61990000D01*
X73489000Y-61989451D01*
X73489000Y-61051003D01*
X74009382Y-61051003D01*
X74066449Y-61097837D01*
X74294721Y-61219851D01*
X74542411Y-61294987D01*
X74735456Y-61314000D01*
X103385544Y-61314000D01*
X103578589Y-61294987D01*
X103826279Y-61219851D01*
X104054551Y-61097837D01*
X104214255Y-60966771D01*
X104215000Y-61403000D01*
X104255000Y-61443000D01*
X105443000Y-61443000D01*
X105443000Y-61423000D01*
X105507000Y-61423000D01*
X105507000Y-61443000D01*
X106695000Y-61443000D01*
X106735000Y-61403000D01*
X106735774Y-60950000D01*
X106732685Y-60918635D01*
X106723536Y-60888474D01*
X106708679Y-60860679D01*
X106688684Y-60836316D01*
X106683425Y-60832000D01*
X106700000Y-60832000D01*
X106706243Y-60831385D01*
X106712246Y-60829564D01*
X106717778Y-60826607D01*
X106722627Y-60822627D01*
X106726607Y-60817778D01*
X106729564Y-60812246D01*
X106731385Y-60806243D01*
X106732000Y-60800000D01*
X106732000Y-59200000D01*
X106731385Y-59193757D01*
X106729564Y-59187754D01*
X106726607Y-59182222D01*
X106722627Y-59177373D01*
X106717778Y-59173393D01*
X106712246Y-59170436D01*
X106706243Y-59168615D01*
X106700000Y-59168000D01*
X106683425Y-59168000D01*
X106688684Y-59163684D01*
X106708679Y-59139321D01*
X106723536Y-59111526D01*
X106732685Y-59081365D01*
X106735774Y-59050000D01*
X106735000Y-58597000D01*
X106695000Y-58557000D01*
X105507000Y-58557000D01*
X105507000Y-58577000D01*
X105443000Y-58577000D01*
X105443000Y-58557000D01*
X104255000Y-58557000D01*
X104215000Y-58597000D01*
X104214255Y-59033229D01*
X104054551Y-58902163D01*
X103826279Y-58780149D01*
X103578589Y-58705013D01*
X103385544Y-58686000D01*
X74735456Y-58686000D01*
X74542411Y-58705013D01*
X74294721Y-58780149D01*
X74066449Y-58902163D01*
X74009382Y-58948997D01*
X73489000Y-58948997D01*
X73489000Y-58010549D01*
X74928000Y-58010000D01*
X74968000Y-57970000D01*
X74968000Y-57207000D01*
X75032000Y-57207000D01*
X75032000Y-57970000D01*
X75072000Y-58010000D01*
X77100000Y-58010774D01*
X77131365Y-58007685D01*
X77156699Y-58000000D01*
X104214226Y-58000000D01*
X104215000Y-58453000D01*
X104255000Y-58493000D01*
X105443000Y-58493000D01*
X105443000Y-57880000D01*
X105507000Y-57880000D01*
X105507000Y-58493000D01*
X106695000Y-58493000D01*
X106735000Y-58453000D01*
X106735774Y-58000000D01*
X106732685Y-57968635D01*
X106723536Y-57938474D01*
X106708679Y-57910679D01*
X106688684Y-57886316D01*
X106664321Y-57866321D01*
X106636526Y-57851464D01*
X106606365Y-57842315D01*
X106575000Y-57839226D01*
X105547000Y-57840000D01*
X105507000Y-57880000D01*
X105443000Y-57880000D01*
X105403000Y-57840000D01*
X104375000Y-57839226D01*
X104343635Y-57842315D01*
X104313474Y-57851464D01*
X104285679Y-57866321D01*
X104261316Y-57886316D01*
X104241321Y-57910679D01*
X104226464Y-57938474D01*
X104217315Y-57968635D01*
X104214226Y-58000000D01*
X77156699Y-58000000D01*
X77161526Y-57998536D01*
X77189321Y-57983679D01*
X77213684Y-57963684D01*
X77233679Y-57939321D01*
X77248536Y-57911526D01*
X77257685Y-57881365D01*
X77260774Y-57850000D01*
X77260000Y-57247000D01*
X77220000Y-57207000D01*
X75032000Y-57207000D01*
X74968000Y-57207000D01*
X74948000Y-57207000D01*
X74948000Y-57143000D01*
X74968000Y-57143000D01*
X74968000Y-56380000D01*
X75032000Y-56380000D01*
X75032000Y-57143000D01*
X77220000Y-57143000D01*
X77260000Y-57103000D01*
X77260774Y-56500000D01*
X77257685Y-56468635D01*
X77248536Y-56438474D01*
X77233679Y-56410679D01*
X77213684Y-56386316D01*
X77189321Y-56366321D01*
X77161526Y-56351464D01*
X77131365Y-56342315D01*
X77100000Y-56339226D01*
X75072000Y-56340000D01*
X75032000Y-56380000D01*
X74968000Y-56380000D01*
X74928000Y-56340000D01*
X73489000Y-56339451D01*
X73489000Y-53277623D01*
X74767632Y-53277623D01*
X75043528Y-53559103D01*
X75473225Y-53803682D01*
X75942380Y-53959732D01*
X76432964Y-54021255D01*
X76926125Y-53985888D01*
X77402910Y-53854989D01*
X77844996Y-53633589D01*
X77956472Y-53559103D01*
X78232368Y-53277623D01*
X102767632Y-53277623D01*
X103043528Y-53559103D01*
X103473225Y-53803682D01*
X103942380Y-53959732D01*
X104432964Y-54021255D01*
X104926125Y-53985888D01*
X105402910Y-53854989D01*
X105844996Y-53633589D01*
X105956472Y-53559103D01*
X106232368Y-53277623D01*
X104500000Y-51545255D01*
X102767632Y-53277623D01*
X78232368Y-53277623D01*
X76500000Y-51545255D01*
X74767632Y-53277623D01*
X73489000Y-53277623D01*
X73489000Y-51432964D01*
X73978745Y-51432964D01*
X74014112Y-51926125D01*
X74145011Y-52402910D01*
X74366411Y-52844996D01*
X74440897Y-52956472D01*
X74722377Y-53232368D01*
X76454745Y-51500000D01*
X76545255Y-51500000D01*
X78277623Y-53232368D01*
X78559103Y-52956472D01*
X78803682Y-52526775D01*
X78959732Y-52057620D01*
X79021255Y-51567036D01*
X79011641Y-51432964D01*
X101978745Y-51432964D01*
X102014112Y-51926125D01*
X102145011Y-52402910D01*
X102366411Y-52844996D01*
X102440897Y-52956472D01*
X102722377Y-53232368D01*
X104454745Y-51500000D01*
X104545255Y-51500000D01*
X106277623Y-53232368D01*
X106559103Y-52956472D01*
X106803682Y-52526775D01*
X106959732Y-52057620D01*
X107021255Y-51567036D01*
X106985888Y-51073875D01*
X106854989Y-50597090D01*
X106633589Y-50155004D01*
X106559103Y-50043528D01*
X106277623Y-49767632D01*
X104545255Y-51500000D01*
X104454745Y-51500000D01*
X102722377Y-49767632D01*
X102440897Y-50043528D01*
X102196318Y-50473225D01*
X102040268Y-50942380D01*
X101978745Y-51432964D01*
X79011641Y-51432964D01*
X78985888Y-51073875D01*
X78854989Y-50597090D01*
X78633589Y-50155004D01*
X78559103Y-50043528D01*
X78277623Y-49767632D01*
X76545255Y-51500000D01*
X76454745Y-51500000D01*
X74722377Y-49767632D01*
X74440897Y-50043528D01*
X74196318Y-50473225D01*
X74040268Y-50942380D01*
X73978745Y-51432964D01*
X73489000Y-51432964D01*
X73489000Y-49722377D01*
X74767632Y-49722377D01*
X76500000Y-51454745D01*
X78232368Y-49722377D01*
X102767632Y-49722377D01*
X104500000Y-51454745D01*
X106232368Y-49722377D01*
X105956472Y-49440897D01*
X105526775Y-49196318D01*
X105057620Y-49040268D01*
X104567036Y-48978745D01*
X104073875Y-49014112D01*
X103597090Y-49145011D01*
X103155004Y-49366411D01*
X103043528Y-49440897D01*
X102767632Y-49722377D01*
X78232368Y-49722377D01*
X77956472Y-49440897D01*
X77526775Y-49196318D01*
X77057620Y-49040268D01*
X76567036Y-48978745D01*
X76073875Y-49014112D01*
X75597090Y-49145011D01*
X75155004Y-49366411D01*
X75043528Y-49440897D01*
X74767632Y-49722377D01*
X73489000Y-49722377D01*
X73489000Y-49523914D01*
X73520078Y-49206963D01*
X73605179Y-48925096D01*
X73743409Y-48665124D01*
X73929503Y-48436950D01*
X74156373Y-48249267D01*
X74415372Y-48109227D01*
X74696643Y-48022159D01*
X75012128Y-47989000D01*
X105976086Y-47989000D01*
X106293034Y-48020077D01*
%TA.AperFunction,Conductor*%
D21*
G36*
X106293034Y-48020077D02*
G01*
X106574904Y-48105179D01*
X106834876Y-48243409D01*
X107063050Y-48429503D01*
X107250733Y-48656373D01*
X107390773Y-48915372D01*
X107477841Y-49196643D01*
X107511000Y-49512128D01*
X107511001Y-70476076D01*
X107479923Y-70793034D01*
X107394822Y-71074903D01*
X107256591Y-71334876D01*
X107070494Y-71563053D01*
X106843630Y-71750732D01*
X106584628Y-71890773D01*
X106303357Y-71977841D01*
X105987871Y-72011000D01*
X75023914Y-72011000D01*
X74706966Y-71979923D01*
X74425097Y-71894822D01*
X74165124Y-71756591D01*
X73936947Y-71570494D01*
X73749268Y-71343630D01*
X73609227Y-71084628D01*
X73522159Y-70803357D01*
X73489000Y-70487871D01*
X73489000Y-70277623D01*
X74767632Y-70277623D01*
X75043528Y-70559103D01*
X75473225Y-70803682D01*
X75942380Y-70959732D01*
X76432964Y-71021255D01*
X76926125Y-70985888D01*
X77402910Y-70854989D01*
X77844996Y-70633589D01*
X77932680Y-70575000D01*
X80339226Y-70575000D01*
X80342315Y-70606365D01*
X80351464Y-70636526D01*
X80366321Y-70664321D01*
X80386316Y-70688684D01*
X80410679Y-70708679D01*
X80438474Y-70723536D01*
X80468635Y-70732685D01*
X80500000Y-70735774D01*
X80953000Y-70735000D01*
X80993000Y-70695000D01*
X80993000Y-69507000D01*
X80380000Y-69507000D01*
X80340000Y-69547000D01*
X80339226Y-70575000D01*
X77932680Y-70575000D01*
X77956472Y-70559103D01*
X78232368Y-70277623D01*
X76500000Y-68545255D01*
X74767632Y-70277623D01*
X73489000Y-70277623D01*
X73489000Y-68432964D01*
X73978745Y-68432964D01*
X74014112Y-68926125D01*
X74145011Y-69402910D01*
X74366411Y-69844996D01*
X74440897Y-69956472D01*
X74722377Y-70232368D01*
X76454745Y-68500000D01*
X76545255Y-68500000D01*
X78277623Y-70232368D01*
X78559103Y-69956472D01*
X78803682Y-69526775D01*
X78959732Y-69057620D01*
X79021255Y-68567036D01*
X79007484Y-68375000D01*
X80339226Y-68375000D01*
X80340000Y-69403000D01*
X80380000Y-69443000D01*
X80993000Y-69443000D01*
X80993000Y-68255000D01*
X80953000Y-68215000D01*
X80500000Y-68214226D01*
X80468635Y-68217315D01*
X80438474Y-68226464D01*
X80410679Y-68241321D01*
X80386316Y-68261316D01*
X80366321Y-68285679D01*
X80351464Y-68313474D01*
X80342315Y-68343635D01*
X80339226Y-68375000D01*
X79007484Y-68375000D01*
X78985888Y-68073875D01*
X78854989Y-67597090D01*
X78633589Y-67155004D01*
X78559103Y-67043528D01*
X78277623Y-66767632D01*
X76545255Y-68500000D01*
X76454745Y-68500000D01*
X74722377Y-66767632D01*
X74440897Y-67043528D01*
X74196318Y-67473225D01*
X74040268Y-67942380D01*
X73978745Y-68432964D01*
X73489000Y-68432964D01*
X73489000Y-66722377D01*
X74767632Y-66722377D01*
X76500000Y-68454745D01*
X78232368Y-66722377D01*
X78102618Y-66590000D01*
X80559226Y-66590000D01*
X80562315Y-66621365D01*
X80571464Y-66651526D01*
X80586321Y-66679321D01*
X80606316Y-66703684D01*
X80630679Y-66723679D01*
X80658474Y-66738536D01*
X80688635Y-66747685D01*
X80720000Y-66750774D01*
X80918000Y-66750000D01*
X80958000Y-66710000D01*
X80958000Y-66302000D01*
X80600000Y-66302000D01*
X80560000Y-66342000D01*
X80559226Y-66590000D01*
X78102618Y-66590000D01*
X77956472Y-66440897D01*
X77526775Y-66196318D01*
X77057620Y-66040268D01*
X76567036Y-65978745D01*
X76073875Y-66014112D01*
X75597090Y-66145011D01*
X75155004Y-66366411D01*
X75043528Y-66440897D01*
X74767632Y-66722377D01*
X73489000Y-66722377D01*
X73489000Y-65950000D01*
X80559226Y-65950000D01*
X80560000Y-66198000D01*
X80600000Y-66238000D01*
X80958000Y-66238000D01*
X80958000Y-65830000D01*
X81022000Y-65830000D01*
X81022000Y-66238000D01*
X81042000Y-66238000D01*
X81042000Y-66302000D01*
X81022000Y-66302000D01*
X81022000Y-66710000D01*
X81062000Y-66750000D01*
X81190231Y-66750501D01*
X81186000Y-66793456D01*
X81186000Y-67318543D01*
X81205013Y-67511588D01*
X81280149Y-67759278D01*
X81402163Y-67987550D01*
X81566367Y-68187633D01*
X81583997Y-68202102D01*
X81583997Y-68218113D01*
X81581365Y-68217315D01*
X81550000Y-68214226D01*
X81097000Y-68215000D01*
X81057000Y-68255000D01*
X81057000Y-69443000D01*
X81077000Y-69443000D01*
X81077000Y-69507000D01*
X81057000Y-69507000D01*
X81057000Y-70695000D01*
X81097000Y-70735000D01*
X81550000Y-70735774D01*
X81581365Y-70732685D01*
X81611526Y-70723536D01*
X81639321Y-70708679D01*
X81663684Y-70688684D01*
X81683679Y-70664321D01*
X81698536Y-70636526D01*
X81699909Y-70632000D01*
X83300091Y-70632000D01*
X83301464Y-70636526D01*
X83316321Y-70664321D01*
X83336316Y-70688684D01*
X83360679Y-70708679D01*
X83388474Y-70723536D01*
X83418635Y-70732685D01*
X83450000Y-70735774D01*
X83903000Y-70735000D01*
X83943000Y-70695000D01*
X83943000Y-69507000D01*
X84007000Y-69507000D01*
X84007000Y-70695000D01*
X84047000Y-70735000D01*
X84500000Y-70735774D01*
X84531365Y-70732685D01*
X84561526Y-70723536D01*
X84589321Y-70708679D01*
X84613684Y-70688684D01*
X84633679Y-70664321D01*
X84648536Y-70636526D01*
X84657685Y-70606365D01*
X84660774Y-70575000D01*
X88339226Y-70575000D01*
X88342315Y-70606365D01*
X88351464Y-70636526D01*
X88366321Y-70664321D01*
X88386316Y-70688684D01*
X88410679Y-70708679D01*
X88438474Y-70723536D01*
X88468635Y-70732685D01*
X88500000Y-70735774D01*
X88953000Y-70735000D01*
X88993000Y-70695000D01*
X88993000Y-69507000D01*
X89057000Y-69507000D01*
X89057000Y-70695000D01*
X89097000Y-70735000D01*
X89550000Y-70735774D01*
X89581365Y-70732685D01*
X89611526Y-70723536D01*
X89639321Y-70708679D01*
X89663684Y-70688684D01*
X89683679Y-70664321D01*
X89698536Y-70636526D01*
X89707685Y-70606365D01*
X89710774Y-70575000D01*
X91289226Y-70575000D01*
X91292315Y-70606365D01*
X91301464Y-70636526D01*
X91316321Y-70664321D01*
X91336316Y-70688684D01*
X91360679Y-70708679D01*
X91388474Y-70723536D01*
X91418635Y-70732685D01*
X91450000Y-70735774D01*
X91903000Y-70735000D01*
X91943000Y-70695000D01*
X91943000Y-69507000D01*
X92007000Y-69507000D01*
X92007000Y-70695000D01*
X92047000Y-70735000D01*
X92500000Y-70735774D01*
X92531365Y-70732685D01*
X92561526Y-70723536D01*
X92589321Y-70708679D01*
X92613684Y-70688684D01*
X92633679Y-70664321D01*
X92648536Y-70636526D01*
X92657685Y-70606365D01*
X92660774Y-70575000D01*
X96339226Y-70575000D01*
X96342315Y-70606365D01*
X96351464Y-70636526D01*
X96366321Y-70664321D01*
X96386316Y-70688684D01*
X96410679Y-70708679D01*
X96438474Y-70723536D01*
X96468635Y-70732685D01*
X96500000Y-70735774D01*
X96953000Y-70735000D01*
X96993000Y-70695000D01*
X96993000Y-69507000D01*
X96380000Y-69507000D01*
X96340000Y-69547000D01*
X96339226Y-70575000D01*
X92660774Y-70575000D01*
X92660000Y-69547000D01*
X92620000Y-69507000D01*
X92007000Y-69507000D01*
X91943000Y-69507000D01*
X91330000Y-69507000D01*
X91290000Y-69547000D01*
X91289226Y-70575000D01*
X89710774Y-70575000D01*
X89710000Y-69547000D01*
X89670000Y-69507000D01*
X89057000Y-69507000D01*
X88993000Y-69507000D01*
X88380000Y-69507000D01*
X88340000Y-69547000D01*
X88339226Y-70575000D01*
X84660774Y-70575000D01*
X84660000Y-69547000D01*
X84620000Y-69507000D01*
X84007000Y-69507000D01*
X83943000Y-69507000D01*
X83923000Y-69507000D01*
X83923000Y-69443000D01*
X83943000Y-69443000D01*
X83943000Y-68255000D01*
X84007000Y-68255000D01*
X84007000Y-69443000D01*
X84620000Y-69443000D01*
X84660000Y-69403000D01*
X84660774Y-68375000D01*
X88339226Y-68375000D01*
X88340000Y-69403000D01*
X88380000Y-69443000D01*
X88993000Y-69443000D01*
X88993000Y-68255000D01*
X89057000Y-68255000D01*
X89057000Y-69443000D01*
X89670000Y-69443000D01*
X89710000Y-69403000D01*
X89710698Y-68475000D01*
X89839226Y-68475000D01*
X89842315Y-68506365D01*
X89851464Y-68536526D01*
X89866321Y-68564321D01*
X89886316Y-68588684D01*
X89910679Y-68608679D01*
X89938474Y-68623536D01*
X89968635Y-68632685D01*
X90000000Y-68635774D01*
X90428000Y-68635000D01*
X90468000Y-68595000D01*
X90468000Y-67982000D01*
X90532000Y-67982000D01*
X90532000Y-68595000D01*
X90572000Y-68635000D01*
X91000000Y-68635774D01*
X91031365Y-68632685D01*
X91061526Y-68623536D01*
X91089321Y-68608679D01*
X91113684Y-68588684D01*
X91133679Y-68564321D01*
X91148536Y-68536526D01*
X91157685Y-68506365D01*
X91160774Y-68475000D01*
X91160604Y-68375000D01*
X91289226Y-68375000D01*
X91290000Y-69403000D01*
X91330000Y-69443000D01*
X91943000Y-69443000D01*
X91943000Y-68255000D01*
X92007000Y-68255000D01*
X92007000Y-69443000D01*
X92620000Y-69443000D01*
X92660000Y-69403000D01*
X92660774Y-68375000D01*
X96339226Y-68375000D01*
X96340000Y-69403000D01*
X96380000Y-69443000D01*
X96993000Y-69443000D01*
X96993000Y-68255000D01*
X97057000Y-68255000D01*
X97057000Y-69443000D01*
X97077000Y-69443000D01*
X97077000Y-69507000D01*
X97057000Y-69507000D01*
X97057000Y-70695000D01*
X97097000Y-70735000D01*
X97550000Y-70735774D01*
X97581365Y-70732685D01*
X97611526Y-70723536D01*
X97639321Y-70708679D01*
X97663684Y-70688684D01*
X97683679Y-70664321D01*
X97698536Y-70636526D01*
X97699909Y-70632000D01*
X99300091Y-70632000D01*
X99301464Y-70636526D01*
X99316321Y-70664321D01*
X99336316Y-70688684D01*
X99360679Y-70708679D01*
X99388474Y-70723536D01*
X99418635Y-70732685D01*
X99450000Y-70735774D01*
X99903000Y-70735000D01*
X99943000Y-70695000D01*
X99943000Y-69507000D01*
X100007000Y-69507000D01*
X100007000Y-70695000D01*
X100047000Y-70735000D01*
X100500000Y-70735774D01*
X100531365Y-70732685D01*
X100561526Y-70723536D01*
X100589321Y-70708679D01*
X100613684Y-70688684D01*
X100633679Y-70664321D01*
X100648536Y-70636526D01*
X100657685Y-70606365D01*
X100660774Y-70575000D01*
X100660551Y-70277623D01*
X102767632Y-70277623D01*
X103043528Y-70559103D01*
X103473225Y-70803682D01*
X103942380Y-70959732D01*
X104432964Y-71021255D01*
X104926125Y-70985888D01*
X105402910Y-70854989D01*
X105844996Y-70633589D01*
X105956472Y-70559103D01*
X106232368Y-70277623D01*
X104500000Y-68545255D01*
X102767632Y-70277623D01*
X100660551Y-70277623D01*
X100660000Y-69547000D01*
X100620000Y-69507000D01*
X100007000Y-69507000D01*
X99943000Y-69507000D01*
X99923000Y-69507000D01*
X99923000Y-69443000D01*
X99943000Y-69443000D01*
X99943000Y-68255000D01*
X100007000Y-68255000D01*
X100007000Y-69443000D01*
X100620000Y-69443000D01*
X100660000Y-69403000D01*
X100660730Y-68432964D01*
X101978745Y-68432964D01*
X102014112Y-68926125D01*
X102145011Y-69402910D01*
X102366411Y-69844996D01*
X102440897Y-69956472D01*
X102722377Y-70232368D01*
X104454745Y-68500000D01*
X104545255Y-68500000D01*
X106277623Y-70232368D01*
X106559103Y-69956472D01*
X106803682Y-69526775D01*
X106959732Y-69057620D01*
X107021255Y-68567036D01*
X106985888Y-68073875D01*
X106854989Y-67597090D01*
X106633589Y-67155004D01*
X106559103Y-67043528D01*
X106277623Y-66767632D01*
X104545255Y-68500000D01*
X104454745Y-68500000D01*
X102722377Y-66767632D01*
X102440897Y-67043528D01*
X102196318Y-67473225D01*
X102040268Y-67942380D01*
X101978745Y-68432964D01*
X100660730Y-68432964D01*
X100660774Y-68375000D01*
X100657685Y-68343635D01*
X100648536Y-68313474D01*
X100633679Y-68285679D01*
X100613684Y-68261316D01*
X100589321Y-68241321D01*
X100561526Y-68226464D01*
X100531365Y-68217315D01*
X100500000Y-68214226D01*
X100047000Y-68215000D01*
X100007000Y-68255000D01*
X99943000Y-68255000D01*
X99903000Y-68215000D01*
X99450000Y-68214226D01*
X99418635Y-68217315D01*
X99416003Y-68218113D01*
X99416003Y-67425000D01*
X99408010Y-67343842D01*
X99384337Y-67265803D01*
X99345894Y-67193881D01*
X99294159Y-67130841D01*
X99231119Y-67079106D01*
X99159197Y-67040663D01*
X99081158Y-67016990D01*
X99000000Y-67008997D01*
X98000000Y-67008997D01*
X97918842Y-67016990D01*
X97840803Y-67040663D01*
X97768881Y-67079106D01*
X97705841Y-67130841D01*
X97654106Y-67193881D01*
X97615663Y-67265803D01*
X97591990Y-67343842D01*
X97583997Y-67425000D01*
X97583997Y-68218113D01*
X97581365Y-68217315D01*
X97550000Y-68214226D01*
X97097000Y-68215000D01*
X97057000Y-68255000D01*
X96993000Y-68255000D01*
X96953000Y-68215000D01*
X96500000Y-68214226D01*
X96468635Y-68217315D01*
X96438474Y-68226464D01*
X96410679Y-68241321D01*
X96386316Y-68261316D01*
X96366321Y-68285679D01*
X96351464Y-68313474D01*
X96342315Y-68343635D01*
X96339226Y-68375000D01*
X92660774Y-68375000D01*
X92657685Y-68343635D01*
X92648536Y-68313474D01*
X92633679Y-68285679D01*
X92613684Y-68261316D01*
X92589321Y-68241321D01*
X92561526Y-68226464D01*
X92531365Y-68217315D01*
X92500000Y-68214226D01*
X92047000Y-68215000D01*
X92007000Y-68255000D01*
X91943000Y-68255000D01*
X91903000Y-68215000D01*
X91450000Y-68214226D01*
X91418635Y-68217315D01*
X91388474Y-68226464D01*
X91360679Y-68241321D01*
X91336316Y-68261316D01*
X91316321Y-68285679D01*
X91301464Y-68313474D01*
X91292315Y-68343635D01*
X91289226Y-68375000D01*
X91160604Y-68375000D01*
X91160000Y-68022000D01*
X91120000Y-67982000D01*
X90532000Y-67982000D01*
X90468000Y-67982000D01*
X89880000Y-67982000D01*
X89840000Y-68022000D01*
X89839226Y-68475000D01*
X89710698Y-68475000D01*
X89710774Y-68375000D01*
X89707685Y-68343635D01*
X89698536Y-68313474D01*
X89683679Y-68285679D01*
X89663684Y-68261316D01*
X89639321Y-68241321D01*
X89611526Y-68226464D01*
X89581365Y-68217315D01*
X89550000Y-68214226D01*
X89097000Y-68215000D01*
X89057000Y-68255000D01*
X88993000Y-68255000D01*
X88953000Y-68215000D01*
X88500000Y-68214226D01*
X88468635Y-68217315D01*
X88438474Y-68226464D01*
X88410679Y-68241321D01*
X88386316Y-68261316D01*
X88366321Y-68285679D01*
X88351464Y-68313474D01*
X88342315Y-68343635D01*
X88339226Y-68375000D01*
X84660774Y-68375000D01*
X84657685Y-68343635D01*
X84648536Y-68313474D01*
X84633679Y-68285679D01*
X84613684Y-68261316D01*
X84589321Y-68241321D01*
X84561526Y-68226464D01*
X84531365Y-68217315D01*
X84500000Y-68214226D01*
X84047000Y-68215000D01*
X84007000Y-68255000D01*
X83943000Y-68255000D01*
X83903000Y-68215000D01*
X83450000Y-68214226D01*
X83418635Y-68217315D01*
X83416003Y-68218113D01*
X83416003Y-68202102D01*
X83433633Y-68187633D01*
X83597837Y-67987551D01*
X83719851Y-67759279D01*
X83794987Y-67511589D01*
X83803515Y-67425000D01*
X89839226Y-67425000D01*
X89840000Y-67878000D01*
X89880000Y-67918000D01*
X90468000Y-67918000D01*
X90468000Y-67305000D01*
X90532000Y-67305000D01*
X90532000Y-67918000D01*
X91120000Y-67918000D01*
X91160000Y-67878000D01*
X91160774Y-67425000D01*
X91157685Y-67393635D01*
X91148536Y-67363474D01*
X91133679Y-67335679D01*
X91113684Y-67311316D01*
X91089321Y-67291321D01*
X91061526Y-67276464D01*
X91031365Y-67267315D01*
X91000000Y-67264226D01*
X90572000Y-67265000D01*
X90532000Y-67305000D01*
X90468000Y-67305000D01*
X90428000Y-67265000D01*
X90000000Y-67264226D01*
X89968635Y-67267315D01*
X89938474Y-67276464D01*
X89910679Y-67291321D01*
X89886316Y-67311316D01*
X89866321Y-67335679D01*
X89851464Y-67363474D01*
X89842315Y-67393635D01*
X89839226Y-67425000D01*
X83803515Y-67425000D01*
X83814000Y-67318544D01*
X83814000Y-66793457D01*
X83809769Y-66750501D01*
X83938000Y-66750000D01*
X83978000Y-66710000D01*
X83978000Y-66302000D01*
X84042000Y-66302000D01*
X84042000Y-66710000D01*
X84082000Y-66750000D01*
X84280000Y-66750774D01*
X84311365Y-66747685D01*
X84341526Y-66738536D01*
X84369321Y-66723679D01*
X84370907Y-66722377D01*
X102767632Y-66722377D01*
X104500000Y-68454745D01*
X106232368Y-66722377D01*
X105956472Y-66440897D01*
X105526775Y-66196318D01*
X105057620Y-66040268D01*
X104567036Y-65978745D01*
X104073875Y-66014112D01*
X103597090Y-66145011D01*
X103155004Y-66366411D01*
X103043528Y-66440897D01*
X102767632Y-66722377D01*
X84370907Y-66722377D01*
X84393684Y-66703684D01*
X84413679Y-66679321D01*
X84428536Y-66651526D01*
X84437685Y-66621365D01*
X84440774Y-66590000D01*
X84440000Y-66342000D01*
X84400000Y-66302000D01*
X84042000Y-66302000D01*
X83978000Y-66302000D01*
X83958000Y-66302000D01*
X83958000Y-66238000D01*
X83978000Y-66238000D01*
X83978000Y-65830000D01*
X84042000Y-65830000D01*
X84042000Y-66238000D01*
X84400000Y-66238000D01*
X84440000Y-66198000D01*
X84440774Y-65950000D01*
X84437685Y-65918635D01*
X84428536Y-65888474D01*
X84413679Y-65860679D01*
X84393684Y-65836316D01*
X84369321Y-65816321D01*
X84341526Y-65801464D01*
X84311365Y-65792315D01*
X84280000Y-65789226D01*
X84082000Y-65790000D01*
X84042000Y-65830000D01*
X83978000Y-65830000D01*
X83938000Y-65790000D01*
X83740000Y-65789226D01*
X83708635Y-65792315D01*
X83678474Y-65801464D01*
X83650679Y-65816321D01*
X83626316Y-65836316D01*
X83618762Y-65845520D01*
X83583142Y-65778879D01*
X83514618Y-65695382D01*
X83431121Y-65626858D01*
X83335860Y-65575940D01*
X83232495Y-65544584D01*
X83125000Y-65533997D01*
X82855000Y-65533997D01*
X82747505Y-65544584D01*
X82704115Y-65557746D01*
X82500000Y-65537643D01*
X82295885Y-65557746D01*
X82252495Y-65544584D01*
X82145000Y-65533997D01*
X81875000Y-65533997D01*
X81767505Y-65544584D01*
X81664140Y-65575940D01*
X81568879Y-65626858D01*
X81485382Y-65695382D01*
X81416858Y-65778879D01*
X81381238Y-65845520D01*
X81373684Y-65836316D01*
X81349321Y-65816321D01*
X81321526Y-65801464D01*
X81291365Y-65792315D01*
X81260000Y-65789226D01*
X81062000Y-65790000D01*
X81022000Y-65830000D01*
X80958000Y-65830000D01*
X80918000Y-65790000D01*
X80720000Y-65789226D01*
X80688635Y-65792315D01*
X80658474Y-65801464D01*
X80630679Y-65816321D01*
X80606316Y-65836316D01*
X80586321Y-65860679D01*
X80571464Y-65888474D01*
X80562315Y-65918635D01*
X80559226Y-65950000D01*
X73489000Y-65950000D01*
X73489000Y-63660549D01*
X74928000Y-63660000D01*
X74968000Y-63620000D01*
X74968000Y-62857000D01*
X75032000Y-62857000D01*
X75032000Y-63620000D01*
X75072000Y-63660000D01*
X77100000Y-63660774D01*
X77131365Y-63657685D01*
X77161526Y-63648536D01*
X77189321Y-63633679D01*
X77213684Y-63613684D01*
X77233679Y-63589321D01*
X77248536Y-63561526D01*
X77257685Y-63531365D01*
X77260774Y-63500000D01*
X77260000Y-62897000D01*
X77220000Y-62857000D01*
X75032000Y-62857000D01*
X74968000Y-62857000D01*
X74948000Y-62857000D01*
X74948000Y-62793000D01*
X74968000Y-62793000D01*
X74968000Y-62030000D01*
X75032000Y-62030000D01*
X75032000Y-62793000D01*
X77220000Y-62793000D01*
X77260000Y-62753000D01*
X77260774Y-62150000D01*
X77257685Y-62118635D01*
X77248536Y-62088474D01*
X77233679Y-62060679D01*
X77213684Y-62036316D01*
X77189321Y-62016321D01*
X77161526Y-62001464D01*
X77156700Y-62000000D01*
X104214226Y-62000000D01*
X104217315Y-62031365D01*
X104226464Y-62061526D01*
X104241321Y-62089321D01*
X104261316Y-62113684D01*
X104285679Y-62133679D01*
X104313474Y-62148536D01*
X104343635Y-62157685D01*
X104375000Y-62160774D01*
X105403000Y-62160000D01*
X105443000Y-62120000D01*
X105443000Y-61507000D01*
X105507000Y-61507000D01*
X105507000Y-62120000D01*
X105547000Y-62160000D01*
X106575000Y-62160774D01*
X106606365Y-62157685D01*
X106636526Y-62148536D01*
X106664321Y-62133679D01*
X106688684Y-62113684D01*
X106708679Y-62089321D01*
X106723536Y-62061526D01*
X106732685Y-62031365D01*
X106735774Y-62000000D01*
X106735000Y-61547000D01*
X106695000Y-61507000D01*
X105507000Y-61507000D01*
X105443000Y-61507000D01*
X104255000Y-61507000D01*
X104215000Y-61547000D01*
X104214226Y-62000000D01*
X77156700Y-62000000D01*
X77131365Y-61992315D01*
X77100000Y-61989226D01*
X75072000Y-61990000D01*
X75032000Y-62030000D01*
X74968000Y-62030000D01*
X74928000Y-61990000D01*
X73489000Y-61989451D01*
X73489000Y-61051003D01*
X74009382Y-61051003D01*
X74066449Y-61097837D01*
X74294721Y-61219851D01*
X74542411Y-61294987D01*
X74735456Y-61314000D01*
X103385544Y-61314000D01*
X103578589Y-61294987D01*
X103826279Y-61219851D01*
X104054551Y-61097837D01*
X104214255Y-60966771D01*
X104215000Y-61403000D01*
X104255000Y-61443000D01*
X105443000Y-61443000D01*
X105443000Y-61423000D01*
X105507000Y-61423000D01*
X105507000Y-61443000D01*
X106695000Y-61443000D01*
X106735000Y-61403000D01*
X106735774Y-60950000D01*
X106732685Y-60918635D01*
X106723536Y-60888474D01*
X106708679Y-60860679D01*
X106688684Y-60836316D01*
X106683425Y-60832000D01*
X106700000Y-60832000D01*
X106706243Y-60831385D01*
X106712246Y-60829564D01*
X106717778Y-60826607D01*
X106722627Y-60822627D01*
X106726607Y-60817778D01*
X106729564Y-60812246D01*
X106731385Y-60806243D01*
X106732000Y-60800000D01*
X106732000Y-59200000D01*
X106731385Y-59193757D01*
X106729564Y-59187754D01*
X106726607Y-59182222D01*
X106722627Y-59177373D01*
X106717778Y-59173393D01*
X106712246Y-59170436D01*
X106706243Y-59168615D01*
X106700000Y-59168000D01*
X106683425Y-59168000D01*
X106688684Y-59163684D01*
X106708679Y-59139321D01*
X106723536Y-59111526D01*
X106732685Y-59081365D01*
X106735774Y-59050000D01*
X106735000Y-58597000D01*
X106695000Y-58557000D01*
X105507000Y-58557000D01*
X105507000Y-58577000D01*
X105443000Y-58577000D01*
X105443000Y-58557000D01*
X104255000Y-58557000D01*
X104215000Y-58597000D01*
X104214255Y-59033229D01*
X104054551Y-58902163D01*
X103826279Y-58780149D01*
X103578589Y-58705013D01*
X103385544Y-58686000D01*
X74735456Y-58686000D01*
X74542411Y-58705013D01*
X74294721Y-58780149D01*
X74066449Y-58902163D01*
X74009382Y-58948997D01*
X73489000Y-58948997D01*
X73489000Y-58010549D01*
X74928000Y-58010000D01*
X74968000Y-57970000D01*
X74968000Y-57207000D01*
X75032000Y-57207000D01*
X75032000Y-57970000D01*
X75072000Y-58010000D01*
X77100000Y-58010774D01*
X77131365Y-58007685D01*
X77156699Y-58000000D01*
X104214226Y-58000000D01*
X104215000Y-58453000D01*
X104255000Y-58493000D01*
X105443000Y-58493000D01*
X105443000Y-57880000D01*
X105507000Y-57880000D01*
X105507000Y-58493000D01*
X106695000Y-58493000D01*
X106735000Y-58453000D01*
X106735774Y-58000000D01*
X106732685Y-57968635D01*
X106723536Y-57938474D01*
X106708679Y-57910679D01*
X106688684Y-57886316D01*
X106664321Y-57866321D01*
X106636526Y-57851464D01*
X106606365Y-57842315D01*
X106575000Y-57839226D01*
X105547000Y-57840000D01*
X105507000Y-57880000D01*
X105443000Y-57880000D01*
X105403000Y-57840000D01*
X104375000Y-57839226D01*
X104343635Y-57842315D01*
X104313474Y-57851464D01*
X104285679Y-57866321D01*
X104261316Y-57886316D01*
X104241321Y-57910679D01*
X104226464Y-57938474D01*
X104217315Y-57968635D01*
X104214226Y-58000000D01*
X77156699Y-58000000D01*
X77161526Y-57998536D01*
X77189321Y-57983679D01*
X77213684Y-57963684D01*
X77233679Y-57939321D01*
X77248536Y-57911526D01*
X77257685Y-57881365D01*
X77260774Y-57850000D01*
X77260000Y-57247000D01*
X77220000Y-57207000D01*
X75032000Y-57207000D01*
X74968000Y-57207000D01*
X74948000Y-57207000D01*
X74948000Y-57143000D01*
X74968000Y-57143000D01*
X74968000Y-56380000D01*
X75032000Y-56380000D01*
X75032000Y-57143000D01*
X77220000Y-57143000D01*
X77260000Y-57103000D01*
X77260774Y-56500000D01*
X77257685Y-56468635D01*
X77248536Y-56438474D01*
X77233679Y-56410679D01*
X77213684Y-56386316D01*
X77189321Y-56366321D01*
X77161526Y-56351464D01*
X77131365Y-56342315D01*
X77100000Y-56339226D01*
X75072000Y-56340000D01*
X75032000Y-56380000D01*
X74968000Y-56380000D01*
X74928000Y-56340000D01*
X73489000Y-56339451D01*
X73489000Y-53277623D01*
X74767632Y-53277623D01*
X75043528Y-53559103D01*
X75473225Y-53803682D01*
X75942380Y-53959732D01*
X76432964Y-54021255D01*
X76926125Y-53985888D01*
X77402910Y-53854989D01*
X77844996Y-53633589D01*
X77956472Y-53559103D01*
X78232368Y-53277623D01*
X102767632Y-53277623D01*
X103043528Y-53559103D01*
X103473225Y-53803682D01*
X103942380Y-53959732D01*
X104432964Y-54021255D01*
X104926125Y-53985888D01*
X105402910Y-53854989D01*
X105844996Y-53633589D01*
X105956472Y-53559103D01*
X106232368Y-53277623D01*
X104500000Y-51545255D01*
X102767632Y-53277623D01*
X78232368Y-53277623D01*
X76500000Y-51545255D01*
X74767632Y-53277623D01*
X73489000Y-53277623D01*
X73489000Y-51432964D01*
X73978745Y-51432964D01*
X74014112Y-51926125D01*
X74145011Y-52402910D01*
X74366411Y-52844996D01*
X74440897Y-52956472D01*
X74722377Y-53232368D01*
X76454745Y-51500000D01*
X76545255Y-51500000D01*
X78277623Y-53232368D01*
X78559103Y-52956472D01*
X78803682Y-52526775D01*
X78959732Y-52057620D01*
X79021255Y-51567036D01*
X79011641Y-51432964D01*
X101978745Y-51432964D01*
X102014112Y-51926125D01*
X102145011Y-52402910D01*
X102366411Y-52844996D01*
X102440897Y-52956472D01*
X102722377Y-53232368D01*
X104454745Y-51500000D01*
X104545255Y-51500000D01*
X106277623Y-53232368D01*
X106559103Y-52956472D01*
X106803682Y-52526775D01*
X106959732Y-52057620D01*
X107021255Y-51567036D01*
X106985888Y-51073875D01*
X106854989Y-50597090D01*
X106633589Y-50155004D01*
X106559103Y-50043528D01*
X106277623Y-49767632D01*
X104545255Y-51500000D01*
X104454745Y-51500000D01*
X102722377Y-49767632D01*
X102440897Y-50043528D01*
X102196318Y-50473225D01*
X102040268Y-50942380D01*
X101978745Y-51432964D01*
X79011641Y-51432964D01*
X78985888Y-51073875D01*
X78854989Y-50597090D01*
X78633589Y-50155004D01*
X78559103Y-50043528D01*
X78277623Y-49767632D01*
X76545255Y-51500000D01*
X76454745Y-51500000D01*
X74722377Y-49767632D01*
X74440897Y-50043528D01*
X74196318Y-50473225D01*
X74040268Y-50942380D01*
X73978745Y-51432964D01*
X73489000Y-51432964D01*
X73489000Y-49722377D01*
X74767632Y-49722377D01*
X76500000Y-51454745D01*
X78232368Y-49722377D01*
X102767632Y-49722377D01*
X104500000Y-51454745D01*
X106232368Y-49722377D01*
X105956472Y-49440897D01*
X105526775Y-49196318D01*
X105057620Y-49040268D01*
X104567036Y-48978745D01*
X104073875Y-49014112D01*
X103597090Y-49145011D01*
X103155004Y-49366411D01*
X103043528Y-49440897D01*
X102767632Y-49722377D01*
X78232368Y-49722377D01*
X77956472Y-49440897D01*
X77526775Y-49196318D01*
X77057620Y-49040268D01*
X76567036Y-48978745D01*
X76073875Y-49014112D01*
X75597090Y-49145011D01*
X75155004Y-49366411D01*
X75043528Y-49440897D01*
X74767632Y-49722377D01*
X73489000Y-49722377D01*
X73489000Y-49523914D01*
X73520078Y-49206963D01*
X73605179Y-48925096D01*
X73743409Y-48665124D01*
X73929503Y-48436950D01*
X74156373Y-48249267D01*
X74415372Y-48109227D01*
X74696643Y-48022159D01*
X75012128Y-47989000D01*
X105976086Y-47989000D01*
X106293034Y-48020077D01*
G37*
%TD.AperFunction*%
%TD*%
D22*
%TO.N,GND*%
X79064000Y-70922000D02*
X73984000Y-70922000D01*
X73984000Y-65842000D01*
X79064000Y-65842000D01*
X79064000Y-70922000D01*
%TA.AperFunction,Conductor*%
D21*
G36*
X79064000Y-70922000D02*
G01*
X73984000Y-70922000D01*
X73984000Y-65842000D01*
X79064000Y-65842000D01*
X79064000Y-70922000D01*
G37*
%TD.AperFunction*%
%TD*%
D22*
%TO.N,GND*%
X107004000Y-71049000D02*
X101924000Y-71049000D01*
X101924000Y-65842000D01*
X107004000Y-65842000D01*
X107004000Y-71049000D01*
%TA.AperFunction,Conductor*%
D21*
G36*
X107004000Y-71049000D02*
G01*
X101924000Y-71049000D01*
X101924000Y-65842000D01*
X107004000Y-65842000D01*
X107004000Y-71049000D01*
G37*
%TD.AperFunction*%
%TD*%
D22*
%TO.N,GND*%
X107004000Y-54158000D02*
X101924000Y-54158000D01*
X101924000Y-48951000D01*
X107004000Y-48951000D01*
X107004000Y-54158000D01*
%TA.AperFunction,Conductor*%
D21*
G36*
X107004000Y-54158000D02*
G01*
X101924000Y-54158000D01*
X101924000Y-48951000D01*
X107004000Y-48951000D01*
X107004000Y-54158000D01*
G37*
%TD.AperFunction*%
%TD*%
D22*
%TO.N,GND*%
X79064000Y-54158000D02*
X73984000Y-54158000D01*
X73984000Y-48951000D01*
X79064000Y-48951000D01*
X79064000Y-54158000D01*
%TA.AperFunction,Conductor*%
D21*
G36*
X79064000Y-54158000D02*
G01*
X73984000Y-54158000D01*
X73984000Y-48951000D01*
X79064000Y-48951000D01*
X79064000Y-54158000D01*
G37*
%TD.AperFunction*%
%TD*%
M02*
