%TF.GenerationSoftware,KiCad,Pcbnew,5.1.9-73d0e3b20d~88~ubuntu20.04.1*%
%TF.CreationDate,2021-03-06T00:26:18+00:00*%
%TF.ProjectId,SMA_to_uFL,534d415f-746f-45f7-9546-4c2e6b696361,1.0*%
%TF.SameCoordinates,Original*%
%TF.FileFunction,Legend,Top*%
%TF.FilePolarity,Positive*%
%FSLAX46Y46*%
G04 Gerber Fmt 4.6, Leading zero omitted, Abs format (unit mm)*
G04 Created by KiCad (PCBNEW 5.1.9-73d0e3b20d~88~ubuntu20.04.1) date 2021-03-06 00:26:18*
%MOMM*%
%LPD*%
G01*
G04 APERTURE LIST*
%ADD10C,0.150000*%
%ADD11C,0.300000*%
%ADD12C,0.120000*%
G04 APERTURE END LIST*
D10*
X82232095Y-53292761D02*
X82374952Y-53340380D01*
X82613047Y-53340380D01*
X82708285Y-53292761D01*
X82755904Y-53245142D01*
X82803523Y-53149904D01*
X82803523Y-53054666D01*
X82755904Y-52959428D01*
X82708285Y-52911809D01*
X82613047Y-52864190D01*
X82422571Y-52816571D01*
X82327333Y-52768952D01*
X82279714Y-52721333D01*
X82232095Y-52626095D01*
X82232095Y-52530857D01*
X82279714Y-52435619D01*
X82327333Y-52388000D01*
X82422571Y-52340380D01*
X82660666Y-52340380D01*
X82803523Y-52388000D01*
X83232095Y-53340380D02*
X83232095Y-52340380D01*
X83565428Y-53054666D01*
X83898761Y-52340380D01*
X83898761Y-53340380D01*
X84327333Y-53054666D02*
X84803523Y-53054666D01*
X84232095Y-53340380D02*
X84565428Y-52340380D01*
X84898761Y-53340380D01*
X85851142Y-52673714D02*
X86232095Y-52673714D01*
X85994000Y-52340380D02*
X85994000Y-53197523D01*
X86041619Y-53292761D01*
X86136857Y-53340380D01*
X86232095Y-53340380D01*
X86708285Y-53340380D02*
X86613047Y-53292761D01*
X86565428Y-53245142D01*
X86517809Y-53149904D01*
X86517809Y-52864190D01*
X86565428Y-52768952D01*
X86613047Y-52721333D01*
X86708285Y-52673714D01*
X86851142Y-52673714D01*
X86946380Y-52721333D01*
X86994000Y-52768952D01*
X87041619Y-52864190D01*
X87041619Y-53149904D01*
X86994000Y-53245142D01*
X86946380Y-53292761D01*
X86851142Y-53340380D01*
X86708285Y-53340380D01*
X88660666Y-52673714D02*
X88660666Y-53340380D01*
X88232095Y-52673714D02*
X88232095Y-53197523D01*
X88279714Y-53292761D01*
X88374952Y-53340380D01*
X88517809Y-53340380D01*
X88613047Y-53292761D01*
X88660666Y-53245142D01*
X89136857Y-53245142D02*
X89184476Y-53292761D01*
X89136857Y-53340380D01*
X89089238Y-53292761D01*
X89136857Y-53245142D01*
X89136857Y-53340380D01*
X89946380Y-52816571D02*
X89613047Y-52816571D01*
X89613047Y-53340380D02*
X89613047Y-52340380D01*
X90089238Y-52340380D01*
X90946380Y-53340380D02*
X90470190Y-53340380D01*
X90470190Y-52340380D01*
X91898761Y-52673714D02*
X92279714Y-52673714D01*
X92041619Y-52340380D02*
X92041619Y-53197523D01*
X92089238Y-53292761D01*
X92184476Y-53340380D01*
X92279714Y-53340380D01*
X92613047Y-53340380D02*
X92613047Y-52673714D01*
X92613047Y-52864190D02*
X92660666Y-52768952D01*
X92708285Y-52721333D01*
X92803523Y-52673714D01*
X92898761Y-52673714D01*
X93660666Y-53340380D02*
X93660666Y-52816571D01*
X93613047Y-52721333D01*
X93517809Y-52673714D01*
X93327333Y-52673714D01*
X93232095Y-52721333D01*
X93660666Y-53292761D02*
X93565428Y-53340380D01*
X93327333Y-53340380D01*
X93232095Y-53292761D01*
X93184476Y-53197523D01*
X93184476Y-53102285D01*
X93232095Y-53007047D01*
X93327333Y-52959428D01*
X93565428Y-52959428D01*
X93660666Y-52911809D01*
X94136857Y-52673714D02*
X94136857Y-53340380D01*
X94136857Y-52768952D02*
X94184476Y-52721333D01*
X94279714Y-52673714D01*
X94422571Y-52673714D01*
X94517809Y-52721333D01*
X94565428Y-52816571D01*
X94565428Y-53340380D01*
X94994000Y-53292761D02*
X95089238Y-53340380D01*
X95279714Y-53340380D01*
X95374952Y-53292761D01*
X95422571Y-53197523D01*
X95422571Y-53149904D01*
X95374952Y-53054666D01*
X95279714Y-53007047D01*
X95136857Y-53007047D01*
X95041619Y-52959428D01*
X94994000Y-52864190D01*
X94994000Y-52816571D01*
X95041619Y-52721333D01*
X95136857Y-52673714D01*
X95279714Y-52673714D01*
X95374952Y-52721333D01*
X95851142Y-53340380D02*
X95851142Y-52673714D01*
X95851142Y-52340380D02*
X95803523Y-52388000D01*
X95851142Y-52435619D01*
X95898761Y-52388000D01*
X95851142Y-52340380D01*
X95851142Y-52435619D01*
X96184476Y-52673714D02*
X96565428Y-52673714D01*
X96327333Y-52340380D02*
X96327333Y-53197523D01*
X96374952Y-53292761D01*
X96470190Y-53340380D01*
X96565428Y-53340380D01*
X96898761Y-53340380D02*
X96898761Y-52673714D01*
X96898761Y-52340380D02*
X96851142Y-52388000D01*
X96898761Y-52435619D01*
X96946380Y-52388000D01*
X96898761Y-52340380D01*
X96898761Y-52435619D01*
X97517809Y-53340380D02*
X97422571Y-53292761D01*
X97374952Y-53245142D01*
X97327333Y-53149904D01*
X97327333Y-52864190D01*
X97374952Y-52768952D01*
X97422571Y-52721333D01*
X97517809Y-52673714D01*
X97660666Y-52673714D01*
X97755904Y-52721333D01*
X97803523Y-52768952D01*
X97851142Y-52864190D01*
X97851142Y-53149904D01*
X97803523Y-53245142D01*
X97755904Y-53292761D01*
X97660666Y-53340380D01*
X97517809Y-53340380D01*
X98279714Y-52673714D02*
X98279714Y-53340380D01*
X98279714Y-52768952D02*
X98327333Y-52721333D01*
X98422571Y-52673714D01*
X98565428Y-52673714D01*
X98660666Y-52721333D01*
X98708285Y-52816571D01*
X98708285Y-53340380D01*
D11*
X80785714Y-51178571D02*
X80071428Y-51178571D01*
X80071428Y-49678571D01*
X81571428Y-49678571D02*
X81857142Y-49678571D01*
X82000000Y-49750000D01*
X82142857Y-49892857D01*
X82214285Y-50178571D01*
X82214285Y-50678571D01*
X82142857Y-50964285D01*
X82000000Y-51107142D01*
X81857142Y-51178571D01*
X81571428Y-51178571D01*
X81428571Y-51107142D01*
X81285714Y-50964285D01*
X81214285Y-50678571D01*
X81214285Y-50178571D01*
X81285714Y-49892857D01*
X81428571Y-49750000D01*
X81571428Y-49678571D01*
X82785714Y-50750000D02*
X83500000Y-50750000D01*
X82642857Y-51178571D02*
X83142857Y-49678571D01*
X83642857Y-51178571D01*
X84142857Y-51178571D02*
X84142857Y-49678571D01*
X84500000Y-49678571D01*
X84714285Y-49750000D01*
X84857142Y-49892857D01*
X84928571Y-50035714D01*
X85000000Y-50321428D01*
X85000000Y-50535714D01*
X84928571Y-50821428D01*
X84857142Y-50964285D01*
X84714285Y-51107142D01*
X84500000Y-51178571D01*
X84142857Y-51178571D01*
X87178571Y-51107142D02*
X87392857Y-51178571D01*
X87750000Y-51178571D01*
X87892857Y-51107142D01*
X87964285Y-51035714D01*
X88035714Y-50892857D01*
X88035714Y-50750000D01*
X87964285Y-50607142D01*
X87892857Y-50535714D01*
X87750000Y-50464285D01*
X87464285Y-50392857D01*
X87321428Y-50321428D01*
X87250000Y-50250000D01*
X87178571Y-50107142D01*
X87178571Y-49964285D01*
X87250000Y-49821428D01*
X87321428Y-49750000D01*
X87464285Y-49678571D01*
X87821428Y-49678571D01*
X88035714Y-49750000D01*
X88678571Y-51178571D02*
X88678571Y-49678571D01*
X88678571Y-50392857D02*
X89535714Y-50392857D01*
X89535714Y-51178571D02*
X89535714Y-49678571D01*
X90535714Y-49678571D02*
X90821428Y-49678571D01*
X90964285Y-49750000D01*
X91107142Y-49892857D01*
X91178571Y-50178571D01*
X91178571Y-50678571D01*
X91107142Y-50964285D01*
X90964285Y-51107142D01*
X90821428Y-51178571D01*
X90535714Y-51178571D01*
X90392857Y-51107142D01*
X90250000Y-50964285D01*
X90178571Y-50678571D01*
X90178571Y-50178571D01*
X90250000Y-49892857D01*
X90392857Y-49750000D01*
X90535714Y-49678571D01*
X92678571Y-51178571D02*
X92178571Y-50464285D01*
X91821428Y-51178571D02*
X91821428Y-49678571D01*
X92392857Y-49678571D01*
X92535714Y-49750000D01*
X92607142Y-49821428D01*
X92678571Y-49964285D01*
X92678571Y-50178571D01*
X92607142Y-50321428D01*
X92535714Y-50392857D01*
X92392857Y-50464285D01*
X91821428Y-50464285D01*
X93107142Y-49678571D02*
X93964285Y-49678571D01*
X93535714Y-51178571D02*
X93535714Y-49678571D01*
X96142857Y-49678571D02*
X96428571Y-49678571D01*
X96571428Y-49750000D01*
X96714285Y-49892857D01*
X96785714Y-50178571D01*
X96785714Y-50678571D01*
X96714285Y-50964285D01*
X96571428Y-51107142D01*
X96428571Y-51178571D01*
X96142857Y-51178571D01*
X96000000Y-51107142D01*
X95857142Y-50964285D01*
X95785714Y-50678571D01*
X95785714Y-50178571D01*
X95857142Y-49892857D01*
X96000000Y-49750000D01*
X96142857Y-49678571D01*
X97428571Y-51178571D02*
X97428571Y-49678571D01*
X98000000Y-49678571D01*
X98142857Y-49750000D01*
X98214285Y-49821428D01*
X98285714Y-49964285D01*
X98285714Y-50178571D01*
X98214285Y-50321428D01*
X98142857Y-50392857D01*
X98000000Y-50464285D01*
X97428571Y-50464285D01*
X98928571Y-50392857D02*
X99428571Y-50392857D01*
X99642857Y-51178571D02*
X98928571Y-51178571D01*
X98928571Y-49678571D01*
X99642857Y-49678571D01*
X100285714Y-51178571D02*
X100285714Y-49678571D01*
X101142857Y-51178571D01*
X101142857Y-49678571D01*
D12*
%TO.C,R2*%
X81653641Y-66650000D02*
X81346359Y-66650000D01*
X81653641Y-65890000D02*
X81346359Y-65890000D01*
%TO.C,R1*%
X83346359Y-65890000D02*
X83653641Y-65890000D01*
X83346359Y-66650000D02*
X83653641Y-66650000D01*
%TO.C,J5*%
X77760000Y-59750000D02*
X77260000Y-60000000D01*
X77760000Y-60250000D02*
X77760000Y-59750000D01*
X77260000Y-60000000D02*
X77760000Y-60250000D01*
X73000000Y-58050000D02*
X73000000Y-59160000D01*
X73000000Y-60840000D02*
X73000000Y-61950000D01*
X76710000Y-58050000D02*
X76710000Y-59160000D01*
X76710000Y-60840000D02*
X76710000Y-61950000D01*
%TO.C,J4*%
X83850000Y-70835000D02*
X81150000Y-70835000D01*
X83260000Y-68115000D02*
X83260000Y-67485000D01*
X81100000Y-68115000D02*
X81740000Y-68115000D01*
X83900000Y-68115000D02*
X83260000Y-68115000D01*
%TO.C,J3*%
X91850000Y-70835000D02*
X89150000Y-70835000D01*
X91260000Y-68115000D02*
X91260000Y-67485000D01*
X89100000Y-68115000D02*
X89740000Y-68115000D01*
X91900000Y-68115000D02*
X91260000Y-68115000D01*
%TO.C,J2*%
X99850000Y-70835000D02*
X97150000Y-70835000D01*
X99260000Y-68115000D02*
X99260000Y-67485000D01*
X97100000Y-68115000D02*
X97740000Y-68115000D01*
X99900000Y-68115000D02*
X99260000Y-68115000D01*
%TO.C,J1*%
X106835000Y-58650000D02*
X106835000Y-61350000D01*
X104115000Y-59240000D02*
X103485000Y-59240000D01*
X104115000Y-61400000D02*
X104115000Y-60760000D01*
X104115000Y-58600000D02*
X104115000Y-59240000D01*
%TD*%
%TO.C, *%
D10*
%TO.C,R2*%
X80433333Y-65652380D02*
X80100000Y-65176190D01*
X79861904Y-65652380D02*
X79861904Y-64652380D01*
X80242857Y-64652380D01*
X80338095Y-64700000D01*
X80385714Y-64747619D01*
X80433333Y-64842857D01*
X80433333Y-64985714D01*
X80385714Y-65080952D01*
X80338095Y-65128571D01*
X80242857Y-65176190D01*
X79861904Y-65176190D01*
X80814285Y-64747619D02*
X80861904Y-64700000D01*
X80957142Y-64652380D01*
X81195238Y-64652380D01*
X81290476Y-64700000D01*
X81338095Y-64747619D01*
X81385714Y-64842857D01*
X81385714Y-64938095D01*
X81338095Y-65080952D01*
X80766666Y-65652380D01*
X81385714Y-65652380D01*
%TO.C,R1*%
X84233333Y-65652380D02*
X83900000Y-65176190D01*
X83661904Y-65652380D02*
X83661904Y-64652380D01*
X84042857Y-64652380D01*
X84138095Y-64700000D01*
X84185714Y-64747619D01*
X84233333Y-64842857D01*
X84233333Y-64985714D01*
X84185714Y-65080952D01*
X84138095Y-65128571D01*
X84042857Y-65176190D01*
X83661904Y-65176190D01*
X85185714Y-65652380D02*
X84614285Y-65652380D01*
X84900000Y-65652380D02*
X84900000Y-64652380D01*
X84804761Y-64795238D01*
X84709523Y-64890476D01*
X84614285Y-64938095D01*
%TO.C,J5*%
X74266666Y-54452380D02*
X74266666Y-55166666D01*
X74219047Y-55309523D01*
X74123809Y-55404761D01*
X73980952Y-55452380D01*
X73885714Y-55452380D01*
X75219047Y-54452380D02*
X74742857Y-54452380D01*
X74695238Y-54928571D01*
X74742857Y-54880952D01*
X74838095Y-54833333D01*
X75076190Y-54833333D01*
X75171428Y-54880952D01*
X75219047Y-54928571D01*
X75266666Y-55023809D01*
X75266666Y-55261904D01*
X75219047Y-55357142D01*
X75171428Y-55404761D01*
X75076190Y-55452380D01*
X74838095Y-55452380D01*
X74742857Y-55404761D01*
X74695238Y-55357142D01*
%TO.C,J4*%
X85566666Y-70052380D02*
X85566666Y-70766666D01*
X85519047Y-70909523D01*
X85423809Y-71004761D01*
X85280952Y-71052380D01*
X85185714Y-71052380D01*
X86471428Y-70385714D02*
X86471428Y-71052380D01*
X86233333Y-70004761D02*
X85995238Y-70719047D01*
X86614285Y-70719047D01*
%TO.C,J3*%
X93566666Y-70052380D02*
X93566666Y-70766666D01*
X93519047Y-70909523D01*
X93423809Y-71004761D01*
X93280952Y-71052380D01*
X93185714Y-71052380D01*
X93947619Y-70052380D02*
X94566666Y-70052380D01*
X94233333Y-70433333D01*
X94376190Y-70433333D01*
X94471428Y-70480952D01*
X94519047Y-70528571D01*
X94566666Y-70623809D01*
X94566666Y-70861904D01*
X94519047Y-70957142D01*
X94471428Y-71004761D01*
X94376190Y-71052380D01*
X94090476Y-71052380D01*
X93995238Y-71004761D01*
X93947619Y-70957142D01*
%TO.C,J2*%
X101566666Y-70052380D02*
X101566666Y-70766666D01*
X101519047Y-70909523D01*
X101423809Y-71004761D01*
X101280952Y-71052380D01*
X101185714Y-71052380D01*
X101995238Y-70147619D02*
X102042857Y-70100000D01*
X102138095Y-70052380D01*
X102376190Y-70052380D01*
X102471428Y-70100000D01*
X102519047Y-70147619D01*
X102566666Y-70242857D01*
X102566666Y-70338095D01*
X102519047Y-70480952D01*
X101947619Y-71052380D01*
X102566666Y-71052380D01*
%TO.C,J1*%
X105141666Y-56252380D02*
X105141666Y-56966666D01*
X105094047Y-57109523D01*
X104998809Y-57204761D01*
X104855952Y-57252380D01*
X104760714Y-57252380D01*
X106141666Y-57252380D02*
X105570238Y-57252380D01*
X105855952Y-57252380D02*
X105855952Y-56252380D01*
X105760714Y-56395238D01*
X105665476Y-56490476D01*
X105570238Y-56538095D01*
%TD*%
M02*
