%TF.GenerationSoftware,KiCad,Pcbnew,5.1.9-73d0e3b20d~88~ubuntu20.04.1*%
%TF.CreationDate,2021-03-06T12:21:06+00:00*%
%TF.ProjectId,RFID_tag,52464944-5f74-4616-972e-6b696361645f,1.0*%
%TF.SameCoordinates,Original*%
%TF.FileFunction,Legend,Bot*%
%TF.FilePolarity,Positive*%
%FSLAX46Y46*%
G04 Gerber Fmt 4.6, Leading zero omitted, Abs format (unit mm)*
G04 Created by KiCad (PCBNEW 5.1.9-73d0e3b20d~88~ubuntu20.04.1) date 2021-03-06 12:21:06*
%MOMM*%
%LPD*%
G01*
G04 APERTURE LIST*
%ADD10C,0.120000*%
%ADD11C,0.150000*%
%ADD12C,0.010000*%
G04 APERTURE END LIST*
D10*
X181084333Y-68446666D02*
X180684333Y-68446666D01*
X180884333Y-69146666D02*
X180884333Y-68446666D01*
X180351000Y-69146666D02*
X180417666Y-69113333D01*
X180451000Y-69080000D01*
X180484333Y-69013333D01*
X180484333Y-68813333D01*
X180451000Y-68746666D01*
X180417666Y-68713333D01*
X180351000Y-68680000D01*
X180251000Y-68680000D01*
X180184333Y-68713333D01*
X180151000Y-68746666D01*
X180117666Y-68813333D01*
X180117666Y-69013333D01*
X180151000Y-69080000D01*
X180184333Y-69113333D01*
X180251000Y-69146666D01*
X180351000Y-69146666D01*
X179817666Y-68680000D02*
X179817666Y-69380000D01*
X179817666Y-68713333D02*
X179751000Y-68680000D01*
X179617666Y-68680000D01*
X179551000Y-68713333D01*
X179517666Y-68746666D01*
X179484333Y-68813333D01*
X179484333Y-69013333D01*
X179517666Y-69080000D01*
X179551000Y-69113333D01*
X179617666Y-69146666D01*
X179751000Y-69146666D01*
X179817666Y-69113333D01*
X178551000Y-69146666D02*
X178617666Y-69113333D01*
X178651000Y-69046666D01*
X178651000Y-68446666D01*
X177984333Y-69146666D02*
X177984333Y-68780000D01*
X178017666Y-68713333D01*
X178084333Y-68680000D01*
X178217666Y-68680000D01*
X178284333Y-68713333D01*
X177984333Y-69113333D02*
X178051000Y-69146666D01*
X178217666Y-69146666D01*
X178284333Y-69113333D01*
X178317666Y-69046666D01*
X178317666Y-68980000D01*
X178284333Y-68913333D01*
X178217666Y-68880000D01*
X178051000Y-68880000D01*
X177984333Y-68846666D01*
X177717666Y-68680000D02*
X177551000Y-69146666D01*
X177384333Y-68680000D02*
X177551000Y-69146666D01*
X177617666Y-69313333D01*
X177651000Y-69346666D01*
X177717666Y-69380000D01*
X176851000Y-69113333D02*
X176917666Y-69146666D01*
X177051000Y-69146666D01*
X177117666Y-69113333D01*
X177151000Y-69046666D01*
X177151000Y-68780000D01*
X177117666Y-68713333D01*
X177051000Y-68680000D01*
X176917666Y-68680000D01*
X176851000Y-68713333D01*
X176817666Y-68780000D01*
X176817666Y-68846666D01*
X177151000Y-68913333D01*
X176517666Y-69146666D02*
X176517666Y-68680000D01*
X176517666Y-68813333D02*
X176484333Y-68746666D01*
X176451000Y-68713333D01*
X176384333Y-68680000D01*
X176317666Y-68680000D01*
X175251000Y-69146666D02*
X175251000Y-68446666D01*
X175251000Y-69113333D02*
X175317666Y-69146666D01*
X175451000Y-69146666D01*
X175517666Y-69113333D01*
X175551000Y-69080000D01*
X175584333Y-69013333D01*
X175584333Y-68813333D01*
X175551000Y-68746666D01*
X175517666Y-68713333D01*
X175451000Y-68680000D01*
X175317666Y-68680000D01*
X175251000Y-68713333D01*
X174650999Y-69113333D02*
X174717666Y-69146666D01*
X174850999Y-69146666D01*
X174917666Y-69113333D01*
X174950999Y-69046666D01*
X174950999Y-68780000D01*
X174917666Y-68713333D01*
X174850999Y-68680000D01*
X174717666Y-68680000D01*
X174650999Y-68713333D01*
X174617666Y-68780000D01*
X174617666Y-68846666D01*
X174950999Y-68913333D01*
X174350999Y-69113333D02*
X174284333Y-69146666D01*
X174150999Y-69146666D01*
X174084333Y-69113333D01*
X174050999Y-69046666D01*
X174050999Y-69013333D01*
X174084333Y-68946666D01*
X174150999Y-68913333D01*
X174250999Y-68913333D01*
X174317666Y-68880000D01*
X174350999Y-68813333D01*
X174350999Y-68780000D01*
X174317666Y-68713333D01*
X174250999Y-68680000D01*
X174150999Y-68680000D01*
X174084333Y-68713333D01*
X173751000Y-69146666D02*
X173751000Y-68680000D01*
X173751000Y-68446666D02*
X173784333Y-68480000D01*
X173751000Y-68513333D01*
X173717666Y-68480000D01*
X173751000Y-68446666D01*
X173751000Y-68513333D01*
X173117666Y-68680000D02*
X173117666Y-69246666D01*
X173150999Y-69313333D01*
X173184333Y-69346666D01*
X173250999Y-69380000D01*
X173350999Y-69380000D01*
X173417666Y-69346666D01*
X173117666Y-69113333D02*
X173184333Y-69146666D01*
X173317666Y-69146666D01*
X173384333Y-69113333D01*
X173417666Y-69080000D01*
X173450999Y-69013333D01*
X173450999Y-68813333D01*
X173417666Y-68746666D01*
X173384333Y-68713333D01*
X173317666Y-68680000D01*
X173184333Y-68680000D01*
X173117666Y-68713333D01*
X172784333Y-68680000D02*
X172784333Y-69146666D01*
X172784333Y-68746666D02*
X172750999Y-68713333D01*
X172684333Y-68680000D01*
X172584333Y-68680000D01*
X172517666Y-68713333D01*
X172484333Y-68780000D01*
X172484333Y-69146666D01*
X171517666Y-69146666D02*
X171584333Y-69113333D01*
X171617666Y-69080000D01*
X171651000Y-69013333D01*
X171651000Y-68813333D01*
X171617666Y-68746666D01*
X171584333Y-68713333D01*
X171517666Y-68680000D01*
X171417666Y-68680000D01*
X171351000Y-68713333D01*
X171317666Y-68746666D01*
X171284333Y-68813333D01*
X171284333Y-69013333D01*
X171317666Y-69080000D01*
X171351000Y-69113333D01*
X171417666Y-69146666D01*
X171517666Y-69146666D01*
X171084333Y-68680000D02*
X170817666Y-68680000D01*
X170984333Y-69146666D02*
X170984333Y-68546666D01*
X170951000Y-68480000D01*
X170884333Y-68446666D01*
X170817666Y-68446666D01*
X170051000Y-68446666D02*
X170051000Y-69013333D01*
X170017666Y-69080000D01*
X169984333Y-69113333D01*
X169917666Y-69146666D01*
X169784333Y-69146666D01*
X169717666Y-69113333D01*
X169684333Y-69080000D01*
X169651000Y-69013333D01*
X169651000Y-68446666D01*
X169317666Y-69146666D02*
X169317666Y-68446666D01*
X169317666Y-68780000D02*
X168917666Y-68780000D01*
X168917666Y-69146666D02*
X168917666Y-68446666D01*
X168351000Y-68780000D02*
X168584333Y-68780000D01*
X168584333Y-69146666D02*
X168584333Y-68446666D01*
X168251000Y-68446666D01*
X167051000Y-69146666D02*
X167284333Y-68813333D01*
X167451000Y-69146666D02*
X167451000Y-68446666D01*
X167184333Y-68446666D01*
X167117666Y-68480000D01*
X167084333Y-68513333D01*
X167051000Y-68580000D01*
X167051000Y-68680000D01*
X167084333Y-68746666D01*
X167117666Y-68780000D01*
X167184333Y-68813333D01*
X167451000Y-68813333D01*
X166517666Y-68780000D02*
X166751000Y-68780000D01*
X166751000Y-69146666D02*
X166751000Y-68446666D01*
X166417666Y-68446666D01*
X166151000Y-69146666D02*
X166151000Y-68446666D01*
X165817666Y-69146666D02*
X165817666Y-68446666D01*
X165651000Y-68446666D01*
X165551000Y-68480000D01*
X165484333Y-68546666D01*
X165451000Y-68613333D01*
X165417666Y-68746666D01*
X165417666Y-68846666D01*
X165451000Y-68980000D01*
X165484333Y-69046666D01*
X165551000Y-69113333D01*
X165651000Y-69146666D01*
X165817666Y-69146666D01*
X164684333Y-68680000D02*
X164417666Y-68680000D01*
X164584333Y-68446666D02*
X164584333Y-69046666D01*
X164551000Y-69113333D01*
X164484333Y-69146666D01*
X164417666Y-69146666D01*
X163884333Y-69146666D02*
X163884333Y-68780000D01*
X163917666Y-68713333D01*
X163984333Y-68680000D01*
X164117666Y-68680000D01*
X164184333Y-68713333D01*
X163884333Y-69113333D02*
X163951000Y-69146666D01*
X164117666Y-69146666D01*
X164184333Y-69113333D01*
X164217666Y-69046666D01*
X164217666Y-68980000D01*
X164184333Y-68913333D01*
X164117666Y-68880000D01*
X163951000Y-68880000D01*
X163884333Y-68846666D01*
X163251000Y-68680000D02*
X163251000Y-69246666D01*
X163284333Y-69313333D01*
X163317666Y-69346666D01*
X163384333Y-69380000D01*
X163484333Y-69380000D01*
X163551000Y-69346666D01*
X163251000Y-69113333D02*
X163317666Y-69146666D01*
X163451000Y-69146666D01*
X163517666Y-69113333D01*
X163551000Y-69080000D01*
X163584333Y-69013333D01*
X163584333Y-68813333D01*
X163551000Y-68746666D01*
X163517666Y-68713333D01*
X163451000Y-68680000D01*
X163317666Y-68680000D01*
X163251000Y-68713333D01*
X162084333Y-69146666D02*
X162084333Y-68780000D01*
X162117666Y-68713333D01*
X162184333Y-68680000D01*
X162317666Y-68680000D01*
X162384333Y-68713333D01*
X162084333Y-69113333D02*
X162151000Y-69146666D01*
X162317666Y-69146666D01*
X162384333Y-69113333D01*
X162417666Y-69046666D01*
X162417666Y-68980000D01*
X162384333Y-68913333D01*
X162317666Y-68880000D01*
X162151000Y-68880000D01*
X162084333Y-68846666D01*
X161751000Y-68680000D02*
X161751000Y-69146666D01*
X161751000Y-68746666D02*
X161717666Y-68713333D01*
X161651000Y-68680000D01*
X161551000Y-68680000D01*
X161484333Y-68713333D01*
X161451000Y-68780000D01*
X161451000Y-69146666D01*
X161217666Y-68680000D02*
X160951000Y-68680000D01*
X161117666Y-68446666D02*
X161117666Y-69046666D01*
X161084333Y-69113333D01*
X161017666Y-69146666D01*
X160951000Y-69146666D01*
X160451000Y-69113333D02*
X160517666Y-69146666D01*
X160651000Y-69146666D01*
X160717666Y-69113333D01*
X160751000Y-69046666D01*
X160751000Y-68780000D01*
X160717666Y-68713333D01*
X160651000Y-68680000D01*
X160517666Y-68680000D01*
X160451000Y-68713333D01*
X160417666Y-68780000D01*
X160417666Y-68846666D01*
X160751000Y-68913333D01*
X160117666Y-68680000D02*
X160117666Y-69146666D01*
X160117666Y-68746666D02*
X160084333Y-68713333D01*
X160017666Y-68680000D01*
X159917666Y-68680000D01*
X159851000Y-68713333D01*
X159817666Y-68780000D01*
X159817666Y-69146666D01*
X159484333Y-68680000D02*
X159484333Y-69146666D01*
X159484333Y-68746666D02*
X159451000Y-68713333D01*
X159384333Y-68680000D01*
X159284333Y-68680000D01*
X159217666Y-68713333D01*
X159184333Y-68780000D01*
X159184333Y-69146666D01*
X158551000Y-69146666D02*
X158551000Y-68780000D01*
X158584333Y-68713333D01*
X158651000Y-68680000D01*
X158784333Y-68680000D01*
X158851000Y-68713333D01*
X158551000Y-69113333D02*
X158617666Y-69146666D01*
X158784333Y-69146666D01*
X158851000Y-69113333D01*
X158884333Y-69046666D01*
X158884333Y-68980000D01*
X158851000Y-68913333D01*
X158784333Y-68880000D01*
X158617666Y-68880000D01*
X158551000Y-68846666D01*
X157584333Y-69146666D02*
X157651000Y-69113333D01*
X157684333Y-69080000D01*
X157717666Y-69013333D01*
X157717666Y-68813333D01*
X157684333Y-68746666D01*
X157651000Y-68713333D01*
X157584333Y-68680000D01*
X157484333Y-68680000D01*
X157417666Y-68713333D01*
X157384333Y-68746666D01*
X157351000Y-68813333D01*
X157351000Y-69013333D01*
X157384333Y-69080000D01*
X157417666Y-69113333D01*
X157484333Y-69146666D01*
X157584333Y-69146666D01*
X157051000Y-68680000D02*
X157051000Y-69146666D01*
X157051000Y-68746666D02*
X157017666Y-68713333D01*
X156951000Y-68680000D01*
X156851000Y-68680000D01*
X156784333Y-68713333D01*
X156751000Y-68780000D01*
X156751000Y-69146666D01*
X155651000Y-68780000D02*
X155884333Y-68780000D01*
X155884333Y-69146666D02*
X155884333Y-68446666D01*
X155551000Y-68446666D01*
X154884333Y-69146666D02*
X155117666Y-68813333D01*
X155284333Y-69146666D02*
X155284333Y-68446666D01*
X155017666Y-68446666D01*
X154951000Y-68480000D01*
X154917666Y-68513333D01*
X154884333Y-68580000D01*
X154884333Y-68680000D01*
X154917666Y-68746666D01*
X154951000Y-68780000D01*
X155017666Y-68813333D01*
X155284333Y-68813333D01*
X154584333Y-68880000D02*
X154051000Y-68880000D01*
X153417666Y-68680000D02*
X153417666Y-69146666D01*
X153584333Y-68413333D02*
X153751000Y-68913333D01*
X153317666Y-68913333D01*
X152384333Y-68446666D02*
X152317666Y-68446666D01*
X152251000Y-68480000D01*
X152217666Y-68513333D01*
X152184333Y-68580000D01*
X152151000Y-68713333D01*
X152151000Y-68880000D01*
X152184333Y-69013333D01*
X152217666Y-69080000D01*
X152251000Y-69113333D01*
X152317666Y-69146666D01*
X152384333Y-69146666D01*
X152451000Y-69113333D01*
X152484333Y-69080000D01*
X152517666Y-69013333D01*
X152551000Y-68880000D01*
X152551000Y-68713333D01*
X152517666Y-68580000D01*
X152484333Y-68513333D01*
X152451000Y-68480000D01*
X152384333Y-68446666D01*
X151851000Y-69080000D02*
X151817666Y-69113333D01*
X151851000Y-69146666D01*
X151884333Y-69113333D01*
X151851000Y-69080000D01*
X151851000Y-69146666D01*
X151417666Y-68746666D02*
X151484333Y-68713333D01*
X151517666Y-68680000D01*
X151551000Y-68613333D01*
X151551000Y-68580000D01*
X151517666Y-68513333D01*
X151484333Y-68480000D01*
X151417666Y-68446666D01*
X151284333Y-68446666D01*
X151217666Y-68480000D01*
X151184333Y-68513333D01*
X151151000Y-68580000D01*
X151151000Y-68613333D01*
X151184333Y-68680000D01*
X151217666Y-68713333D01*
X151284333Y-68746666D01*
X151417666Y-68746666D01*
X151484333Y-68780000D01*
X151517666Y-68813333D01*
X151551000Y-68880000D01*
X151551000Y-69013333D01*
X151517666Y-69080000D01*
X151484333Y-69113333D01*
X151417666Y-69146666D01*
X151284333Y-69146666D01*
X151217666Y-69113333D01*
X151184333Y-69080000D01*
X151151000Y-69013333D01*
X151151000Y-68880000D01*
X151184333Y-68813333D01*
X151217666Y-68780000D01*
X151284333Y-68746666D01*
X150851000Y-69146666D02*
X150851000Y-68680000D01*
X150851000Y-68746666D02*
X150817666Y-68713333D01*
X150751000Y-68680000D01*
X150651000Y-68680000D01*
X150584333Y-68713333D01*
X150551000Y-68780000D01*
X150551000Y-69146666D01*
X150551000Y-68780000D02*
X150517666Y-68713333D01*
X150451000Y-68680000D01*
X150351000Y-68680000D01*
X150284333Y-68713333D01*
X150251000Y-68780000D01*
X150251000Y-69146666D01*
X149917666Y-69146666D02*
X149917666Y-68680000D01*
X149917666Y-68746666D02*
X149884333Y-68713333D01*
X149817666Y-68680000D01*
X149717666Y-68680000D01*
X149651000Y-68713333D01*
X149617666Y-68780000D01*
X149617666Y-69146666D01*
X149617666Y-68780000D02*
X149584333Y-68713333D01*
X149517666Y-68680000D01*
X149417666Y-68680000D01*
X149351000Y-68713333D01*
X149317666Y-68780000D01*
X149317666Y-69146666D01*
X148551000Y-68680000D02*
X148284333Y-68680000D01*
X148451000Y-68446666D02*
X148451000Y-69046666D01*
X148417666Y-69113333D01*
X148351000Y-69146666D01*
X148284333Y-69146666D01*
X148051000Y-69146666D02*
X148051000Y-68446666D01*
X147751000Y-69146666D02*
X147751000Y-68780000D01*
X147784333Y-68713333D01*
X147851000Y-68680000D01*
X147951000Y-68680000D01*
X148017666Y-68713333D01*
X148051000Y-68746666D01*
X147417666Y-69146666D02*
X147417666Y-68680000D01*
X147417666Y-68446666D02*
X147451000Y-68480000D01*
X147417666Y-68513333D01*
X147384333Y-68480000D01*
X147417666Y-68446666D01*
X147417666Y-68513333D01*
X146784333Y-69113333D02*
X146851000Y-69146666D01*
X146984333Y-69146666D01*
X147051000Y-69113333D01*
X147084333Y-69080000D01*
X147117666Y-69013333D01*
X147117666Y-68813333D01*
X147084333Y-68746666D01*
X147051000Y-68713333D01*
X146984333Y-68680000D01*
X146851000Y-68680000D01*
X146784333Y-68713333D01*
X146484333Y-69146666D02*
X146484333Y-68446666D01*
X146417666Y-68880000D02*
X146217666Y-69146666D01*
X146217666Y-68680000D02*
X146484333Y-68946666D01*
X145417666Y-69113333D02*
X145351000Y-69146666D01*
X145217666Y-69146666D01*
X145151000Y-69113333D01*
X145117666Y-69046666D01*
X145117666Y-69013333D01*
X145151000Y-68946666D01*
X145217666Y-68913333D01*
X145317666Y-68913333D01*
X145384333Y-68880000D01*
X145417666Y-68813333D01*
X145417666Y-68780000D01*
X145384333Y-68713333D01*
X145317666Y-68680000D01*
X145217666Y-68680000D01*
X145151000Y-68713333D01*
X144517666Y-68680000D02*
X144517666Y-69146666D01*
X144817666Y-68680000D02*
X144817666Y-69046666D01*
X144784333Y-69113333D01*
X144717666Y-69146666D01*
X144617666Y-69146666D01*
X144551000Y-69113333D01*
X144517666Y-69080000D01*
X144184333Y-69146666D02*
X144184333Y-68446666D01*
X144184333Y-68713333D02*
X144117666Y-68680000D01*
X143984333Y-68680000D01*
X143917666Y-68713333D01*
X143884333Y-68746666D01*
X143851000Y-68813333D01*
X143851000Y-69013333D01*
X143884333Y-69080000D01*
X143917666Y-69113333D01*
X143984333Y-69146666D01*
X144117666Y-69146666D01*
X144184333Y-69113333D01*
X143584333Y-69113333D02*
X143517666Y-69146666D01*
X143384333Y-69146666D01*
X143317666Y-69113333D01*
X143284333Y-69046666D01*
X143284333Y-69013333D01*
X143317666Y-68946666D01*
X143384333Y-68913333D01*
X143484333Y-68913333D01*
X143551000Y-68880000D01*
X143584333Y-68813333D01*
X143584333Y-68780000D01*
X143551000Y-68713333D01*
X143484333Y-68680000D01*
X143384333Y-68680000D01*
X143317666Y-68713333D01*
X143084333Y-68680000D02*
X142817666Y-68680000D01*
X142984333Y-68446666D02*
X142984333Y-69046666D01*
X142951000Y-69113333D01*
X142884333Y-69146666D01*
X142817666Y-69146666D01*
X142584333Y-69146666D02*
X142584333Y-68680000D01*
X142584333Y-68813333D02*
X142551000Y-68746666D01*
X142517666Y-68713333D01*
X142451000Y-68680000D01*
X142384333Y-68680000D01*
X141851000Y-69146666D02*
X141851000Y-68780000D01*
X141884333Y-68713333D01*
X141951000Y-68680000D01*
X142084333Y-68680000D01*
X142151000Y-68713333D01*
X141851000Y-69113333D02*
X141917666Y-69146666D01*
X142084333Y-69146666D01*
X142151000Y-69113333D01*
X142184333Y-69046666D01*
X142184333Y-68980000D01*
X142151000Y-68913333D01*
X142084333Y-68880000D01*
X141917666Y-68880000D01*
X141851000Y-68846666D01*
X141617666Y-68680000D02*
X141351000Y-68680000D01*
X141517666Y-68446666D02*
X141517666Y-69046666D01*
X141484333Y-69113333D01*
X141417666Y-69146666D01*
X141351000Y-69146666D01*
X140851000Y-69113333D02*
X140917666Y-69146666D01*
X141051000Y-69146666D01*
X141117666Y-69113333D01*
X141151000Y-69046666D01*
X141151000Y-68780000D01*
X141117666Y-68713333D01*
X141051000Y-68680000D01*
X140917666Y-68680000D01*
X140851000Y-68713333D01*
X140817666Y-68780000D01*
X140817666Y-68846666D01*
X141151000Y-68913333D01*
X140517666Y-69080000D02*
X140484333Y-69113333D01*
X140517666Y-69146666D01*
X140551000Y-69113333D01*
X140517666Y-69080000D01*
X140517666Y-69146666D01*
X181017666Y-70116666D02*
X180684333Y-70116666D01*
X181084333Y-70316666D02*
X180851000Y-69616666D01*
X180617666Y-70316666D01*
X180384333Y-69850000D02*
X180384333Y-70316666D01*
X180384333Y-69916666D02*
X180351000Y-69883333D01*
X180284333Y-69850000D01*
X180184333Y-69850000D01*
X180117666Y-69883333D01*
X180084333Y-69950000D01*
X180084333Y-70316666D01*
X179851000Y-69850000D02*
X179584333Y-69850000D01*
X179751000Y-69616666D02*
X179751000Y-70216666D01*
X179717666Y-70283333D01*
X179651000Y-70316666D01*
X179584333Y-70316666D01*
X179084333Y-70283333D02*
X179151000Y-70316666D01*
X179284333Y-70316666D01*
X179351000Y-70283333D01*
X179384333Y-70216666D01*
X179384333Y-69950000D01*
X179351000Y-69883333D01*
X179284333Y-69850000D01*
X179151000Y-69850000D01*
X179084333Y-69883333D01*
X179051000Y-69950000D01*
X179051000Y-70016666D01*
X179384333Y-70083333D01*
X178751000Y-69850000D02*
X178751000Y-70316666D01*
X178751000Y-69916666D02*
X178717666Y-69883333D01*
X178651000Y-69850000D01*
X178551000Y-69850000D01*
X178484333Y-69883333D01*
X178451000Y-69950000D01*
X178451000Y-70316666D01*
X178117666Y-69850000D02*
X178117666Y-70316666D01*
X178117666Y-69916666D02*
X178084333Y-69883333D01*
X178017666Y-69850000D01*
X177917666Y-69850000D01*
X177851000Y-69883333D01*
X177817666Y-69950000D01*
X177817666Y-70316666D01*
X177184333Y-70316666D02*
X177184333Y-69950000D01*
X177217666Y-69883333D01*
X177284333Y-69850000D01*
X177417666Y-69850000D01*
X177484333Y-69883333D01*
X177184333Y-70283333D02*
X177251000Y-70316666D01*
X177417666Y-70316666D01*
X177484333Y-70283333D01*
X177517666Y-70216666D01*
X177517666Y-70150000D01*
X177484333Y-70083333D01*
X177417666Y-70050000D01*
X177251000Y-70050000D01*
X177184333Y-70016666D01*
X176317666Y-70316666D02*
X176317666Y-69850000D01*
X176317666Y-69916666D02*
X176284333Y-69883333D01*
X176217666Y-69850000D01*
X176117666Y-69850000D01*
X176050999Y-69883333D01*
X176017666Y-69950000D01*
X176017666Y-70316666D01*
X176017666Y-69950000D02*
X175984333Y-69883333D01*
X175917666Y-69850000D01*
X175817666Y-69850000D01*
X175750999Y-69883333D01*
X175717666Y-69950000D01*
X175717666Y-70316666D01*
X175084333Y-70316666D02*
X175084333Y-69950000D01*
X175117666Y-69883333D01*
X175184333Y-69850000D01*
X175317666Y-69850000D01*
X175384333Y-69883333D01*
X175084333Y-70283333D02*
X175150999Y-70316666D01*
X175317666Y-70316666D01*
X175384333Y-70283333D01*
X175417666Y-70216666D01*
X175417666Y-70150000D01*
X175384333Y-70083333D01*
X175317666Y-70050000D01*
X175150999Y-70050000D01*
X175084333Y-70016666D01*
X174850999Y-69850000D02*
X174584333Y-69850000D01*
X174750999Y-69616666D02*
X174750999Y-70216666D01*
X174717666Y-70283333D01*
X174650999Y-70316666D01*
X174584333Y-70316666D01*
X174050999Y-70283333D02*
X174117666Y-70316666D01*
X174250999Y-70316666D01*
X174317666Y-70283333D01*
X174350999Y-70250000D01*
X174384333Y-70183333D01*
X174384333Y-69983333D01*
X174350999Y-69916666D01*
X174317666Y-69883333D01*
X174250999Y-69850000D01*
X174117666Y-69850000D01*
X174050999Y-69883333D01*
X173750999Y-70316666D02*
X173750999Y-69616666D01*
X173450999Y-70316666D02*
X173450999Y-69950000D01*
X173484333Y-69883333D01*
X173550999Y-69850000D01*
X173650999Y-69850000D01*
X173717666Y-69883333D01*
X173750999Y-69916666D01*
X172851000Y-70283333D02*
X172917666Y-70316666D01*
X173051000Y-70316666D01*
X173117666Y-70283333D01*
X173151000Y-70216666D01*
X173151000Y-69950000D01*
X173117666Y-69883333D01*
X173051000Y-69850000D01*
X172917666Y-69850000D01*
X172851000Y-69883333D01*
X172817666Y-69950000D01*
X172817666Y-70016666D01*
X173151000Y-70083333D01*
X172217666Y-70316666D02*
X172217666Y-69616666D01*
X172217666Y-70283333D02*
X172284333Y-70316666D01*
X172417666Y-70316666D01*
X172484333Y-70283333D01*
X172517666Y-70250000D01*
X172551000Y-70183333D01*
X172551000Y-69983333D01*
X172517666Y-69916666D01*
X172484333Y-69883333D01*
X172417666Y-69850000D01*
X172284333Y-69850000D01*
X172217666Y-69883333D01*
X171451000Y-69850000D02*
X171184333Y-69850000D01*
X171351000Y-69616666D02*
X171351000Y-70216666D01*
X171317666Y-70283333D01*
X171251000Y-70316666D01*
X171184333Y-70316666D01*
X170851000Y-70316666D02*
X170917666Y-70283333D01*
X170951000Y-70250000D01*
X170984333Y-70183333D01*
X170984333Y-69983333D01*
X170951000Y-69916666D01*
X170917666Y-69883333D01*
X170851000Y-69850000D01*
X170751000Y-69850000D01*
X170684333Y-69883333D01*
X170651000Y-69916666D01*
X170617666Y-69983333D01*
X170617666Y-70183333D01*
X170651000Y-70250000D01*
X170684333Y-70283333D01*
X170751000Y-70316666D01*
X170851000Y-70316666D01*
X169784333Y-70316666D02*
X169784333Y-69616666D01*
X169384333Y-70316666D01*
X169384333Y-69616666D01*
X169117666Y-69616666D02*
X168651000Y-70316666D01*
X168651000Y-69616666D02*
X169117666Y-70316666D01*
X168384333Y-70316666D02*
X168384333Y-69616666D01*
X168117666Y-69616666D01*
X168051000Y-69650000D01*
X168017666Y-69683333D01*
X167984333Y-69750000D01*
X167984333Y-69850000D01*
X168017666Y-69916666D01*
X168051000Y-69950000D01*
X168117666Y-69983333D01*
X168384333Y-69983333D01*
X167151000Y-69616666D02*
X167151000Y-70183333D01*
X167117666Y-70250000D01*
X167084333Y-70283333D01*
X167017666Y-70316666D01*
X166884333Y-70316666D01*
X166817666Y-70283333D01*
X166784333Y-70250000D01*
X166751000Y-70183333D01*
X166751000Y-69616666D01*
X166017666Y-70250000D02*
X166051000Y-70283333D01*
X166151000Y-70316666D01*
X166217666Y-70316666D01*
X166317666Y-70283333D01*
X166384333Y-70216666D01*
X166417666Y-70150000D01*
X166451000Y-70016666D01*
X166451000Y-69916666D01*
X166417666Y-69783333D01*
X166384333Y-69716666D01*
X166317666Y-69650000D01*
X166217666Y-69616666D01*
X166151000Y-69616666D01*
X166051000Y-69650000D01*
X166017666Y-69683333D01*
X165584333Y-69616666D02*
X165451000Y-69616666D01*
X165384333Y-69650000D01*
X165317666Y-69716666D01*
X165284333Y-69850000D01*
X165284333Y-70083333D01*
X165317666Y-70216666D01*
X165384333Y-70283333D01*
X165451000Y-70316666D01*
X165584333Y-70316666D01*
X165651000Y-70283333D01*
X165717666Y-70216666D01*
X165751000Y-70083333D01*
X165751000Y-69850000D01*
X165717666Y-69716666D01*
X165651000Y-69650000D01*
X165584333Y-69616666D01*
X164984333Y-70316666D02*
X164984333Y-69616666D01*
X164817666Y-69616666D01*
X164717666Y-69650000D01*
X164651000Y-69716666D01*
X164617666Y-69783333D01*
X164584333Y-69916666D01*
X164584333Y-70016666D01*
X164617666Y-70150000D01*
X164651000Y-70216666D01*
X164717666Y-70283333D01*
X164817666Y-70316666D01*
X164984333Y-70316666D01*
X164284333Y-69950000D02*
X164051000Y-69950000D01*
X163951000Y-70316666D02*
X164284333Y-70316666D01*
X164284333Y-69616666D01*
X163951000Y-69616666D01*
X162751000Y-69650000D02*
X162817666Y-69616666D01*
X162917666Y-69616666D01*
X163017666Y-69650000D01*
X163084333Y-69716666D01*
X163117666Y-69783333D01*
X163151000Y-69916666D01*
X163151000Y-70016666D01*
X163117666Y-70150000D01*
X163084333Y-70216666D01*
X163017666Y-70283333D01*
X162917666Y-70316666D01*
X162851000Y-70316666D01*
X162751000Y-70283333D01*
X162717666Y-70250000D01*
X162717666Y-70016666D01*
X162851000Y-70016666D01*
X162451000Y-69683333D02*
X162417666Y-69650000D01*
X162351000Y-69616666D01*
X162184333Y-69616666D01*
X162117666Y-69650000D01*
X162084333Y-69683333D01*
X162051000Y-69750000D01*
X162051000Y-69816666D01*
X162084333Y-69916666D01*
X162484333Y-70316666D01*
X162051000Y-70316666D01*
X161751000Y-70316666D02*
X161751000Y-69850000D01*
X161751000Y-69616666D02*
X161784333Y-69650000D01*
X161751000Y-69683333D01*
X161717666Y-69650000D01*
X161751000Y-69616666D01*
X161751000Y-69683333D01*
X161417666Y-70316666D02*
X161417666Y-69616666D01*
X161184333Y-70116666D01*
X160951000Y-69616666D01*
X160951000Y-70316666D01*
X160617666Y-70050000D02*
X160084333Y-70050000D01*
X160351000Y-70316666D02*
X160351000Y-69783333D01*
X158917666Y-70283333D02*
X158984333Y-70316666D01*
X159117666Y-70316666D01*
X159184333Y-70283333D01*
X159217666Y-70250000D01*
X159251000Y-70183333D01*
X159251000Y-69983333D01*
X159217666Y-69916666D01*
X159184333Y-69883333D01*
X159117666Y-69850000D01*
X158984333Y-69850000D01*
X158917666Y-69883333D01*
X158617666Y-70316666D02*
X158617666Y-69616666D01*
X158317666Y-70316666D02*
X158317666Y-69950000D01*
X158351000Y-69883333D01*
X158417666Y-69850000D01*
X158517666Y-69850000D01*
X158584333Y-69883333D01*
X158617666Y-69916666D01*
X157984333Y-70316666D02*
X157984333Y-69850000D01*
X157984333Y-69616666D02*
X158017666Y-69650000D01*
X157984333Y-69683333D01*
X157951000Y-69650000D01*
X157984333Y-69616666D01*
X157984333Y-69683333D01*
X157651000Y-69850000D02*
X157651000Y-70550000D01*
X157651000Y-69883333D02*
X157584333Y-69850000D01*
X157451000Y-69850000D01*
X157384333Y-69883333D01*
X157351000Y-69916666D01*
X157317666Y-69983333D01*
X157317666Y-70183333D01*
X157351000Y-70250000D01*
X157384333Y-70283333D01*
X157451000Y-70316666D01*
X157584333Y-70316666D01*
X157651000Y-70283333D01*
X156484333Y-70050000D02*
X155951000Y-70050000D01*
X155617666Y-69850000D02*
X155084333Y-70050000D01*
X155617666Y-70250000D01*
X154284333Y-69616666D02*
X153817666Y-69616666D01*
X154284333Y-70316666D01*
X153817666Y-70316666D01*
X153251000Y-70283333D02*
X153317666Y-70316666D01*
X153451000Y-70316666D01*
X153517666Y-70283333D01*
X153551000Y-70250000D01*
X153584333Y-70183333D01*
X153584333Y-69983333D01*
X153551000Y-69916666D01*
X153517666Y-69883333D01*
X153451000Y-69850000D01*
X153317666Y-69850000D01*
X153251000Y-69883333D01*
X152417666Y-69950000D02*
X151884333Y-69950000D01*
X151884333Y-70150000D02*
X152417666Y-70150000D01*
X150517666Y-69683333D02*
X150484333Y-69650000D01*
X150417666Y-69616666D01*
X150251000Y-69616666D01*
X150184333Y-69650000D01*
X150151000Y-69683333D01*
X150117666Y-69750000D01*
X150117666Y-69816666D01*
X150151000Y-69916666D01*
X150551000Y-70316666D01*
X150117666Y-70316666D01*
X149517666Y-69850000D02*
X149517666Y-70316666D01*
X149684333Y-69583333D02*
X149851000Y-70083333D01*
X149417666Y-70083333D01*
X148617666Y-70050000D02*
X148084333Y-70050000D01*
X147217666Y-69850000D02*
X147217666Y-70450000D01*
X147251000Y-70516666D01*
X147317666Y-70550000D01*
X147351000Y-70550000D01*
X147217666Y-69616666D02*
X147251000Y-69650000D01*
X147217666Y-69683333D01*
X147184333Y-69650000D01*
X147217666Y-69616666D01*
X147217666Y-69683333D01*
X146917666Y-69683333D02*
X146884333Y-69650000D01*
X146817666Y-69616666D01*
X146651000Y-69616666D01*
X146584333Y-69650000D01*
X146551000Y-69683333D01*
X146517666Y-69750000D01*
X146517666Y-69816666D01*
X146551000Y-69916666D01*
X146951000Y-70316666D01*
X146517666Y-70316666D01*
X146251000Y-69683333D02*
X146217666Y-69650000D01*
X146151000Y-69616666D01*
X145984333Y-69616666D01*
X145917666Y-69650000D01*
X145884333Y-69683333D01*
X145851000Y-69750000D01*
X145851000Y-69816666D01*
X145884333Y-69916666D01*
X146284333Y-70316666D01*
X145851000Y-70316666D01*
X145584333Y-69683333D02*
X145551000Y-69650000D01*
X145484333Y-69616666D01*
X145317666Y-69616666D01*
X145251000Y-69650000D01*
X145217666Y-69683333D01*
X145184333Y-69750000D01*
X145184333Y-69816666D01*
X145217666Y-69916666D01*
X145617666Y-70316666D01*
X145184333Y-70316666D01*
X144217666Y-69616666D02*
X144084333Y-69616666D01*
X144017666Y-69650000D01*
X143951000Y-69716666D01*
X143917666Y-69850000D01*
X143917666Y-70083333D01*
X143951000Y-70216666D01*
X144017666Y-70283333D01*
X144084333Y-70316666D01*
X144217666Y-70316666D01*
X144284333Y-70283333D01*
X144351000Y-70216666D01*
X144384333Y-70083333D01*
X144384333Y-69850000D01*
X144351000Y-69716666D01*
X144284333Y-69650000D01*
X144217666Y-69616666D01*
X143617666Y-70316666D02*
X143617666Y-69616666D01*
X143317666Y-70316666D02*
X143317666Y-69950000D01*
X143351000Y-69883333D01*
X143417666Y-69850000D01*
X143517666Y-69850000D01*
X143584333Y-69883333D01*
X143617666Y-69916666D01*
X142984333Y-70316666D02*
X142984333Y-69850000D01*
X142984333Y-69916666D02*
X142951000Y-69883333D01*
X142884333Y-69850000D01*
X142784333Y-69850000D01*
X142717666Y-69883333D01*
X142684333Y-69950000D01*
X142684333Y-70316666D01*
X142684333Y-69950000D02*
X142651000Y-69883333D01*
X142584333Y-69850000D01*
X142484333Y-69850000D01*
X142417666Y-69883333D01*
X142384333Y-69950000D01*
X142384333Y-70316666D01*
X181017666Y-71453333D02*
X180917666Y-71486666D01*
X180751000Y-71486666D01*
X180684333Y-71453333D01*
X180651000Y-71420000D01*
X180617666Y-71353333D01*
X180617666Y-71286666D01*
X180651000Y-71220000D01*
X180684333Y-71186666D01*
X180751000Y-71153333D01*
X180884333Y-71120000D01*
X180951000Y-71086666D01*
X180984333Y-71053333D01*
X181017666Y-70986666D01*
X181017666Y-70920000D01*
X180984333Y-70853333D01*
X180951000Y-70820000D01*
X180884333Y-70786666D01*
X180717666Y-70786666D01*
X180617666Y-70820000D01*
X180317666Y-71020000D02*
X180317666Y-71720000D01*
X180317666Y-71053333D02*
X180251000Y-71020000D01*
X180117666Y-71020000D01*
X180051000Y-71053333D01*
X180017666Y-71086666D01*
X179984333Y-71153333D01*
X179984333Y-71353333D01*
X180017666Y-71420000D01*
X180051000Y-71453333D01*
X180117666Y-71486666D01*
X180251000Y-71486666D01*
X180317666Y-71453333D01*
X179417666Y-71453333D02*
X179484333Y-71486666D01*
X179617666Y-71486666D01*
X179684333Y-71453333D01*
X179717666Y-71386666D01*
X179717666Y-71120000D01*
X179684333Y-71053333D01*
X179617666Y-71020000D01*
X179484333Y-71020000D01*
X179417666Y-71053333D01*
X179384333Y-71120000D01*
X179384333Y-71186666D01*
X179717666Y-71253333D01*
X178784333Y-71453333D02*
X178851000Y-71486666D01*
X178984333Y-71486666D01*
X179051000Y-71453333D01*
X179084333Y-71420000D01*
X179117666Y-71353333D01*
X179117666Y-71153333D01*
X179084333Y-71086666D01*
X179051000Y-71053333D01*
X178984333Y-71020000D01*
X178851000Y-71020000D01*
X178784333Y-71053333D01*
X178517666Y-71453333D02*
X178451000Y-71486666D01*
X178317666Y-71486666D01*
X178251000Y-71453333D01*
X178217666Y-71386666D01*
X178217666Y-71353333D01*
X178251000Y-71286666D01*
X178317666Y-71253333D01*
X178417666Y-71253333D01*
X178484333Y-71220000D01*
X178517666Y-71153333D01*
X178517666Y-71120000D01*
X178484333Y-71053333D01*
X178417666Y-71020000D01*
X178317666Y-71020000D01*
X178251000Y-71053333D01*
X177917666Y-71420000D02*
X177884333Y-71453333D01*
X177917666Y-71486666D01*
X177951000Y-71453333D01*
X177917666Y-71420000D01*
X177917666Y-71486666D01*
X177917666Y-71053333D02*
X177884333Y-71086666D01*
X177917666Y-71120000D01*
X177951000Y-71086666D01*
X177917666Y-71053333D01*
X177917666Y-71120000D01*
X178617666Y-72290000D02*
X178851000Y-72290000D01*
X178851000Y-72656666D02*
X178851000Y-71956666D01*
X178517666Y-71956666D01*
X178251000Y-72656666D02*
X178251000Y-72190000D01*
X178251000Y-72323333D02*
X178217666Y-72256666D01*
X178184333Y-72223333D01*
X178117666Y-72190000D01*
X178051000Y-72190000D01*
X177551000Y-72623333D02*
X177617666Y-72656666D01*
X177751000Y-72656666D01*
X177817666Y-72623333D01*
X177851000Y-72556666D01*
X177851000Y-72290000D01*
X177817666Y-72223333D01*
X177751000Y-72190000D01*
X177617666Y-72190000D01*
X177551000Y-72223333D01*
X177517666Y-72290000D01*
X177517666Y-72356666D01*
X177851000Y-72423333D01*
X176917666Y-72190000D02*
X176917666Y-72890000D01*
X176917666Y-72623333D02*
X176984333Y-72656666D01*
X177117666Y-72656666D01*
X177184333Y-72623333D01*
X177217666Y-72590000D01*
X177251000Y-72523333D01*
X177251000Y-72323333D01*
X177217666Y-72256666D01*
X177184333Y-72223333D01*
X177117666Y-72190000D01*
X176984333Y-72190000D01*
X176917666Y-72223333D01*
X176284333Y-72190000D02*
X176284333Y-72656666D01*
X176584333Y-72190000D02*
X176584333Y-72556666D01*
X176551000Y-72623333D01*
X176484333Y-72656666D01*
X176384333Y-72656666D01*
X176317666Y-72623333D01*
X176284333Y-72590000D01*
X175684333Y-72623333D02*
X175751000Y-72656666D01*
X175884333Y-72656666D01*
X175951000Y-72623333D01*
X175984333Y-72556666D01*
X175984333Y-72290000D01*
X175951000Y-72223333D01*
X175884333Y-72190000D01*
X175751000Y-72190000D01*
X175684333Y-72223333D01*
X175651000Y-72290000D01*
X175651000Y-72356666D01*
X175984333Y-72423333D01*
X175351000Y-72190000D02*
X175351000Y-72656666D01*
X175351000Y-72256666D02*
X175317666Y-72223333D01*
X175251000Y-72190000D01*
X175151000Y-72190000D01*
X175084333Y-72223333D01*
X175051000Y-72290000D01*
X175051000Y-72656666D01*
X174417666Y-72623333D02*
X174484333Y-72656666D01*
X174617666Y-72656666D01*
X174684333Y-72623333D01*
X174717666Y-72590000D01*
X174751000Y-72523333D01*
X174751000Y-72323333D01*
X174717666Y-72256666D01*
X174684333Y-72223333D01*
X174617666Y-72190000D01*
X174484333Y-72190000D01*
X174417666Y-72223333D01*
X174184333Y-72190000D02*
X174017666Y-72656666D01*
X173851000Y-72190000D02*
X174017666Y-72656666D01*
X174084333Y-72823333D01*
X174117666Y-72856666D01*
X174184333Y-72890000D01*
X173584333Y-72590000D02*
X173551000Y-72623333D01*
X173584333Y-72656666D01*
X173617666Y-72623333D01*
X173584333Y-72590000D01*
X173584333Y-72656666D01*
X173584333Y-72223333D02*
X173551000Y-72256666D01*
X173584333Y-72290000D01*
X173617666Y-72256666D01*
X173584333Y-72223333D01*
X173584333Y-72290000D01*
X172684333Y-72656666D02*
X172551000Y-72656666D01*
X172484333Y-72623333D01*
X172451000Y-72590000D01*
X172384333Y-72490000D01*
X172351000Y-72356666D01*
X172351000Y-72090000D01*
X172384333Y-72023333D01*
X172417666Y-71990000D01*
X172484333Y-71956666D01*
X172617666Y-71956666D01*
X172684333Y-71990000D01*
X172717666Y-72023333D01*
X172751000Y-72090000D01*
X172751000Y-72256666D01*
X172717666Y-72323333D01*
X172684333Y-72356666D01*
X172617666Y-72390000D01*
X172484333Y-72390000D01*
X172417666Y-72356666D01*
X172384333Y-72323333D01*
X172351000Y-72256666D01*
X171917666Y-71956666D02*
X171851000Y-71956666D01*
X171784333Y-71990000D01*
X171751000Y-72023333D01*
X171717666Y-72090000D01*
X171684333Y-72223333D01*
X171684333Y-72390000D01*
X171717666Y-72523333D01*
X171751000Y-72590000D01*
X171784333Y-72623333D01*
X171851000Y-72656666D01*
X171917666Y-72656666D01*
X171984333Y-72623333D01*
X172017666Y-72590000D01*
X172051000Y-72523333D01*
X172084333Y-72390000D01*
X172084333Y-72223333D01*
X172051000Y-72090000D01*
X172017666Y-72023333D01*
X171984333Y-71990000D01*
X171917666Y-71956666D01*
X171417666Y-72023333D02*
X171384333Y-71990000D01*
X171317666Y-71956666D01*
X171151000Y-71956666D01*
X171084333Y-71990000D01*
X171051000Y-72023333D01*
X171017666Y-72090000D01*
X171017666Y-72156666D01*
X171051000Y-72256666D01*
X171451000Y-72656666D01*
X171017666Y-72656666D01*
X170717666Y-72590000D02*
X170684333Y-72623333D01*
X170717666Y-72656666D01*
X170751000Y-72623333D01*
X170717666Y-72590000D01*
X170717666Y-72656666D01*
X170351000Y-72656666D02*
X170217666Y-72656666D01*
X170151000Y-72623333D01*
X170117666Y-72590000D01*
X170051000Y-72490000D01*
X170017666Y-72356666D01*
X170017666Y-72090000D01*
X170051000Y-72023333D01*
X170084333Y-71990000D01*
X170151000Y-71956666D01*
X170284333Y-71956666D01*
X170351000Y-71990000D01*
X170384333Y-72023333D01*
X170417666Y-72090000D01*
X170417666Y-72256666D01*
X170384333Y-72323333D01*
X170351000Y-72356666D01*
X170284333Y-72390000D01*
X170151000Y-72390000D01*
X170084333Y-72356666D01*
X170051000Y-72323333D01*
X170017666Y-72256666D01*
X169184333Y-72390000D02*
X168651000Y-72390000D01*
X167751000Y-72656666D02*
X167617666Y-72656666D01*
X167551000Y-72623333D01*
X167517666Y-72590000D01*
X167451000Y-72490000D01*
X167417666Y-72356666D01*
X167417666Y-72090000D01*
X167451000Y-72023333D01*
X167484333Y-71990000D01*
X167551000Y-71956666D01*
X167684333Y-71956666D01*
X167751000Y-71990000D01*
X167784333Y-72023333D01*
X167817666Y-72090000D01*
X167817666Y-72256666D01*
X167784333Y-72323333D01*
X167751000Y-72356666D01*
X167684333Y-72390000D01*
X167551000Y-72390000D01*
X167484333Y-72356666D01*
X167451000Y-72323333D01*
X167417666Y-72256666D01*
X167151000Y-72023333D02*
X167117666Y-71990000D01*
X167051000Y-71956666D01*
X166884333Y-71956666D01*
X166817666Y-71990000D01*
X166784333Y-72023333D01*
X166751000Y-72090000D01*
X166751000Y-72156666D01*
X166784333Y-72256666D01*
X167184333Y-72656666D01*
X166751000Y-72656666D01*
X166517666Y-71956666D02*
X166051000Y-71956666D01*
X166351000Y-72656666D01*
X165784333Y-72590000D02*
X165751000Y-72623333D01*
X165784333Y-72656666D01*
X165817666Y-72623333D01*
X165784333Y-72590000D01*
X165784333Y-72656666D01*
X165484333Y-72023333D02*
X165451000Y-71990000D01*
X165384333Y-71956666D01*
X165217666Y-71956666D01*
X165151000Y-71990000D01*
X165117666Y-72023333D01*
X165084333Y-72090000D01*
X165084333Y-72156666D01*
X165117666Y-72256666D01*
X165517666Y-72656666D01*
X165084333Y-72656666D01*
X164251000Y-72656666D02*
X164251000Y-71956666D01*
X164017666Y-72456666D01*
X163784333Y-71956666D01*
X163784333Y-72656666D01*
X163451000Y-72656666D02*
X163451000Y-71956666D01*
X163451000Y-72290000D02*
X163051000Y-72290000D01*
X163051000Y-72656666D02*
X163051000Y-71956666D01*
X162784333Y-72190000D02*
X162417666Y-72190000D01*
X162784333Y-72656666D01*
X162417666Y-72656666D01*
X178851000Y-73826666D02*
X178851000Y-73126666D01*
X178584333Y-73126666D01*
X178517666Y-73160000D01*
X178484333Y-73193333D01*
X178451000Y-73260000D01*
X178451000Y-73360000D01*
X178484333Y-73426666D01*
X178517666Y-73460000D01*
X178584333Y-73493333D01*
X178851000Y-73493333D01*
X178051000Y-73826666D02*
X178117666Y-73793333D01*
X178151000Y-73760000D01*
X178184333Y-73693333D01*
X178184333Y-73493333D01*
X178151000Y-73426666D01*
X178117666Y-73393333D01*
X178051000Y-73360000D01*
X177951000Y-73360000D01*
X177884333Y-73393333D01*
X177851000Y-73426666D01*
X177817666Y-73493333D01*
X177817666Y-73693333D01*
X177851000Y-73760000D01*
X177884333Y-73793333D01*
X177951000Y-73826666D01*
X178051000Y-73826666D01*
X177417666Y-73826666D02*
X177484333Y-73793333D01*
X177517666Y-73726666D01*
X177517666Y-73126666D01*
X176851000Y-73826666D02*
X176851000Y-73460000D01*
X176884333Y-73393333D01*
X176951000Y-73360000D01*
X177084333Y-73360000D01*
X177151000Y-73393333D01*
X176851000Y-73793333D02*
X176917666Y-73826666D01*
X177084333Y-73826666D01*
X177151000Y-73793333D01*
X177184333Y-73726666D01*
X177184333Y-73660000D01*
X177151000Y-73593333D01*
X177084333Y-73560000D01*
X176917666Y-73560000D01*
X176851000Y-73526666D01*
X176517666Y-73826666D02*
X176517666Y-73360000D01*
X176517666Y-73493333D02*
X176484333Y-73426666D01*
X176451000Y-73393333D01*
X176384333Y-73360000D01*
X176317666Y-73360000D01*
X176084333Y-73826666D02*
X176084333Y-73360000D01*
X176084333Y-73126666D02*
X176117666Y-73160000D01*
X176084333Y-73193333D01*
X176051000Y-73160000D01*
X176084333Y-73126666D01*
X176084333Y-73193333D01*
X175817666Y-73360000D02*
X175451000Y-73360000D01*
X175817666Y-73826666D01*
X175451000Y-73826666D01*
X174884333Y-73826666D02*
X174884333Y-73460000D01*
X174917666Y-73393333D01*
X174984333Y-73360000D01*
X175117666Y-73360000D01*
X175184333Y-73393333D01*
X174884333Y-73793333D02*
X174951000Y-73826666D01*
X175117666Y-73826666D01*
X175184333Y-73793333D01*
X175217666Y-73726666D01*
X175217666Y-73660000D01*
X175184333Y-73593333D01*
X175117666Y-73560000D01*
X174951000Y-73560000D01*
X174884333Y-73526666D01*
X174651000Y-73360000D02*
X174384333Y-73360000D01*
X174551000Y-73126666D02*
X174551000Y-73726666D01*
X174517666Y-73793333D01*
X174451000Y-73826666D01*
X174384333Y-73826666D01*
X174151000Y-73826666D02*
X174151000Y-73360000D01*
X174151000Y-73126666D02*
X174184333Y-73160000D01*
X174151000Y-73193333D01*
X174117666Y-73160000D01*
X174151000Y-73126666D01*
X174151000Y-73193333D01*
X173717666Y-73826666D02*
X173784333Y-73793333D01*
X173817666Y-73760000D01*
X173851000Y-73693333D01*
X173851000Y-73493333D01*
X173817666Y-73426666D01*
X173784333Y-73393333D01*
X173717666Y-73360000D01*
X173617666Y-73360000D01*
X173551000Y-73393333D01*
X173517666Y-73426666D01*
X173484333Y-73493333D01*
X173484333Y-73693333D01*
X173517666Y-73760000D01*
X173551000Y-73793333D01*
X173617666Y-73826666D01*
X173717666Y-73826666D01*
X173184333Y-73360000D02*
X173184333Y-73826666D01*
X173184333Y-73426666D02*
X173151000Y-73393333D01*
X173084333Y-73360000D01*
X172984333Y-73360000D01*
X172917666Y-73393333D01*
X172884333Y-73460000D01*
X172884333Y-73826666D01*
X172551000Y-73760000D02*
X172517666Y-73793333D01*
X172551000Y-73826666D01*
X172584333Y-73793333D01*
X172551000Y-73760000D01*
X172551000Y-73826666D01*
X172551000Y-73393333D02*
X172517666Y-73426666D01*
X172551000Y-73460000D01*
X172584333Y-73426666D01*
X172551000Y-73393333D01*
X172551000Y-73460000D01*
X171351000Y-73826666D02*
X171684333Y-73826666D01*
X171684333Y-73126666D01*
X171117666Y-73826666D02*
X171117666Y-73360000D01*
X171117666Y-73126666D02*
X171151000Y-73160000D01*
X171117666Y-73193333D01*
X171084333Y-73160000D01*
X171117666Y-73126666D01*
X171117666Y-73193333D01*
X170784333Y-73360000D02*
X170784333Y-73826666D01*
X170784333Y-73426666D02*
X170751000Y-73393333D01*
X170684333Y-73360000D01*
X170584333Y-73360000D01*
X170517666Y-73393333D01*
X170484333Y-73460000D01*
X170484333Y-73826666D01*
X169884333Y-73793333D02*
X169951000Y-73826666D01*
X170084333Y-73826666D01*
X170151000Y-73793333D01*
X170184333Y-73726666D01*
X170184333Y-73460000D01*
X170151000Y-73393333D01*
X170084333Y-73360000D01*
X169951000Y-73360000D01*
X169884333Y-73393333D01*
X169851000Y-73460000D01*
X169851000Y-73526666D01*
X170184333Y-73593333D01*
X169251000Y-73826666D02*
X169251000Y-73460000D01*
X169284333Y-73393333D01*
X169351000Y-73360000D01*
X169484333Y-73360000D01*
X169551000Y-73393333D01*
X169251000Y-73793333D02*
X169317666Y-73826666D01*
X169484333Y-73826666D01*
X169551000Y-73793333D01*
X169584333Y-73726666D01*
X169584333Y-73660000D01*
X169551000Y-73593333D01*
X169484333Y-73560000D01*
X169317666Y-73560000D01*
X169251000Y-73526666D01*
X168917666Y-73826666D02*
X168917666Y-73360000D01*
X168917666Y-73493333D02*
X168884333Y-73426666D01*
X168851000Y-73393333D01*
X168784333Y-73360000D01*
X168717666Y-73360000D01*
X178484333Y-74330000D02*
X178551000Y-74296666D01*
X178651000Y-74296666D01*
X178751000Y-74330000D01*
X178817666Y-74396666D01*
X178851000Y-74463333D01*
X178884333Y-74596666D01*
X178884333Y-74696666D01*
X178851000Y-74830000D01*
X178817666Y-74896666D01*
X178751000Y-74963333D01*
X178651000Y-74996666D01*
X178584333Y-74996666D01*
X178484333Y-74963333D01*
X178451000Y-74930000D01*
X178451000Y-74696666D01*
X178584333Y-74696666D01*
X177851000Y-74996666D02*
X177851000Y-74630000D01*
X177884333Y-74563333D01*
X177951000Y-74530000D01*
X178084333Y-74530000D01*
X178151000Y-74563333D01*
X177851000Y-74963333D02*
X177917666Y-74996666D01*
X178084333Y-74996666D01*
X178151000Y-74963333D01*
X178184333Y-74896666D01*
X178184333Y-74830000D01*
X178151000Y-74763333D01*
X178084333Y-74730000D01*
X177917666Y-74730000D01*
X177851000Y-74696666D01*
X177517666Y-74996666D02*
X177517666Y-74530000D01*
X177517666Y-74296666D02*
X177551000Y-74330000D01*
X177517666Y-74363333D01*
X177484333Y-74330000D01*
X177517666Y-74296666D01*
X177517666Y-74363333D01*
X177184333Y-74530000D02*
X177184333Y-74996666D01*
X177184333Y-74596666D02*
X177151000Y-74563333D01*
X177084333Y-74530000D01*
X176984333Y-74530000D01*
X176917666Y-74563333D01*
X176884333Y-74630000D01*
X176884333Y-74996666D01*
X176551000Y-74930000D02*
X176517666Y-74963333D01*
X176551000Y-74996666D01*
X176584333Y-74963333D01*
X176551000Y-74930000D01*
X176551000Y-74996666D01*
X176551000Y-74563333D02*
X176517666Y-74596666D01*
X176551000Y-74630000D01*
X176584333Y-74596666D01*
X176551000Y-74563333D01*
X176551000Y-74630000D01*
X175684333Y-74730000D02*
X175151000Y-74730000D01*
X175417666Y-74996666D02*
X175417666Y-74463333D01*
X174317666Y-74263333D02*
X174917666Y-75163333D01*
X174084333Y-74730000D02*
X173551000Y-74730000D01*
X172851000Y-74996666D02*
X173251000Y-74996666D01*
X173051000Y-74996666D02*
X173051000Y-74296666D01*
X173117666Y-74396666D01*
X173184333Y-74463333D01*
X173251000Y-74496666D01*
X172551000Y-74930000D02*
X172517666Y-74963333D01*
X172551000Y-74996666D01*
X172584333Y-74963333D01*
X172551000Y-74930000D01*
X172551000Y-74996666D01*
X172251000Y-74363333D02*
X172217666Y-74330000D01*
X172151000Y-74296666D01*
X171984333Y-74296666D01*
X171917666Y-74330000D01*
X171884333Y-74363333D01*
X171851000Y-74430000D01*
X171851000Y-74496666D01*
X171884333Y-74596666D01*
X172284333Y-74996666D01*
X171851000Y-74996666D01*
X170717666Y-74996666D02*
X170717666Y-74296666D01*
X170717666Y-74963333D02*
X170784333Y-74996666D01*
X170917666Y-74996666D01*
X170984333Y-74963333D01*
X171017666Y-74930000D01*
X171051000Y-74863333D01*
X171051000Y-74663333D01*
X171017666Y-74596666D01*
X170984333Y-74563333D01*
X170917666Y-74530000D01*
X170784333Y-74530000D01*
X170717666Y-74563333D01*
X170151000Y-74630000D02*
X170051000Y-74663333D01*
X170017666Y-74696666D01*
X169984333Y-74763333D01*
X169984333Y-74863333D01*
X170017666Y-74930000D01*
X170051000Y-74963333D01*
X170117666Y-74996666D01*
X170384333Y-74996666D01*
X170384333Y-74296666D01*
X170151000Y-74296666D01*
X170084333Y-74330000D01*
X170051000Y-74363333D01*
X170017666Y-74430000D01*
X170017666Y-74496666D01*
X170051000Y-74563333D01*
X170084333Y-74596666D01*
X170151000Y-74630000D01*
X170384333Y-74630000D01*
X169684333Y-74996666D02*
X169684333Y-74530000D01*
X169684333Y-74296666D02*
X169717666Y-74330000D01*
X169684333Y-74363333D01*
X169651000Y-74330000D01*
X169684333Y-74296666D01*
X169684333Y-74363333D01*
D11*
X161351761Y-76049142D02*
X161399380Y-76096761D01*
X161542238Y-76144380D01*
X161637476Y-76144380D01*
X161780333Y-76096761D01*
X161875571Y-76001523D01*
X161923190Y-75906285D01*
X161970809Y-75715809D01*
X161970809Y-75572952D01*
X161923190Y-75382476D01*
X161875571Y-75287238D01*
X161780333Y-75192000D01*
X161637476Y-75144380D01*
X161542238Y-75144380D01*
X161399380Y-75192000D01*
X161351761Y-75239619D01*
X160780333Y-76144380D02*
X160875571Y-76096761D01*
X160923190Y-76049142D01*
X160970809Y-75953904D01*
X160970809Y-75668190D01*
X160923190Y-75572952D01*
X160875571Y-75525333D01*
X160780333Y-75477714D01*
X160637476Y-75477714D01*
X160542238Y-75525333D01*
X160494619Y-75572952D01*
X160447000Y-75668190D01*
X160447000Y-75953904D01*
X160494619Y-76049142D01*
X160542238Y-76096761D01*
X160637476Y-76144380D01*
X160780333Y-76144380D01*
X160018428Y-75477714D02*
X160018428Y-76477714D01*
X160018428Y-75525333D02*
X159923190Y-75477714D01*
X159732714Y-75477714D01*
X159637476Y-75525333D01*
X159589857Y-75572952D01*
X159542238Y-75668190D01*
X159542238Y-75953904D01*
X159589857Y-76049142D01*
X159637476Y-76096761D01*
X159732714Y-76144380D01*
X159923190Y-76144380D01*
X160018428Y-76096761D01*
X159208904Y-75477714D02*
X158970809Y-76144380D01*
X158732714Y-75477714D02*
X158970809Y-76144380D01*
X159066047Y-76382476D01*
X159113666Y-76430095D01*
X159208904Y-76477714D01*
X158351761Y-76144380D02*
X158351761Y-75477714D01*
X158351761Y-75668190D02*
X158304142Y-75572952D01*
X158256523Y-75525333D01*
X158161285Y-75477714D01*
X158066047Y-75477714D01*
X157732714Y-76144380D02*
X157732714Y-75477714D01*
X157732714Y-75144380D02*
X157780333Y-75192000D01*
X157732714Y-75239619D01*
X157685095Y-75192000D01*
X157732714Y-75144380D01*
X157732714Y-75239619D01*
X156827952Y-75477714D02*
X156827952Y-76287238D01*
X156875571Y-76382476D01*
X156923190Y-76430095D01*
X157018428Y-76477714D01*
X157161285Y-76477714D01*
X157256523Y-76430095D01*
X156827952Y-76096761D02*
X156923190Y-76144380D01*
X157113666Y-76144380D01*
X157208904Y-76096761D01*
X157256523Y-76049142D01*
X157304142Y-75953904D01*
X157304142Y-75668190D01*
X157256523Y-75572952D01*
X157208904Y-75525333D01*
X157113666Y-75477714D01*
X156923190Y-75477714D01*
X156827952Y-75525333D01*
X156351761Y-76144380D02*
X156351761Y-75144380D01*
X155923190Y-76144380D02*
X155923190Y-75620571D01*
X155970809Y-75525333D01*
X156066047Y-75477714D01*
X156208904Y-75477714D01*
X156304142Y-75525333D01*
X156351761Y-75572952D01*
X155589857Y-75477714D02*
X155208904Y-75477714D01*
X155447000Y-75144380D02*
X155447000Y-76001523D01*
X155399380Y-76096761D01*
X155304142Y-76144380D01*
X155208904Y-76144380D01*
X153827952Y-76525333D02*
X153875571Y-76477714D01*
X153970809Y-76334857D01*
X154018428Y-76239619D01*
X154066047Y-76096761D01*
X154113666Y-75858666D01*
X154113666Y-75668190D01*
X154066047Y-75430095D01*
X154018428Y-75287238D01*
X153970809Y-75192000D01*
X153875571Y-75049142D01*
X153827952Y-75001523D01*
X152875571Y-76049142D02*
X152923190Y-76096761D01*
X153066047Y-76144380D01*
X153161285Y-76144380D01*
X153304142Y-76096761D01*
X153399380Y-76001523D01*
X153447000Y-75906285D01*
X153494619Y-75715809D01*
X153494619Y-75572952D01*
X153447000Y-75382476D01*
X153399380Y-75287238D01*
X153304142Y-75192000D01*
X153161285Y-75144380D01*
X153066047Y-75144380D01*
X152923190Y-75192000D01*
X152875571Y-75239619D01*
X152542238Y-76525333D02*
X152494619Y-76477714D01*
X152399380Y-76334857D01*
X152351761Y-76239619D01*
X152304142Y-76096761D01*
X152256523Y-75858666D01*
X152256523Y-75668190D01*
X152304142Y-75430095D01*
X152351761Y-75287238D01*
X152399380Y-75192000D01*
X152494619Y-75049142D01*
X152542238Y-75001523D01*
X151066047Y-75239619D02*
X151018428Y-75192000D01*
X150923190Y-75144380D01*
X150685095Y-75144380D01*
X150589857Y-75192000D01*
X150542238Y-75239619D01*
X150494619Y-75334857D01*
X150494619Y-75430095D01*
X150542238Y-75572952D01*
X151113666Y-76144380D01*
X150494619Y-76144380D01*
X149875571Y-75144380D02*
X149780333Y-75144380D01*
X149685095Y-75192000D01*
X149637476Y-75239619D01*
X149589857Y-75334857D01*
X149542238Y-75525333D01*
X149542238Y-75763428D01*
X149589857Y-75953904D01*
X149637476Y-76049142D01*
X149685095Y-76096761D01*
X149780333Y-76144380D01*
X149875571Y-76144380D01*
X149970809Y-76096761D01*
X150018428Y-76049142D01*
X150066047Y-75953904D01*
X150113666Y-75763428D01*
X150113666Y-75525333D01*
X150066047Y-75334857D01*
X150018428Y-75239619D01*
X149970809Y-75192000D01*
X149875571Y-75144380D01*
X149161285Y-75239619D02*
X149113666Y-75192000D01*
X149018428Y-75144380D01*
X148780333Y-75144380D01*
X148685095Y-75192000D01*
X148637476Y-75239619D01*
X148589857Y-75334857D01*
X148589857Y-75430095D01*
X148637476Y-75572952D01*
X149208904Y-76144380D01*
X148589857Y-76144380D01*
X147637476Y-76144380D02*
X148208904Y-76144380D01*
X147923190Y-76144380D02*
X147923190Y-75144380D01*
X148018428Y-75287238D01*
X148113666Y-75382476D01*
X148208904Y-75430095D01*
X145875571Y-76144380D02*
X146208904Y-75668190D01*
X146447000Y-76144380D02*
X146447000Y-75144380D01*
X146066047Y-75144380D01*
X145970809Y-75192000D01*
X145923190Y-75239619D01*
X145875571Y-75334857D01*
X145875571Y-75477714D01*
X145923190Y-75572952D01*
X145970809Y-75620571D01*
X146066047Y-75668190D01*
X146447000Y-75668190D01*
X145447000Y-76144380D02*
X145447000Y-75477714D01*
X145447000Y-75144380D02*
X145494619Y-75192000D01*
X145447000Y-75239619D01*
X145399380Y-75192000D01*
X145447000Y-75144380D01*
X145447000Y-75239619D01*
X144542238Y-76096761D02*
X144637476Y-76144380D01*
X144827952Y-76144380D01*
X144923190Y-76096761D01*
X144970809Y-76049142D01*
X145018428Y-75953904D01*
X145018428Y-75668190D01*
X144970809Y-75572952D01*
X144923190Y-75525333D01*
X144827952Y-75477714D01*
X144637476Y-75477714D01*
X144542238Y-75525333D01*
X143685095Y-76144380D02*
X143685095Y-75620571D01*
X143732714Y-75525333D01*
X143827952Y-75477714D01*
X144018428Y-75477714D01*
X144113666Y-75525333D01*
X143685095Y-76096761D02*
X143780333Y-76144380D01*
X144018428Y-76144380D01*
X144113666Y-76096761D01*
X144161285Y-76001523D01*
X144161285Y-75906285D01*
X144113666Y-75811047D01*
X144018428Y-75763428D01*
X143780333Y-75763428D01*
X143685095Y-75715809D01*
X143208904Y-76144380D02*
X143208904Y-75477714D01*
X143208904Y-75668190D02*
X143161285Y-75572952D01*
X143113666Y-75525333D01*
X143018428Y-75477714D01*
X142923190Y-75477714D01*
X142161285Y-76144380D02*
X142161285Y-75144380D01*
X142161285Y-76096761D02*
X142256523Y-76144380D01*
X142447000Y-76144380D01*
X142542238Y-76096761D01*
X142589857Y-76049142D01*
X142637476Y-75953904D01*
X142637476Y-75668190D01*
X142589857Y-75572952D01*
X142542238Y-75525333D01*
X142447000Y-75477714D01*
X142256523Y-75477714D01*
X142161285Y-75525333D01*
X141542238Y-76144380D02*
X141637476Y-76096761D01*
X141685095Y-76049142D01*
X141732714Y-75953904D01*
X141732714Y-75668190D01*
X141685095Y-75572952D01*
X141637476Y-75525333D01*
X141542238Y-75477714D01*
X141399380Y-75477714D01*
X141304142Y-75525333D01*
X141256523Y-75572952D01*
X141208904Y-75668190D01*
X141208904Y-75953904D01*
X141256523Y-76049142D01*
X141304142Y-76096761D01*
X141399380Y-76144380D01*
X141542238Y-76144380D01*
X139494619Y-75192000D02*
X139589857Y-75144380D01*
X139732714Y-75144380D01*
X139875571Y-75192000D01*
X139970809Y-75287238D01*
X140018428Y-75382476D01*
X140066047Y-75572952D01*
X140066047Y-75715809D01*
X140018428Y-75906285D01*
X139970809Y-76001523D01*
X139875571Y-76096761D01*
X139732714Y-76144380D01*
X139637476Y-76144380D01*
X139494619Y-76096761D01*
X139447000Y-76049142D01*
X139447000Y-75715809D01*
X139637476Y-75715809D01*
X138875571Y-76144380D02*
X138970809Y-76096761D01*
X139018428Y-76049142D01*
X139066047Y-75953904D01*
X139066047Y-75668190D01*
X139018428Y-75572952D01*
X138970809Y-75525333D01*
X138875571Y-75477714D01*
X138732714Y-75477714D01*
X138637476Y-75525333D01*
X138589857Y-75572952D01*
X138542238Y-75668190D01*
X138542238Y-75953904D01*
X138589857Y-76049142D01*
X138637476Y-76096761D01*
X138732714Y-76144380D01*
X138875571Y-76144380D01*
X138113666Y-75477714D02*
X138113666Y-76144380D01*
X138113666Y-75572952D02*
X138066047Y-75525333D01*
X137970809Y-75477714D01*
X137827952Y-75477714D01*
X137732714Y-75525333D01*
X137685095Y-75620571D01*
X137685095Y-76144380D01*
X136780333Y-76096761D02*
X136875571Y-76144380D01*
X137066047Y-76144380D01*
X137161285Y-76096761D01*
X137208904Y-76049142D01*
X137256523Y-75953904D01*
X137256523Y-75668190D01*
X137208904Y-75572952D01*
X137161285Y-75525333D01*
X137066047Y-75477714D01*
X136875571Y-75477714D01*
X136780333Y-75525333D01*
X135923190Y-76144380D02*
X135923190Y-75620571D01*
X135970809Y-75525333D01*
X136066047Y-75477714D01*
X136256523Y-75477714D01*
X136351761Y-75525333D01*
X135923190Y-76096761D02*
X136018428Y-76144380D01*
X136256523Y-76144380D01*
X136351761Y-76096761D01*
X136399380Y-76001523D01*
X136399380Y-75906285D01*
X136351761Y-75811047D01*
X136256523Y-75763428D01*
X136018428Y-75763428D01*
X135923190Y-75715809D01*
X135304142Y-76144380D02*
X135399380Y-76096761D01*
X135447000Y-76001523D01*
X135447000Y-75144380D01*
X135018428Y-75477714D02*
X134780333Y-76144380D01*
X134542238Y-75477714D01*
X133780333Y-76096761D02*
X133875571Y-76144380D01*
X134066047Y-76144380D01*
X134161285Y-76096761D01*
X134208904Y-76001523D01*
X134208904Y-75620571D01*
X134161285Y-75525333D01*
X134066047Y-75477714D01*
X133875571Y-75477714D01*
X133780333Y-75525333D01*
X133732714Y-75620571D01*
X133732714Y-75715809D01*
X134208904Y-75811047D01*
X133351761Y-76096761D02*
X133256523Y-76144380D01*
X133066047Y-76144380D01*
X132970809Y-76096761D01*
X132923190Y-76001523D01*
X132923190Y-75953904D01*
X132970809Y-75858666D01*
X133066047Y-75811047D01*
X133208904Y-75811047D01*
X133304142Y-75763428D01*
X133351761Y-75668190D01*
X133351761Y-75620571D01*
X133304142Y-75525333D01*
X133208904Y-75477714D01*
X133066047Y-75477714D01*
X132970809Y-75525333D01*
D12*
%TO.C,REF\u002A\u002A*%
G36*
X127250640Y-74088468D02*
G01*
X127215408Y-74105874D01*
X127171960Y-74136206D01*
X127140294Y-74169283D01*
X127118606Y-74210817D01*
X127105097Y-74266522D01*
X127097962Y-74342111D01*
X127095400Y-74443296D01*
X127095250Y-74486797D01*
X127095688Y-74582135D01*
X127097504Y-74650271D01*
X127101455Y-74697418D01*
X127108298Y-74729790D01*
X127118789Y-74753600D01*
X127129704Y-74769843D01*
X127199381Y-74838952D01*
X127281434Y-74880521D01*
X127369950Y-74893023D01*
X127459019Y-74874934D01*
X127487237Y-74862142D01*
X127554790Y-74826931D01*
X127554790Y-75378700D01*
X127505488Y-75353205D01*
X127440527Y-75333480D01*
X127360680Y-75328427D01*
X127280948Y-75337756D01*
X127220735Y-75358714D01*
X127170792Y-75398627D01*
X127128119Y-75455741D01*
X127124910Y-75461605D01*
X127111378Y-75489227D01*
X127101495Y-75517068D01*
X127094691Y-75550794D01*
X127090399Y-75596071D01*
X127088049Y-75658562D01*
X127087072Y-75743935D01*
X127086895Y-75840010D01*
X127086895Y-76146526D01*
X127270711Y-76146526D01*
X127270711Y-75581339D01*
X127322125Y-75538077D01*
X127375534Y-75503472D01*
X127426112Y-75497180D01*
X127476970Y-75513372D01*
X127504075Y-75529227D01*
X127524249Y-75551810D01*
X127538597Y-75585940D01*
X127548224Y-75636434D01*
X127554237Y-75708111D01*
X127557740Y-75805788D01*
X127558974Y-75870802D01*
X127563145Y-76138171D01*
X127650875Y-76143222D01*
X127738606Y-76148273D01*
X127738606Y-74489101D01*
X127554790Y-74489101D01*
X127550104Y-74581600D01*
X127534312Y-74645809D01*
X127504817Y-74685759D01*
X127459020Y-74705480D01*
X127412750Y-74709421D01*
X127360372Y-74704892D01*
X127325610Y-74687069D01*
X127303872Y-74663519D01*
X127286760Y-74638189D01*
X127276573Y-74609969D01*
X127272040Y-74570431D01*
X127271891Y-74511142D01*
X127273416Y-74461498D01*
X127276919Y-74386710D01*
X127282133Y-74337611D01*
X127290913Y-74306467D01*
X127305114Y-74285545D01*
X127318516Y-74273452D01*
X127374513Y-74247081D01*
X127440789Y-74242822D01*
X127478844Y-74251906D01*
X127516523Y-74284196D01*
X127541481Y-74347006D01*
X127553578Y-74439894D01*
X127554790Y-74489101D01*
X127738606Y-74489101D01*
X127738606Y-74074421D01*
X127646698Y-74074421D01*
X127591517Y-74076603D01*
X127563048Y-74084351D01*
X127554794Y-74099468D01*
X127554790Y-74099916D01*
X127550960Y-74114720D01*
X127534067Y-74113039D01*
X127500481Y-74096772D01*
X127422222Y-74071887D01*
X127334173Y-74069271D01*
X127250640Y-74088468D01*
G37*
X127250640Y-74088468D02*
X127215408Y-74105874D01*
X127171960Y-74136206D01*
X127140294Y-74169283D01*
X127118606Y-74210817D01*
X127105097Y-74266522D01*
X127097962Y-74342111D01*
X127095400Y-74443296D01*
X127095250Y-74486797D01*
X127095688Y-74582135D01*
X127097504Y-74650271D01*
X127101455Y-74697418D01*
X127108298Y-74729790D01*
X127118789Y-74753600D01*
X127129704Y-74769843D01*
X127199381Y-74838952D01*
X127281434Y-74880521D01*
X127369950Y-74893023D01*
X127459019Y-74874934D01*
X127487237Y-74862142D01*
X127554790Y-74826931D01*
X127554790Y-75378700D01*
X127505488Y-75353205D01*
X127440527Y-75333480D01*
X127360680Y-75328427D01*
X127280948Y-75337756D01*
X127220735Y-75358714D01*
X127170792Y-75398627D01*
X127128119Y-75455741D01*
X127124910Y-75461605D01*
X127111378Y-75489227D01*
X127101495Y-75517068D01*
X127094691Y-75550794D01*
X127090399Y-75596071D01*
X127088049Y-75658562D01*
X127087072Y-75743935D01*
X127086895Y-75840010D01*
X127086895Y-76146526D01*
X127270711Y-76146526D01*
X127270711Y-75581339D01*
X127322125Y-75538077D01*
X127375534Y-75503472D01*
X127426112Y-75497180D01*
X127476970Y-75513372D01*
X127504075Y-75529227D01*
X127524249Y-75551810D01*
X127538597Y-75585940D01*
X127548224Y-75636434D01*
X127554237Y-75708111D01*
X127557740Y-75805788D01*
X127558974Y-75870802D01*
X127563145Y-76138171D01*
X127650875Y-76143222D01*
X127738606Y-76148273D01*
X127738606Y-74489101D01*
X127554790Y-74489101D01*
X127550104Y-74581600D01*
X127534312Y-74645809D01*
X127504817Y-74685759D01*
X127459020Y-74705480D01*
X127412750Y-74709421D01*
X127360372Y-74704892D01*
X127325610Y-74687069D01*
X127303872Y-74663519D01*
X127286760Y-74638189D01*
X127276573Y-74609969D01*
X127272040Y-74570431D01*
X127271891Y-74511142D01*
X127273416Y-74461498D01*
X127276919Y-74386710D01*
X127282133Y-74337611D01*
X127290913Y-74306467D01*
X127305114Y-74285545D01*
X127318516Y-74273452D01*
X127374513Y-74247081D01*
X127440789Y-74242822D01*
X127478844Y-74251906D01*
X127516523Y-74284196D01*
X127541481Y-74347006D01*
X127553578Y-74439894D01*
X127554790Y-74489101D01*
X127738606Y-74489101D01*
X127738606Y-74074421D01*
X127646698Y-74074421D01*
X127591517Y-74076603D01*
X127563048Y-74084351D01*
X127554794Y-74099468D01*
X127554790Y-74099916D01*
X127550960Y-74114720D01*
X127534067Y-74113039D01*
X127500481Y-74096772D01*
X127422222Y-74071887D01*
X127334173Y-74069271D01*
X127250640Y-74088468D01*
G36*
X126553543Y-75334184D02*
G01*
X126474930Y-75355160D01*
X126415084Y-75393180D01*
X126372853Y-75442978D01*
X126359725Y-75464230D01*
X126350032Y-75486492D01*
X126343256Y-75514970D01*
X126338877Y-75554871D01*
X126336376Y-75611401D01*
X126335232Y-75689767D01*
X126334928Y-75795176D01*
X126334922Y-75823142D01*
X126334922Y-76146526D01*
X126415132Y-76146526D01*
X126466294Y-76142943D01*
X126504123Y-76133866D01*
X126513601Y-76128268D01*
X126539512Y-76118606D01*
X126565976Y-76128268D01*
X126609548Y-76140330D01*
X126672840Y-76145185D01*
X126742990Y-76143078D01*
X126807140Y-76134256D01*
X126844593Y-76122937D01*
X126917067Y-76076412D01*
X126962360Y-76011846D01*
X126982722Y-75926000D01*
X126982912Y-75923796D01*
X126981125Y-75885713D01*
X126819527Y-75885713D01*
X126805399Y-75929030D01*
X126782388Y-75953408D01*
X126736196Y-75971845D01*
X126675225Y-75979205D01*
X126613051Y-75975583D01*
X126563249Y-75961074D01*
X126549297Y-75951765D01*
X126524915Y-75908753D01*
X126518737Y-75859857D01*
X126518737Y-75795605D01*
X126611182Y-75795605D01*
X126699005Y-75802366D01*
X126765582Y-75821520D01*
X126806998Y-75851376D01*
X126819527Y-75885713D01*
X126981125Y-75885713D01*
X126978510Y-75830004D01*
X126947576Y-75755847D01*
X126889419Y-75699767D01*
X126881380Y-75694665D01*
X126846837Y-75678055D01*
X126804082Y-75667996D01*
X126744314Y-75663107D01*
X126673310Y-75661983D01*
X126518737Y-75661921D01*
X126518737Y-75597125D01*
X126525294Y-75546850D01*
X126542025Y-75513169D01*
X126543984Y-75511376D01*
X126581217Y-75496642D01*
X126637420Y-75490931D01*
X126699533Y-75493737D01*
X126754490Y-75504556D01*
X126787101Y-75520782D01*
X126804772Y-75533780D01*
X126823431Y-75536262D01*
X126849181Y-75525613D01*
X126888127Y-75499218D01*
X126946370Y-75454465D01*
X126951716Y-75450273D01*
X126948977Y-75434760D01*
X126926124Y-75408960D01*
X126891391Y-75380289D01*
X126853010Y-75356166D01*
X126840952Y-75350470D01*
X126796966Y-75339103D01*
X126732513Y-75330995D01*
X126660503Y-75327743D01*
X126657136Y-75327736D01*
X126553543Y-75334184D01*
G37*
X126553543Y-75334184D02*
X126474930Y-75355160D01*
X126415084Y-75393180D01*
X126372853Y-75442978D01*
X126359725Y-75464230D01*
X126350032Y-75486492D01*
X126343256Y-75514970D01*
X126338877Y-75554871D01*
X126336376Y-75611401D01*
X126335232Y-75689767D01*
X126334928Y-75795176D01*
X126334922Y-75823142D01*
X126334922Y-76146526D01*
X126415132Y-76146526D01*
X126466294Y-76142943D01*
X126504123Y-76133866D01*
X126513601Y-76128268D01*
X126539512Y-76118606D01*
X126565976Y-76128268D01*
X126609548Y-76140330D01*
X126672840Y-76145185D01*
X126742990Y-76143078D01*
X126807140Y-76134256D01*
X126844593Y-76122937D01*
X126917067Y-76076412D01*
X126962360Y-76011846D01*
X126982722Y-75926000D01*
X126982912Y-75923796D01*
X126981125Y-75885713D01*
X126819527Y-75885713D01*
X126805399Y-75929030D01*
X126782388Y-75953408D01*
X126736196Y-75971845D01*
X126675225Y-75979205D01*
X126613051Y-75975583D01*
X126563249Y-75961074D01*
X126549297Y-75951765D01*
X126524915Y-75908753D01*
X126518737Y-75859857D01*
X126518737Y-75795605D01*
X126611182Y-75795605D01*
X126699005Y-75802366D01*
X126765582Y-75821520D01*
X126806998Y-75851376D01*
X126819527Y-75885713D01*
X126981125Y-75885713D01*
X126978510Y-75830004D01*
X126947576Y-75755847D01*
X126889419Y-75699767D01*
X126881380Y-75694665D01*
X126846837Y-75678055D01*
X126804082Y-75667996D01*
X126744314Y-75663107D01*
X126673310Y-75661983D01*
X126518737Y-75661921D01*
X126518737Y-75597125D01*
X126525294Y-75546850D01*
X126542025Y-75513169D01*
X126543984Y-75511376D01*
X126581217Y-75496642D01*
X126637420Y-75490931D01*
X126699533Y-75493737D01*
X126754490Y-75504556D01*
X126787101Y-75520782D01*
X126804772Y-75533780D01*
X126823431Y-75536262D01*
X126849181Y-75525613D01*
X126888127Y-75499218D01*
X126946370Y-75454465D01*
X126951716Y-75450273D01*
X126948977Y-75434760D01*
X126926124Y-75408960D01*
X126891391Y-75380289D01*
X126853010Y-75356166D01*
X126840952Y-75350470D01*
X126796966Y-75339103D01*
X126732513Y-75330995D01*
X126660503Y-75327743D01*
X126657136Y-75327736D01*
X126553543Y-75334184D01*
G36*
X126034119Y-75329486D02*
G01*
X126009112Y-75336982D01*
X126001050Y-75353451D01*
X126000711Y-75360886D01*
X125999264Y-75381594D01*
X125989302Y-75384845D01*
X125962388Y-75370648D01*
X125946402Y-75360948D01*
X125895967Y-75340175D01*
X125835728Y-75329904D01*
X125772566Y-75329114D01*
X125713363Y-75336786D01*
X125664998Y-75351898D01*
X125634354Y-75373432D01*
X125628311Y-75400366D01*
X125631361Y-75407660D01*
X125653594Y-75437937D01*
X125688070Y-75475175D01*
X125694306Y-75481195D01*
X125727167Y-75508875D01*
X125755520Y-75517818D01*
X125795173Y-75511576D01*
X125811058Y-75507429D01*
X125860491Y-75497467D01*
X125895248Y-75501947D01*
X125924600Y-75517746D01*
X125951487Y-75538949D01*
X125971290Y-75565614D01*
X125985052Y-75602827D01*
X125993816Y-75655673D01*
X125998626Y-75729237D01*
X126000526Y-75828605D01*
X126000711Y-75888601D01*
X126000711Y-76146526D01*
X126167816Y-76146526D01*
X126167816Y-75327710D01*
X126084264Y-75327710D01*
X126034119Y-75329486D01*
G37*
X126034119Y-75329486D02*
X126009112Y-75336982D01*
X126001050Y-75353451D01*
X126000711Y-75360886D01*
X125999264Y-75381594D01*
X125989302Y-75384845D01*
X125962388Y-75370648D01*
X125946402Y-75360948D01*
X125895967Y-75340175D01*
X125835728Y-75329904D01*
X125772566Y-75329114D01*
X125713363Y-75336786D01*
X125664998Y-75351898D01*
X125634354Y-75373432D01*
X125628311Y-75400366D01*
X125631361Y-75407660D01*
X125653594Y-75437937D01*
X125688070Y-75475175D01*
X125694306Y-75481195D01*
X125727167Y-75508875D01*
X125755520Y-75517818D01*
X125795173Y-75511576D01*
X125811058Y-75507429D01*
X125860491Y-75497467D01*
X125895248Y-75501947D01*
X125924600Y-75517746D01*
X125951487Y-75538949D01*
X125971290Y-75565614D01*
X125985052Y-75602827D01*
X125993816Y-75655673D01*
X125998626Y-75729237D01*
X126000526Y-75828605D01*
X126000711Y-75888601D01*
X126000711Y-76146526D01*
X126167816Y-76146526D01*
X126167816Y-75327710D01*
X126084264Y-75327710D01*
X126034119Y-75329486D01*
G36*
X124981369Y-76146526D02*
G01*
X125073277Y-76146526D01*
X125126623Y-76144962D01*
X125154407Y-76138485D01*
X125164410Y-76124418D01*
X125165185Y-76114906D01*
X125166872Y-76095832D01*
X125177510Y-76092174D01*
X125205465Y-76103932D01*
X125227205Y-76114906D01*
X125310668Y-76140911D01*
X125401396Y-76142416D01*
X125475158Y-76123021D01*
X125543846Y-76076165D01*
X125596206Y-76007004D01*
X125624878Y-75925427D01*
X125625608Y-75920866D01*
X125629868Y-75871101D01*
X125631986Y-75799659D01*
X125631816Y-75745626D01*
X125449280Y-75745626D01*
X125445051Y-75817441D01*
X125435432Y-75876634D01*
X125422410Y-75910060D01*
X125373144Y-75955740D01*
X125314650Y-75972115D01*
X125254329Y-75958873D01*
X125202783Y-75919373D01*
X125183262Y-75892807D01*
X125171848Y-75861106D01*
X125166502Y-75814832D01*
X125165185Y-75745328D01*
X125167542Y-75676499D01*
X125173767Y-75616026D01*
X125182592Y-75575556D01*
X125184063Y-75571929D01*
X125219653Y-75528802D01*
X125271600Y-75505124D01*
X125329722Y-75501301D01*
X125383840Y-75517738D01*
X125423774Y-75554840D01*
X125427917Y-75562222D01*
X125440884Y-75607239D01*
X125447948Y-75671967D01*
X125449280Y-75745626D01*
X125631816Y-75745626D01*
X125631729Y-75718230D01*
X125630528Y-75674405D01*
X125622355Y-75565988D01*
X125605370Y-75484588D01*
X125577113Y-75424412D01*
X125535128Y-75379666D01*
X125494368Y-75353400D01*
X125437419Y-75334935D01*
X125366589Y-75328602D01*
X125294059Y-75333760D01*
X125232014Y-75349769D01*
X125199232Y-75368920D01*
X125165185Y-75399732D01*
X125165185Y-75010210D01*
X124981369Y-75010210D01*
X124981369Y-76146526D01*
G37*
X124981369Y-76146526D02*
X125073277Y-76146526D01*
X125126623Y-76144962D01*
X125154407Y-76138485D01*
X125164410Y-76124418D01*
X125165185Y-76114906D01*
X125166872Y-76095832D01*
X125177510Y-76092174D01*
X125205465Y-76103932D01*
X125227205Y-76114906D01*
X125310668Y-76140911D01*
X125401396Y-76142416D01*
X125475158Y-76123021D01*
X125543846Y-76076165D01*
X125596206Y-76007004D01*
X125624878Y-75925427D01*
X125625608Y-75920866D01*
X125629868Y-75871101D01*
X125631986Y-75799659D01*
X125631816Y-75745626D01*
X125449280Y-75745626D01*
X125445051Y-75817441D01*
X125435432Y-75876634D01*
X125422410Y-75910060D01*
X125373144Y-75955740D01*
X125314650Y-75972115D01*
X125254329Y-75958873D01*
X125202783Y-75919373D01*
X125183262Y-75892807D01*
X125171848Y-75861106D01*
X125166502Y-75814832D01*
X125165185Y-75745328D01*
X125167542Y-75676499D01*
X125173767Y-75616026D01*
X125182592Y-75575556D01*
X125184063Y-75571929D01*
X125219653Y-75528802D01*
X125271600Y-75505124D01*
X125329722Y-75501301D01*
X125383840Y-75517738D01*
X125423774Y-75554840D01*
X125427917Y-75562222D01*
X125440884Y-75607239D01*
X125447948Y-75671967D01*
X125449280Y-75745626D01*
X125631816Y-75745626D01*
X125631729Y-75718230D01*
X125630528Y-75674405D01*
X125622355Y-75565988D01*
X125605370Y-75484588D01*
X125577113Y-75424412D01*
X125535128Y-75379666D01*
X125494368Y-75353400D01*
X125437419Y-75334935D01*
X125366589Y-75328602D01*
X125294059Y-75333760D01*
X125232014Y-75349769D01*
X125199232Y-75368920D01*
X125165185Y-75399732D01*
X125165185Y-75010210D01*
X124981369Y-75010210D01*
X124981369Y-76146526D01*
G36*
X124339870Y-75331104D02*
G01*
X124273780Y-75336066D01*
X124187374Y-75595079D01*
X124100969Y-75854092D01*
X124073876Y-75762184D01*
X124057572Y-75705384D01*
X124036125Y-75628625D01*
X124012965Y-75544251D01*
X124000720Y-75498993D01*
X123954656Y-75327710D01*
X123764613Y-75327710D01*
X123821418Y-75507349D01*
X123849393Y-75595704D01*
X123883187Y-75702281D01*
X123918480Y-75813454D01*
X123949987Y-75912579D01*
X124021750Y-76138171D01*
X124176714Y-76148253D01*
X124218730Y-76009528D01*
X124244641Y-75923351D01*
X124272917Y-75828347D01*
X124297631Y-75744441D01*
X124298606Y-75741102D01*
X124317065Y-75684248D01*
X124333351Y-75645456D01*
X124344758Y-75630787D01*
X124347102Y-75632483D01*
X124355329Y-75655225D01*
X124370962Y-75703940D01*
X124392096Y-75772502D01*
X124416830Y-75854785D01*
X124430213Y-75900046D01*
X124502689Y-76146526D01*
X124656505Y-76146526D01*
X124779469Y-75758006D01*
X124814012Y-75649022D01*
X124845479Y-75550048D01*
X124872384Y-75465736D01*
X124893241Y-75400734D01*
X124906562Y-75359692D01*
X124910612Y-75347701D01*
X124907406Y-75335423D01*
X124882235Y-75330046D01*
X124829854Y-75330584D01*
X124821655Y-75330990D01*
X124724518Y-75336066D01*
X124660900Y-75570013D01*
X124637516Y-75655333D01*
X124616619Y-75730335D01*
X124600049Y-75788507D01*
X124589646Y-75823337D01*
X124587724Y-75829016D01*
X124579759Y-75822486D01*
X124563696Y-75788654D01*
X124541379Y-75732127D01*
X124514655Y-75657510D01*
X124492063Y-75590107D01*
X124405959Y-75326143D01*
X124339870Y-75331104D01*
G37*
X124339870Y-75331104D02*
X124273780Y-75336066D01*
X124187374Y-75595079D01*
X124100969Y-75854092D01*
X124073876Y-75762184D01*
X124057572Y-75705384D01*
X124036125Y-75628625D01*
X124012965Y-75544251D01*
X124000720Y-75498993D01*
X123954656Y-75327710D01*
X123764613Y-75327710D01*
X123821418Y-75507349D01*
X123849393Y-75595704D01*
X123883187Y-75702281D01*
X123918480Y-75813454D01*
X123949987Y-75912579D01*
X124021750Y-76138171D01*
X124176714Y-76148253D01*
X124218730Y-76009528D01*
X124244641Y-75923351D01*
X124272917Y-75828347D01*
X124297631Y-75744441D01*
X124298606Y-75741102D01*
X124317065Y-75684248D01*
X124333351Y-75645456D01*
X124344758Y-75630787D01*
X124347102Y-75632483D01*
X124355329Y-75655225D01*
X124370962Y-75703940D01*
X124392096Y-75772502D01*
X124416830Y-75854785D01*
X124430213Y-75900046D01*
X124502689Y-76146526D01*
X124656505Y-76146526D01*
X124779469Y-75758006D01*
X124814012Y-75649022D01*
X124845479Y-75550048D01*
X124872384Y-75465736D01*
X124893241Y-75400734D01*
X124906562Y-75359692D01*
X124910612Y-75347701D01*
X124907406Y-75335423D01*
X124882235Y-75330046D01*
X124829854Y-75330584D01*
X124821655Y-75330990D01*
X124724518Y-75336066D01*
X124660900Y-75570013D01*
X124637516Y-75655333D01*
X124616619Y-75730335D01*
X124600049Y-75788507D01*
X124589646Y-75823337D01*
X124587724Y-75829016D01*
X124579759Y-75822486D01*
X124563696Y-75788654D01*
X124541379Y-75732127D01*
X124514655Y-75657510D01*
X124492063Y-75590107D01*
X124405959Y-75326143D01*
X124339870Y-75331104D01*
G36*
X123334008Y-75332673D02*
G01*
X123263573Y-75349780D01*
X123243213Y-75358844D01*
X123203747Y-75382583D01*
X123173459Y-75409321D01*
X123151048Y-75443699D01*
X123135214Y-75490360D01*
X123124657Y-75553946D01*
X123118076Y-75639099D01*
X123114172Y-75750462D01*
X123112690Y-75824849D01*
X123107235Y-76146526D01*
X123200420Y-76146526D01*
X123256953Y-76144156D01*
X123286078Y-76136055D01*
X123293606Y-76122451D01*
X123297580Y-76107741D01*
X123315348Y-76110554D01*
X123339560Y-76122348D01*
X123400172Y-76140427D01*
X123478071Y-76145299D01*
X123560005Y-76137330D01*
X123632719Y-76116889D01*
X123639241Y-76114051D01*
X123705698Y-76067365D01*
X123749509Y-76002464D01*
X123769668Y-75926600D01*
X123768128Y-75899344D01*
X123603655Y-75899344D01*
X123589163Y-75936024D01*
X123546195Y-75962309D01*
X123476871Y-75976417D01*
X123439823Y-75978290D01*
X123378081Y-75973494D01*
X123337040Y-75954858D01*
X123327027Y-75946000D01*
X123299900Y-75897806D01*
X123293606Y-75854092D01*
X123293606Y-75795605D01*
X123375070Y-75795605D01*
X123469766Y-75800432D01*
X123536187Y-75815613D01*
X123578154Y-75842200D01*
X123587551Y-75854052D01*
X123603655Y-75899344D01*
X123768128Y-75899344D01*
X123765171Y-75847026D01*
X123735015Y-75770995D01*
X123693869Y-75719612D01*
X123668948Y-75697397D01*
X123644552Y-75682798D01*
X123612809Y-75673897D01*
X123565848Y-75668775D01*
X123495796Y-75665515D01*
X123468010Y-75664577D01*
X123293606Y-75658879D01*
X123293862Y-75606091D01*
X123300616Y-75550603D01*
X123325036Y-75517052D01*
X123374370Y-75495618D01*
X123375694Y-75495236D01*
X123445640Y-75486808D01*
X123514086Y-75497816D01*
X123564953Y-75524585D01*
X123585363Y-75537803D01*
X123607346Y-75535974D01*
X123641174Y-75516824D01*
X123661039Y-75503308D01*
X123699894Y-75474432D01*
X123723962Y-75452786D01*
X123727824Y-75446589D01*
X123711921Y-75414519D01*
X123664935Y-75376219D01*
X123644527Y-75363297D01*
X123585857Y-75341041D01*
X123506788Y-75328432D01*
X123418959Y-75325600D01*
X123334008Y-75332673D01*
G37*
X123334008Y-75332673D02*
X123263573Y-75349780D01*
X123243213Y-75358844D01*
X123203747Y-75382583D01*
X123173459Y-75409321D01*
X123151048Y-75443699D01*
X123135214Y-75490360D01*
X123124657Y-75553946D01*
X123118076Y-75639099D01*
X123114172Y-75750462D01*
X123112690Y-75824849D01*
X123107235Y-76146526D01*
X123200420Y-76146526D01*
X123256953Y-76144156D01*
X123286078Y-76136055D01*
X123293606Y-76122451D01*
X123297580Y-76107741D01*
X123315348Y-76110554D01*
X123339560Y-76122348D01*
X123400172Y-76140427D01*
X123478071Y-76145299D01*
X123560005Y-76137330D01*
X123632719Y-76116889D01*
X123639241Y-76114051D01*
X123705698Y-76067365D01*
X123749509Y-76002464D01*
X123769668Y-75926600D01*
X123768128Y-75899344D01*
X123603655Y-75899344D01*
X123589163Y-75936024D01*
X123546195Y-75962309D01*
X123476871Y-75976417D01*
X123439823Y-75978290D01*
X123378081Y-75973494D01*
X123337040Y-75954858D01*
X123327027Y-75946000D01*
X123299900Y-75897806D01*
X123293606Y-75854092D01*
X123293606Y-75795605D01*
X123375070Y-75795605D01*
X123469766Y-75800432D01*
X123536187Y-75815613D01*
X123578154Y-75842200D01*
X123587551Y-75854052D01*
X123603655Y-75899344D01*
X123768128Y-75899344D01*
X123765171Y-75847026D01*
X123735015Y-75770995D01*
X123693869Y-75719612D01*
X123668948Y-75697397D01*
X123644552Y-75682798D01*
X123612809Y-75673897D01*
X123565848Y-75668775D01*
X123495796Y-75665515D01*
X123468010Y-75664577D01*
X123293606Y-75658879D01*
X123293862Y-75606091D01*
X123300616Y-75550603D01*
X123325036Y-75517052D01*
X123374370Y-75495618D01*
X123375694Y-75495236D01*
X123445640Y-75486808D01*
X123514086Y-75497816D01*
X123564953Y-75524585D01*
X123585363Y-75537803D01*
X123607346Y-75535974D01*
X123641174Y-75516824D01*
X123661039Y-75503308D01*
X123699894Y-75474432D01*
X123723962Y-75452786D01*
X123727824Y-75446589D01*
X123711921Y-75414519D01*
X123664935Y-75376219D01*
X123644527Y-75363297D01*
X123585857Y-75341041D01*
X123506788Y-75328432D01*
X123418959Y-75325600D01*
X123334008Y-75332673D01*
G36*
X122540833Y-75327447D02*
G01*
X122476592Y-75340112D01*
X122440020Y-75358864D01*
X122401547Y-75390017D01*
X122456283Y-75459127D01*
X122490031Y-75500979D01*
X122512947Y-75521398D01*
X122535721Y-75524517D01*
X122569044Y-75514472D01*
X122584686Y-75508789D01*
X122648458Y-75500404D01*
X122706860Y-75518378D01*
X122749736Y-75558982D01*
X122756701Y-75571929D01*
X122764287Y-75606224D01*
X122770141Y-75669427D01*
X122773989Y-75757060D01*
X122775557Y-75864640D01*
X122775579Y-75879944D01*
X122775579Y-76146526D01*
X122959395Y-76146526D01*
X122959395Y-75327710D01*
X122867487Y-75327710D01*
X122814493Y-75329094D01*
X122786885Y-75335252D01*
X122776676Y-75349194D01*
X122775579Y-75362344D01*
X122775579Y-75396978D01*
X122731550Y-75362344D01*
X122681063Y-75338716D01*
X122613240Y-75327033D01*
X122540833Y-75327447D01*
G37*
X122540833Y-75327447D02*
X122476592Y-75340112D01*
X122440020Y-75358864D01*
X122401547Y-75390017D01*
X122456283Y-75459127D01*
X122490031Y-75500979D01*
X122512947Y-75521398D01*
X122535721Y-75524517D01*
X122569044Y-75514472D01*
X122584686Y-75508789D01*
X122648458Y-75500404D01*
X122706860Y-75518378D01*
X122749736Y-75558982D01*
X122756701Y-75571929D01*
X122764287Y-75606224D01*
X122770141Y-75669427D01*
X122773989Y-75757060D01*
X122775557Y-75864640D01*
X122775579Y-75879944D01*
X122775579Y-76146526D01*
X122959395Y-76146526D01*
X122959395Y-75327710D01*
X122867487Y-75327710D01*
X122814493Y-75329094D01*
X122786885Y-75335252D01*
X122776676Y-75349194D01*
X122775579Y-75362344D01*
X122775579Y-75396978D01*
X122731550Y-75362344D01*
X122681063Y-75338716D01*
X122613240Y-75327033D01*
X122540833Y-75327447D01*
G36*
X122012807Y-75332078D02*
G01*
X121932932Y-75352845D01*
X121866038Y-75395705D01*
X121833649Y-75427723D01*
X121780555Y-75503413D01*
X121750127Y-75591216D01*
X121739673Y-75699150D01*
X121739620Y-75707875D01*
X121739527Y-75795605D01*
X122244466Y-75795605D01*
X122233702Y-75841559D01*
X122214268Y-75883178D01*
X122180255Y-75926544D01*
X122173140Y-75933467D01*
X122111997Y-75970935D01*
X122042271Y-75977289D01*
X121962013Y-75952638D01*
X121948408Y-75946000D01*
X121906681Y-75925819D01*
X121878732Y-75914321D01*
X121873855Y-75913258D01*
X121856832Y-75923583D01*
X121824367Y-75948845D01*
X121807886Y-75962650D01*
X121773736Y-75994361D01*
X121762522Y-76015299D01*
X121770305Y-76034560D01*
X121774465Y-76039827D01*
X121802643Y-76062878D01*
X121849138Y-76090892D01*
X121881566Y-76107246D01*
X121973615Y-76136059D01*
X122075524Y-76145395D01*
X122172037Y-76134332D01*
X122199066Y-76126412D01*
X122282724Y-76081581D01*
X122344734Y-76012598D01*
X122385455Y-75918794D01*
X122405245Y-75799498D01*
X122407418Y-75737118D01*
X122401074Y-75646298D01*
X122240843Y-75646298D01*
X122225345Y-75653012D01*
X122183688Y-75658280D01*
X122123124Y-75661389D01*
X122082093Y-75661921D01*
X122008289Y-75661408D01*
X121961707Y-75659006D01*
X121936152Y-75653422D01*
X121925431Y-75643361D01*
X121923343Y-75628763D01*
X121937669Y-75583796D01*
X121973738Y-75539353D01*
X122021185Y-75505242D01*
X122068651Y-75491288D01*
X122133121Y-75503666D01*
X122188930Y-75539452D01*
X122227626Y-75591033D01*
X122240843Y-75646298D01*
X122401074Y-75646298D01*
X122398179Y-75604866D01*
X122369664Y-75499498D01*
X122321271Y-75420178D01*
X122252396Y-75366071D01*
X122162435Y-75336343D01*
X122113700Y-75330618D01*
X122012807Y-75332078D01*
G37*
X122012807Y-75332078D02*
X121932932Y-75352845D01*
X121866038Y-75395705D01*
X121833649Y-75427723D01*
X121780555Y-75503413D01*
X121750127Y-75591216D01*
X121739673Y-75699150D01*
X121739620Y-75707875D01*
X121739527Y-75795605D01*
X122244466Y-75795605D01*
X122233702Y-75841559D01*
X122214268Y-75883178D01*
X122180255Y-75926544D01*
X122173140Y-75933467D01*
X122111997Y-75970935D01*
X122042271Y-75977289D01*
X121962013Y-75952638D01*
X121948408Y-75946000D01*
X121906681Y-75925819D01*
X121878732Y-75914321D01*
X121873855Y-75913258D01*
X121856832Y-75923583D01*
X121824367Y-75948845D01*
X121807886Y-75962650D01*
X121773736Y-75994361D01*
X121762522Y-76015299D01*
X121770305Y-76034560D01*
X121774465Y-76039827D01*
X121802643Y-76062878D01*
X121849138Y-76090892D01*
X121881566Y-76107246D01*
X121973615Y-76136059D01*
X122075524Y-76145395D01*
X122172037Y-76134332D01*
X122199066Y-76126412D01*
X122282724Y-76081581D01*
X122344734Y-76012598D01*
X122385455Y-75918794D01*
X122405245Y-75799498D01*
X122407418Y-75737118D01*
X122401074Y-75646298D01*
X122240843Y-75646298D01*
X122225345Y-75653012D01*
X122183688Y-75658280D01*
X122123124Y-75661389D01*
X122082093Y-75661921D01*
X122008289Y-75661408D01*
X121961707Y-75659006D01*
X121936152Y-75653422D01*
X121925431Y-75643361D01*
X121923343Y-75628763D01*
X121937669Y-75583796D01*
X121973738Y-75539353D01*
X122021185Y-75505242D01*
X122068651Y-75491288D01*
X122133121Y-75503666D01*
X122188930Y-75539452D01*
X122227626Y-75591033D01*
X122240843Y-75646298D01*
X122401074Y-75646298D01*
X122398179Y-75604866D01*
X122369664Y-75499498D01*
X122321271Y-75420178D01*
X122252396Y-75366071D01*
X122162435Y-75336343D01*
X122113700Y-75330618D01*
X122012807Y-75332078D01*
G36*
X128087216Y-74083104D02*
G01*
X127999795Y-74121754D01*
X127933430Y-74186290D01*
X127888024Y-74276812D01*
X127863482Y-74393418D01*
X127861723Y-74411624D01*
X127860344Y-74539984D01*
X127878216Y-74652496D01*
X127914250Y-74743688D01*
X127933545Y-74773022D01*
X128000755Y-74835106D01*
X128086350Y-74875316D01*
X128182110Y-74892003D01*
X128279813Y-74883517D01*
X128354083Y-74857380D01*
X128417953Y-74813335D01*
X128470154Y-74755587D01*
X128471057Y-74754236D01*
X128492256Y-74718593D01*
X128506033Y-74682752D01*
X128514376Y-74637519D01*
X128519273Y-74573701D01*
X128521431Y-74521368D01*
X128522329Y-74473910D01*
X128355257Y-74473910D01*
X128353624Y-74521154D01*
X128347696Y-74584046D01*
X128337239Y-74624407D01*
X128318381Y-74653122D01*
X128300719Y-74669896D01*
X128238106Y-74705016D01*
X128172592Y-74709710D01*
X128111579Y-74684440D01*
X128081072Y-74656124D01*
X128059089Y-74627589D01*
X128046231Y-74600284D01*
X128040588Y-74564750D01*
X128040249Y-74511524D01*
X128041988Y-74462506D01*
X128045729Y-74392482D01*
X128051659Y-74347064D01*
X128062347Y-74317440D01*
X128080361Y-74294797D01*
X128094637Y-74281855D01*
X128154349Y-74247860D01*
X128218766Y-74246165D01*
X128272781Y-74266301D01*
X128318860Y-74308352D01*
X128346311Y-74377428D01*
X128355257Y-74473910D01*
X128522329Y-74473910D01*
X128523401Y-74417299D01*
X128520036Y-74339468D01*
X128509955Y-74280930D01*
X128491774Y-74234737D01*
X128464110Y-74193942D01*
X128453854Y-74181828D01*
X128389722Y-74121474D01*
X128320934Y-74086220D01*
X128236811Y-74071450D01*
X128195791Y-74070243D01*
X128087216Y-74083104D01*
G37*
X128087216Y-74083104D02*
X127999795Y-74121754D01*
X127933430Y-74186290D01*
X127888024Y-74276812D01*
X127863482Y-74393418D01*
X127861723Y-74411624D01*
X127860344Y-74539984D01*
X127878216Y-74652496D01*
X127914250Y-74743688D01*
X127933545Y-74773022D01*
X128000755Y-74835106D01*
X128086350Y-74875316D01*
X128182110Y-74892003D01*
X128279813Y-74883517D01*
X128354083Y-74857380D01*
X128417953Y-74813335D01*
X128470154Y-74755587D01*
X128471057Y-74754236D01*
X128492256Y-74718593D01*
X128506033Y-74682752D01*
X128514376Y-74637519D01*
X128519273Y-74573701D01*
X128521431Y-74521368D01*
X128522329Y-74473910D01*
X128355257Y-74473910D01*
X128353624Y-74521154D01*
X128347696Y-74584046D01*
X128337239Y-74624407D01*
X128318381Y-74653122D01*
X128300719Y-74669896D01*
X128238106Y-74705016D01*
X128172592Y-74709710D01*
X128111579Y-74684440D01*
X128081072Y-74656124D01*
X128059089Y-74627589D01*
X128046231Y-74600284D01*
X128040588Y-74564750D01*
X128040249Y-74511524D01*
X128041988Y-74462506D01*
X128045729Y-74392482D01*
X128051659Y-74347064D01*
X128062347Y-74317440D01*
X128080361Y-74294797D01*
X128094637Y-74281855D01*
X128154349Y-74247860D01*
X128218766Y-74246165D01*
X128272781Y-74266301D01*
X128318860Y-74308352D01*
X128346311Y-74377428D01*
X128355257Y-74473910D01*
X128522329Y-74473910D01*
X128523401Y-74417299D01*
X128520036Y-74339468D01*
X128509955Y-74280930D01*
X128491774Y-74234737D01*
X128464110Y-74193942D01*
X128453854Y-74181828D01*
X128389722Y-74121474D01*
X128320934Y-74086220D01*
X128236811Y-74071450D01*
X128195791Y-74070243D01*
X128087216Y-74083104D01*
G36*
X126516982Y-74093027D02*
G01*
X126500330Y-74100866D01*
X126442695Y-74143086D01*
X126388195Y-74204700D01*
X126347501Y-74272543D01*
X126335926Y-74303734D01*
X126325366Y-74359449D01*
X126319069Y-74426781D01*
X126318304Y-74454585D01*
X126318211Y-74542316D01*
X126823150Y-74542316D01*
X126812387Y-74588270D01*
X126785967Y-74642620D01*
X126739778Y-74689591D01*
X126684828Y-74719848D01*
X126649811Y-74726131D01*
X126602323Y-74718506D01*
X126545665Y-74699383D01*
X126526418Y-74690584D01*
X126455241Y-74655036D01*
X126394498Y-74701367D01*
X126359448Y-74732703D01*
X126340798Y-74758567D01*
X126339853Y-74766158D01*
X126356515Y-74784556D01*
X126393030Y-74812515D01*
X126426172Y-74834327D01*
X126515607Y-74873537D01*
X126615871Y-74891285D01*
X126715246Y-74886670D01*
X126794461Y-74862551D01*
X126876120Y-74810884D01*
X126934151Y-74742856D01*
X126970454Y-74654843D01*
X126986928Y-74543216D01*
X126988389Y-74492138D01*
X126982543Y-74375091D01*
X126981825Y-74371686D01*
X126814511Y-74371686D01*
X126809903Y-74382662D01*
X126790964Y-74388715D01*
X126751902Y-74391310D01*
X126686923Y-74391910D01*
X126661903Y-74391921D01*
X126585779Y-74391014D01*
X126537504Y-74387720D01*
X126511540Y-74381181D01*
X126502352Y-74370537D01*
X126502027Y-74367119D01*
X126512513Y-74339956D01*
X126538758Y-74301903D01*
X126550041Y-74288579D01*
X126591928Y-74250896D01*
X126635591Y-74236080D01*
X126659115Y-74234842D01*
X126722757Y-74250329D01*
X126776127Y-74291930D01*
X126809981Y-74352353D01*
X126810581Y-74354322D01*
X126814511Y-74371686D01*
X126981825Y-74371686D01*
X126963101Y-74282928D01*
X126928078Y-74209190D01*
X126885244Y-74156848D01*
X126806052Y-74100092D01*
X126712960Y-74069762D01*
X126613945Y-74067021D01*
X126516982Y-74093027D01*
G37*
X126516982Y-74093027D02*
X126500330Y-74100866D01*
X126442695Y-74143086D01*
X126388195Y-74204700D01*
X126347501Y-74272543D01*
X126335926Y-74303734D01*
X126325366Y-74359449D01*
X126319069Y-74426781D01*
X126318304Y-74454585D01*
X126318211Y-74542316D01*
X126823150Y-74542316D01*
X126812387Y-74588270D01*
X126785967Y-74642620D01*
X126739778Y-74689591D01*
X126684828Y-74719848D01*
X126649811Y-74726131D01*
X126602323Y-74718506D01*
X126545665Y-74699383D01*
X126526418Y-74690584D01*
X126455241Y-74655036D01*
X126394498Y-74701367D01*
X126359448Y-74732703D01*
X126340798Y-74758567D01*
X126339853Y-74766158D01*
X126356515Y-74784556D01*
X126393030Y-74812515D01*
X126426172Y-74834327D01*
X126515607Y-74873537D01*
X126615871Y-74891285D01*
X126715246Y-74886670D01*
X126794461Y-74862551D01*
X126876120Y-74810884D01*
X126934151Y-74742856D01*
X126970454Y-74654843D01*
X126986928Y-74543216D01*
X126988389Y-74492138D01*
X126982543Y-74375091D01*
X126981825Y-74371686D01*
X126814511Y-74371686D01*
X126809903Y-74382662D01*
X126790964Y-74388715D01*
X126751902Y-74391310D01*
X126686923Y-74391910D01*
X126661903Y-74391921D01*
X126585779Y-74391014D01*
X126537504Y-74387720D01*
X126511540Y-74381181D01*
X126502352Y-74370537D01*
X126502027Y-74367119D01*
X126512513Y-74339956D01*
X126538758Y-74301903D01*
X126550041Y-74288579D01*
X126591928Y-74250896D01*
X126635591Y-74236080D01*
X126659115Y-74234842D01*
X126722757Y-74250329D01*
X126776127Y-74291930D01*
X126809981Y-74352353D01*
X126810581Y-74354322D01*
X126814511Y-74371686D01*
X126981825Y-74371686D01*
X126963101Y-74282928D01*
X126928078Y-74209190D01*
X126885244Y-74156848D01*
X126806052Y-74100092D01*
X126712960Y-74069762D01*
X126613945Y-74067021D01*
X126516982Y-74093027D01*
G36*
X124695372Y-74071547D02*
G01*
X124632092Y-74083548D01*
X124566443Y-74108648D01*
X124559428Y-74111848D01*
X124509644Y-74138026D01*
X124475166Y-74162353D01*
X124464022Y-74177937D01*
X124474634Y-74203353D01*
X124500412Y-74240853D01*
X124511854Y-74254852D01*
X124559008Y-74309954D01*
X124619799Y-74274086D01*
X124677653Y-74250192D01*
X124744500Y-74237420D01*
X124808606Y-74236613D01*
X124858236Y-74248615D01*
X124870146Y-74256105D01*
X124892828Y-74290450D01*
X124895584Y-74330013D01*
X124878612Y-74360920D01*
X124868573Y-74366913D01*
X124838490Y-74374357D01*
X124785611Y-74383106D01*
X124720425Y-74391467D01*
X124708400Y-74392778D01*
X124603703Y-74410888D01*
X124527768Y-74441651D01*
X124477408Y-74487907D01*
X124449436Y-74552497D01*
X124440722Y-74631387D01*
X124452760Y-74721065D01*
X124491849Y-74791486D01*
X124558145Y-74842777D01*
X124651806Y-74875067D01*
X124755777Y-74887807D01*
X124840562Y-74887654D01*
X124909335Y-74876083D01*
X124956303Y-74860109D01*
X125015650Y-74832275D01*
X125070494Y-74799973D01*
X125089987Y-74785755D01*
X125140119Y-74744835D01*
X125019197Y-74622477D01*
X124950457Y-74667967D01*
X124881512Y-74702133D01*
X124807889Y-74720004D01*
X124737117Y-74721889D01*
X124676726Y-74708101D01*
X124634243Y-74678949D01*
X124620526Y-74654352D01*
X124622583Y-74614904D01*
X124656670Y-74584737D01*
X124722692Y-74563906D01*
X124795026Y-74554279D01*
X124906348Y-74535910D01*
X124989048Y-74501254D01*
X125044235Y-74449297D01*
X125073012Y-74379023D01*
X125076999Y-74295707D01*
X125057307Y-74208681D01*
X125012411Y-74142902D01*
X124941909Y-74098068D01*
X124845399Y-74073879D01*
X124773900Y-74069137D01*
X124695372Y-74071547D01*
G37*
X124695372Y-74071547D02*
X124632092Y-74083548D01*
X124566443Y-74108648D01*
X124559428Y-74111848D01*
X124509644Y-74138026D01*
X124475166Y-74162353D01*
X124464022Y-74177937D01*
X124474634Y-74203353D01*
X124500412Y-74240853D01*
X124511854Y-74254852D01*
X124559008Y-74309954D01*
X124619799Y-74274086D01*
X124677653Y-74250192D01*
X124744500Y-74237420D01*
X124808606Y-74236613D01*
X124858236Y-74248615D01*
X124870146Y-74256105D01*
X124892828Y-74290450D01*
X124895584Y-74330013D01*
X124878612Y-74360920D01*
X124868573Y-74366913D01*
X124838490Y-74374357D01*
X124785611Y-74383106D01*
X124720425Y-74391467D01*
X124708400Y-74392778D01*
X124603703Y-74410888D01*
X124527768Y-74441651D01*
X124477408Y-74487907D01*
X124449436Y-74552497D01*
X124440722Y-74631387D01*
X124452760Y-74721065D01*
X124491849Y-74791486D01*
X124558145Y-74842777D01*
X124651806Y-74875067D01*
X124755777Y-74887807D01*
X124840562Y-74887654D01*
X124909335Y-74876083D01*
X124956303Y-74860109D01*
X125015650Y-74832275D01*
X125070494Y-74799973D01*
X125089987Y-74785755D01*
X125140119Y-74744835D01*
X125019197Y-74622477D01*
X124950457Y-74667967D01*
X124881512Y-74702133D01*
X124807889Y-74720004D01*
X124737117Y-74721889D01*
X124676726Y-74708101D01*
X124634243Y-74678949D01*
X124620526Y-74654352D01*
X124622583Y-74614904D01*
X124656670Y-74584737D01*
X124722692Y-74563906D01*
X124795026Y-74554279D01*
X124906348Y-74535910D01*
X124989048Y-74501254D01*
X125044235Y-74449297D01*
X125073012Y-74379023D01*
X125076999Y-74295707D01*
X125057307Y-74208681D01*
X125012411Y-74142902D01*
X124941909Y-74098068D01*
X124845399Y-74073879D01*
X124773900Y-74069137D01*
X124695372Y-74071547D01*
G36*
X123902331Y-74084310D02*
G01*
X123817808Y-74130340D01*
X123751679Y-74203006D01*
X123720522Y-74262106D01*
X123707145Y-74314305D01*
X123698478Y-74388719D01*
X123694763Y-74474442D01*
X123696246Y-74560569D01*
X123703169Y-74636193D01*
X123711255Y-74676584D01*
X123738535Y-74731840D01*
X123785780Y-74790530D01*
X123842718Y-74841852D01*
X123899076Y-74875005D01*
X123900450Y-74875531D01*
X123970384Y-74890018D01*
X124053263Y-74890377D01*
X124132023Y-74877188D01*
X124162434Y-74866617D01*
X124240761Y-74822201D01*
X124296857Y-74764007D01*
X124333714Y-74686965D01*
X124354320Y-74586001D01*
X124358982Y-74533116D01*
X124358387Y-74466663D01*
X124179264Y-74466663D01*
X124173230Y-74563630D01*
X124155862Y-74637523D01*
X124128260Y-74684736D01*
X124108596Y-74698237D01*
X124058213Y-74707651D01*
X123998327Y-74704864D01*
X123946551Y-74691316D01*
X123932973Y-74683862D01*
X123897151Y-74640451D01*
X123873507Y-74574014D01*
X123863442Y-74493161D01*
X123868358Y-74406502D01*
X123879345Y-74354349D01*
X123910891Y-74293951D01*
X123960689Y-74256197D01*
X124020663Y-74243143D01*
X124082736Y-74256849D01*
X124130418Y-74290372D01*
X124155475Y-74318031D01*
X124170100Y-74345294D01*
X124177071Y-74382190D01*
X124179167Y-74438750D01*
X124179264Y-74466663D01*
X124358387Y-74466663D01*
X124357718Y-74391994D01*
X124334735Y-74276271D01*
X124290028Y-74185941D01*
X124223595Y-74121000D01*
X124135435Y-74081445D01*
X124116505Y-74076858D01*
X124002734Y-74066090D01*
X123902331Y-74084310D01*
G37*
X123902331Y-74084310D02*
X123817808Y-74130340D01*
X123751679Y-74203006D01*
X123720522Y-74262106D01*
X123707145Y-74314305D01*
X123698478Y-74388719D01*
X123694763Y-74474442D01*
X123696246Y-74560569D01*
X123703169Y-74636193D01*
X123711255Y-74676584D01*
X123738535Y-74731840D01*
X123785780Y-74790530D01*
X123842718Y-74841852D01*
X123899076Y-74875005D01*
X123900450Y-74875531D01*
X123970384Y-74890018D01*
X124053263Y-74890377D01*
X124132023Y-74877188D01*
X124162434Y-74866617D01*
X124240761Y-74822201D01*
X124296857Y-74764007D01*
X124333714Y-74686965D01*
X124354320Y-74586001D01*
X124358982Y-74533116D01*
X124358387Y-74466663D01*
X124179264Y-74466663D01*
X124173230Y-74563630D01*
X124155862Y-74637523D01*
X124128260Y-74684736D01*
X124108596Y-74698237D01*
X124058213Y-74707651D01*
X123998327Y-74704864D01*
X123946551Y-74691316D01*
X123932973Y-74683862D01*
X123897151Y-74640451D01*
X123873507Y-74574014D01*
X123863442Y-74493161D01*
X123868358Y-74406502D01*
X123879345Y-74354349D01*
X123910891Y-74293951D01*
X123960689Y-74256197D01*
X124020663Y-74243143D01*
X124082736Y-74256849D01*
X124130418Y-74290372D01*
X124155475Y-74318031D01*
X124170100Y-74345294D01*
X124177071Y-74382190D01*
X124179167Y-74438750D01*
X124179264Y-74466663D01*
X124358387Y-74466663D01*
X124357718Y-74391994D01*
X124334735Y-74276271D01*
X124290028Y-74185941D01*
X124223595Y-74121000D01*
X124135435Y-74081445D01*
X124116505Y-74076858D01*
X124002734Y-74066090D01*
X123902331Y-74084310D01*
G36*
X123393869Y-74334533D02*
G01*
X123392290Y-74457089D01*
X123386519Y-74550179D01*
X123375009Y-74617651D01*
X123356210Y-74663355D01*
X123328574Y-74691139D01*
X123290552Y-74704854D01*
X123243474Y-74708358D01*
X123194168Y-74704432D01*
X123156717Y-74690089D01*
X123129572Y-74661478D01*
X123111185Y-74614751D01*
X123100007Y-74546058D01*
X123094489Y-74451550D01*
X123093079Y-74334533D01*
X123093079Y-74074421D01*
X122909264Y-74074421D01*
X122909264Y-74876526D01*
X123001172Y-74876526D01*
X123056578Y-74874281D01*
X123085109Y-74866396D01*
X123093079Y-74851428D01*
X123097880Y-74838097D01*
X123116986Y-74840917D01*
X123155496Y-74859783D01*
X123243761Y-74888887D01*
X123337377Y-74886825D01*
X123427079Y-74855221D01*
X123469796Y-74830257D01*
X123502379Y-74803226D01*
X123526183Y-74769405D01*
X123542561Y-74724068D01*
X123552869Y-74662489D01*
X123558459Y-74579943D01*
X123560688Y-74471705D01*
X123560974Y-74388004D01*
X123560974Y-74074421D01*
X123393869Y-74074421D01*
X123393869Y-74334533D01*
G37*
X123393869Y-74334533D02*
X123392290Y-74457089D01*
X123386519Y-74550179D01*
X123375009Y-74617651D01*
X123356210Y-74663355D01*
X123328574Y-74691139D01*
X123290552Y-74704854D01*
X123243474Y-74708358D01*
X123194168Y-74704432D01*
X123156717Y-74690089D01*
X123129572Y-74661478D01*
X123111185Y-74614751D01*
X123100007Y-74546058D01*
X123094489Y-74451550D01*
X123093079Y-74334533D01*
X123093079Y-74074421D01*
X122909264Y-74074421D01*
X122909264Y-74876526D01*
X123001172Y-74876526D01*
X123056578Y-74874281D01*
X123085109Y-74866396D01*
X123093079Y-74851428D01*
X123097880Y-74838097D01*
X123116986Y-74840917D01*
X123155496Y-74859783D01*
X123243761Y-74888887D01*
X123337377Y-74886825D01*
X123427079Y-74855221D01*
X123469796Y-74830257D01*
X123502379Y-74803226D01*
X123526183Y-74769405D01*
X123542561Y-74724068D01*
X123552869Y-74662489D01*
X123558459Y-74579943D01*
X123560688Y-74471705D01*
X123560974Y-74388004D01*
X123560974Y-74074421D01*
X123393869Y-74074421D01*
X123393869Y-74334533D01*
G36*
X121767424Y-74081419D02*
G01*
X121670605Y-74122549D01*
X121640110Y-74142571D01*
X121601135Y-74173340D01*
X121576669Y-74197533D01*
X121572422Y-74205413D01*
X121584416Y-74222899D01*
X121615113Y-74252570D01*
X121639688Y-74273279D01*
X121706954Y-74327336D01*
X121760070Y-74282642D01*
X121801116Y-74253789D01*
X121841137Y-74243829D01*
X121886941Y-74246261D01*
X121959676Y-74264345D01*
X122009744Y-74301881D01*
X122040171Y-74362562D01*
X122053983Y-74450081D01*
X122053987Y-74450136D01*
X122052792Y-74547958D01*
X122034228Y-74619730D01*
X121997196Y-74668595D01*
X121971950Y-74685143D01*
X121904903Y-74705749D01*
X121833291Y-74705762D01*
X121770985Y-74685768D01*
X121756237Y-74676000D01*
X121719250Y-74651047D01*
X121690332Y-74646958D01*
X121659144Y-74665530D01*
X121624664Y-74698887D01*
X121570088Y-74755196D01*
X121630682Y-74805142D01*
X121724302Y-74861513D01*
X121829875Y-74889293D01*
X121940202Y-74887282D01*
X122012657Y-74868862D01*
X122097344Y-74823310D01*
X122165073Y-74751650D01*
X122195843Y-74701066D01*
X122220764Y-74628488D01*
X122233234Y-74536569D01*
X122233330Y-74436948D01*
X122221130Y-74341267D01*
X122196710Y-74261169D01*
X122192864Y-74252956D01*
X122135907Y-74172413D01*
X122058791Y-74113771D01*
X121967610Y-74078247D01*
X121868457Y-74067057D01*
X121767424Y-74081419D01*
G37*
X121767424Y-74081419D02*
X121670605Y-74122549D01*
X121640110Y-74142571D01*
X121601135Y-74173340D01*
X121576669Y-74197533D01*
X121572422Y-74205413D01*
X121584416Y-74222899D01*
X121615113Y-74252570D01*
X121639688Y-74273279D01*
X121706954Y-74327336D01*
X121760070Y-74282642D01*
X121801116Y-74253789D01*
X121841137Y-74243829D01*
X121886941Y-74246261D01*
X121959676Y-74264345D01*
X122009744Y-74301881D01*
X122040171Y-74362562D01*
X122053983Y-74450081D01*
X122053987Y-74450136D01*
X122052792Y-74547958D01*
X122034228Y-74619730D01*
X121997196Y-74668595D01*
X121971950Y-74685143D01*
X121904903Y-74705749D01*
X121833291Y-74705762D01*
X121770985Y-74685768D01*
X121756237Y-74676000D01*
X121719250Y-74651047D01*
X121690332Y-74646958D01*
X121659144Y-74665530D01*
X121624664Y-74698887D01*
X121570088Y-74755196D01*
X121630682Y-74805142D01*
X121724302Y-74861513D01*
X121829875Y-74889293D01*
X121940202Y-74887282D01*
X122012657Y-74868862D01*
X122097344Y-74823310D01*
X122165073Y-74751650D01*
X122195843Y-74701066D01*
X122220764Y-74628488D01*
X122233234Y-74536569D01*
X122233330Y-74436948D01*
X122221130Y-74341267D01*
X122196710Y-74261169D01*
X122192864Y-74252956D01*
X122135907Y-74172413D01*
X122058791Y-74113771D01*
X121967610Y-74078247D01*
X121868457Y-74067057D01*
X121767424Y-74081419D01*
G36*
X121155216Y-74071554D02*
G01*
X121112426Y-74081949D01*
X121030391Y-74120013D01*
X120960243Y-74178149D01*
X120911695Y-74247852D01*
X120905025Y-74263502D01*
X120895876Y-74304496D01*
X120889471Y-74365138D01*
X120887290Y-74426430D01*
X120887290Y-74542316D01*
X121129593Y-74542316D01*
X121229529Y-74542693D01*
X121299931Y-74544987D01*
X121344687Y-74550938D01*
X121367685Y-74562285D01*
X121372811Y-74580771D01*
X121363952Y-74608136D01*
X121348083Y-74640155D01*
X121303816Y-74693592D01*
X121242301Y-74720215D01*
X121167115Y-74719347D01*
X121081947Y-74690371D01*
X121008341Y-74654611D01*
X120947266Y-74702904D01*
X120886190Y-74751197D01*
X120943649Y-74804285D01*
X121020359Y-74854445D01*
X121114698Y-74884688D01*
X121216173Y-74893151D01*
X121314289Y-74877974D01*
X121330119Y-74872824D01*
X121416353Y-74827791D01*
X121480499Y-74760652D01*
X121523909Y-74669405D01*
X121547936Y-74552044D01*
X121548216Y-74549529D01*
X121550367Y-74421627D01*
X121541671Y-74375997D01*
X121371895Y-74375997D01*
X121356303Y-74383013D01*
X121313971Y-74388388D01*
X121251566Y-74391457D01*
X121212019Y-74391921D01*
X121138272Y-74391630D01*
X121092160Y-74389783D01*
X121067900Y-74384912D01*
X121059706Y-74375555D01*
X121061794Y-74360245D01*
X121063545Y-74354322D01*
X121093440Y-74298668D01*
X121140458Y-74253815D01*
X121181951Y-74234105D01*
X121237074Y-74235295D01*
X121292932Y-74259875D01*
X121339788Y-74300570D01*
X121367906Y-74350108D01*
X121371895Y-74375997D01*
X121541671Y-74375997D01*
X121528926Y-74309133D01*
X121486389Y-74214727D01*
X121425253Y-74141088D01*
X121348015Y-74090893D01*
X121257170Y-74066822D01*
X121155216Y-74071554D01*
G37*
X121155216Y-74071554D02*
X121112426Y-74081949D01*
X121030391Y-74120013D01*
X120960243Y-74178149D01*
X120911695Y-74247852D01*
X120905025Y-74263502D01*
X120895876Y-74304496D01*
X120889471Y-74365138D01*
X120887290Y-74426430D01*
X120887290Y-74542316D01*
X121129593Y-74542316D01*
X121229529Y-74542693D01*
X121299931Y-74544987D01*
X121344687Y-74550938D01*
X121367685Y-74562285D01*
X121372811Y-74580771D01*
X121363952Y-74608136D01*
X121348083Y-74640155D01*
X121303816Y-74693592D01*
X121242301Y-74720215D01*
X121167115Y-74719347D01*
X121081947Y-74690371D01*
X121008341Y-74654611D01*
X120947266Y-74702904D01*
X120886190Y-74751197D01*
X120943649Y-74804285D01*
X121020359Y-74854445D01*
X121114698Y-74884688D01*
X121216173Y-74893151D01*
X121314289Y-74877974D01*
X121330119Y-74872824D01*
X121416353Y-74827791D01*
X121480499Y-74760652D01*
X121523909Y-74669405D01*
X121547936Y-74552044D01*
X121548216Y-74549529D01*
X121550367Y-74421627D01*
X121541671Y-74375997D01*
X121371895Y-74375997D01*
X121356303Y-74383013D01*
X121313971Y-74388388D01*
X121251566Y-74391457D01*
X121212019Y-74391921D01*
X121138272Y-74391630D01*
X121092160Y-74389783D01*
X121067900Y-74384912D01*
X121059706Y-74375555D01*
X121061794Y-74360245D01*
X121063545Y-74354322D01*
X121093440Y-74298668D01*
X121140458Y-74253815D01*
X121181951Y-74234105D01*
X121237074Y-74235295D01*
X121292932Y-74259875D01*
X121339788Y-74300570D01*
X121367906Y-74350108D01*
X121371895Y-74375997D01*
X121541671Y-74375997D01*
X121528926Y-74309133D01*
X121486389Y-74214727D01*
X121425253Y-74141088D01*
X121348015Y-74090893D01*
X121257170Y-74066822D01*
X121155216Y-74071554D01*
G36*
X125716043Y-74088226D02*
G01*
X125674454Y-74108090D01*
X125634175Y-74136784D01*
X125603490Y-74169809D01*
X125581139Y-74211931D01*
X125565864Y-74267915D01*
X125556408Y-74342528D01*
X125551513Y-74440535D01*
X125549919Y-74566702D01*
X125549894Y-74579914D01*
X125549527Y-74876526D01*
X125733343Y-74876526D01*
X125733343Y-74603081D01*
X125733473Y-74501777D01*
X125734379Y-74428353D01*
X125736827Y-74377271D01*
X125741586Y-74342990D01*
X125749426Y-74319971D01*
X125761115Y-74302673D01*
X125777398Y-74285581D01*
X125834366Y-74248857D01*
X125896555Y-74242042D01*
X125955801Y-74265261D01*
X125976405Y-74282543D01*
X125991530Y-74298791D01*
X126002390Y-74316191D01*
X126009690Y-74340212D01*
X126014137Y-74376322D01*
X126016436Y-74429988D01*
X126017296Y-74506680D01*
X126017422Y-74600043D01*
X126017422Y-74876526D01*
X126201237Y-74876526D01*
X126201237Y-74074421D01*
X126109329Y-74074421D01*
X126054149Y-74076603D01*
X126025680Y-74084351D01*
X126017425Y-74099468D01*
X126017422Y-74099916D01*
X126013592Y-74114720D01*
X125996699Y-74113040D01*
X125963112Y-74096773D01*
X125886937Y-74072840D01*
X125799800Y-74070178D01*
X125716043Y-74088226D01*
G37*
X125716043Y-74088226D02*
X125674454Y-74108090D01*
X125634175Y-74136784D01*
X125603490Y-74169809D01*
X125581139Y-74211931D01*
X125565864Y-74267915D01*
X125556408Y-74342528D01*
X125551513Y-74440535D01*
X125549919Y-74566702D01*
X125549894Y-74579914D01*
X125549527Y-74876526D01*
X125733343Y-74876526D01*
X125733343Y-74603081D01*
X125733473Y-74501777D01*
X125734379Y-74428353D01*
X125736827Y-74377271D01*
X125741586Y-74342990D01*
X125749426Y-74319971D01*
X125761115Y-74302673D01*
X125777398Y-74285581D01*
X125834366Y-74248857D01*
X125896555Y-74242042D01*
X125955801Y-74265261D01*
X125976405Y-74282543D01*
X125991530Y-74298791D01*
X126002390Y-74316191D01*
X126009690Y-74340212D01*
X126014137Y-74376322D01*
X126016436Y-74429988D01*
X126017296Y-74506680D01*
X126017422Y-74600043D01*
X126017422Y-74876526D01*
X126201237Y-74876526D01*
X126201237Y-74074421D01*
X126109329Y-74074421D01*
X126054149Y-74076603D01*
X126025680Y-74084351D01*
X126017425Y-74099468D01*
X126017422Y-74099916D01*
X126013592Y-74114720D01*
X125996699Y-74113040D01*
X125963112Y-74096773D01*
X125886937Y-74072840D01*
X125799800Y-74070178D01*
X125716043Y-74088226D01*
G36*
X122322612Y-74073645D02*
G01*
X122265135Y-74091206D01*
X122228128Y-74113395D01*
X122216073Y-74130942D01*
X122219391Y-74151742D01*
X122240921Y-74184419D01*
X122259126Y-74207562D01*
X122296656Y-74249402D01*
X122324852Y-74267005D01*
X122348889Y-74265856D01*
X122420192Y-74247710D01*
X122472558Y-74248534D01*
X122515082Y-74269098D01*
X122529358Y-74281134D01*
X122575053Y-74323483D01*
X122575053Y-74876526D01*
X122758869Y-74876526D01*
X122758869Y-74074421D01*
X122666961Y-74074421D01*
X122611781Y-74076603D01*
X122583312Y-74084351D01*
X122575057Y-74099468D01*
X122575053Y-74099916D01*
X122571155Y-74115749D01*
X122553526Y-74113684D01*
X122529099Y-74102261D01*
X122478650Y-74081005D01*
X122437684Y-74068216D01*
X122384972Y-74064938D01*
X122322612Y-74073645D01*
G37*
X122322612Y-74073645D02*
X122265135Y-74091206D01*
X122228128Y-74113395D01*
X122216073Y-74130942D01*
X122219391Y-74151742D01*
X122240921Y-74184419D01*
X122259126Y-74207562D01*
X122296656Y-74249402D01*
X122324852Y-74267005D01*
X122348889Y-74265856D01*
X122420192Y-74247710D01*
X122472558Y-74248534D01*
X122515082Y-74269098D01*
X122529358Y-74281134D01*
X122575053Y-74323483D01*
X122575053Y-74876526D01*
X122758869Y-74876526D01*
X122758869Y-74074421D01*
X122666961Y-74074421D01*
X122611781Y-74076603D01*
X122583312Y-74084351D01*
X122575057Y-74099468D01*
X122575053Y-74099916D01*
X122571155Y-74115749D01*
X122553526Y-74113684D01*
X122529099Y-74102261D01*
X122478650Y-74081005D01*
X122437684Y-74068216D01*
X122384972Y-74064938D01*
X122322612Y-74073645D01*
G36*
X124213036Y-68534576D02*
G01*
X124137487Y-68935322D01*
X123579959Y-69165154D01*
X123245535Y-68937748D01*
X123151878Y-68874431D01*
X123067218Y-68817896D01*
X122995505Y-68770727D01*
X122940689Y-68735502D01*
X122906720Y-68714805D01*
X122897470Y-68710342D01*
X122880805Y-68721820D01*
X122845194Y-68753551D01*
X122794629Y-68801483D01*
X122733100Y-68861562D01*
X122664601Y-68929733D01*
X122593121Y-69001945D01*
X122522653Y-69074142D01*
X122457189Y-69142273D01*
X122400720Y-69202283D01*
X122357237Y-69250119D01*
X122330732Y-69281727D01*
X122324395Y-69292305D01*
X122333514Y-69311806D01*
X122359080Y-69354531D01*
X122398403Y-69416298D01*
X122448797Y-69492931D01*
X122507573Y-69580248D01*
X122541632Y-69630052D01*
X122603711Y-69720993D01*
X122658874Y-69803059D01*
X122704446Y-69872163D01*
X122737750Y-69924222D01*
X122756110Y-69955150D01*
X122758869Y-69961650D01*
X122752615Y-69980121D01*
X122735566Y-70023172D01*
X122710297Y-70084749D01*
X122679378Y-70158799D01*
X122645382Y-70239270D01*
X122610882Y-70320107D01*
X122578449Y-70395258D01*
X122550657Y-70458671D01*
X122530077Y-70504293D01*
X122519281Y-70526069D01*
X122518644Y-70526926D01*
X122501693Y-70531084D01*
X122456549Y-70540361D01*
X122387890Y-70553844D01*
X122300398Y-70570621D01*
X122198750Y-70589781D01*
X122139444Y-70600830D01*
X122030828Y-70621510D01*
X121932723Y-70641189D01*
X121850091Y-70658789D01*
X121787896Y-70673233D01*
X121751101Y-70683446D01*
X121743704Y-70686686D01*
X121736460Y-70708617D01*
X121730615Y-70758147D01*
X121726165Y-70829485D01*
X121723107Y-70916839D01*
X121721435Y-71014417D01*
X121721147Y-71116426D01*
X121722239Y-71217075D01*
X121724706Y-71310572D01*
X121728544Y-71391125D01*
X121733750Y-71452942D01*
X121740319Y-71490230D01*
X121744259Y-71497993D01*
X121767812Y-71507298D01*
X121817718Y-71520600D01*
X121887377Y-71536337D01*
X121970187Y-71552946D01*
X121999095Y-71558319D01*
X122138469Y-71583848D01*
X122248564Y-71604408D01*
X122333018Y-71620815D01*
X122395470Y-71633887D01*
X122439556Y-71644441D01*
X122468915Y-71653294D01*
X122487185Y-71661263D01*
X122498002Y-71669165D01*
X122499515Y-71670727D01*
X122514623Y-71695886D01*
X122537671Y-71744850D01*
X122566356Y-71811621D01*
X122598378Y-71890205D01*
X122631435Y-71974607D01*
X122663227Y-72058830D01*
X122691451Y-72136879D01*
X122713807Y-72202759D01*
X122727993Y-72250473D01*
X122731707Y-72274027D01*
X122731398Y-72274852D01*
X122718811Y-72294104D01*
X122690256Y-72336463D01*
X122648733Y-72397521D01*
X122597244Y-72472868D01*
X122538789Y-72558096D01*
X122522142Y-72582315D01*
X122462785Y-72670123D01*
X122410553Y-72750238D01*
X122368292Y-72818062D01*
X122338847Y-72868993D01*
X122325063Y-72898431D01*
X122324395Y-72902048D01*
X122335976Y-72921057D01*
X122367976Y-72958714D01*
X122416282Y-73010973D01*
X122476780Y-73073786D01*
X122545356Y-73143106D01*
X122617896Y-73214885D01*
X122690288Y-73285077D01*
X122758416Y-73349635D01*
X122818168Y-73404510D01*
X122865429Y-73445656D01*
X122896087Y-73469026D01*
X122904568Y-73472842D01*
X122924309Y-73463855D01*
X122964726Y-73439616D01*
X123019237Y-73404209D01*
X123061177Y-73375711D01*
X123137171Y-73323418D01*
X123227166Y-73261845D01*
X123317436Y-73200370D01*
X123365968Y-73167469D01*
X123530238Y-73056359D01*
X123668131Y-73130916D01*
X123730951Y-73163578D01*
X123784371Y-73188966D01*
X123820516Y-73203446D01*
X123829716Y-73205460D01*
X123840779Y-73190584D01*
X123862606Y-73148547D01*
X123893566Y-73083227D01*
X123932030Y-72998500D01*
X123976368Y-72898245D01*
X124024953Y-72786339D01*
X124076154Y-72666659D01*
X124128341Y-72543084D01*
X124179887Y-72419491D01*
X124229160Y-72299757D01*
X124274533Y-72187759D01*
X124314375Y-72087377D01*
X124347058Y-72002486D01*
X124370951Y-71936965D01*
X124384426Y-71894690D01*
X124386594Y-71880172D01*
X124369417Y-71861653D01*
X124331810Y-71831590D01*
X124281634Y-71796232D01*
X124277422Y-71793434D01*
X124147736Y-71689625D01*
X124043166Y-71568515D01*
X123964619Y-71433976D01*
X123913001Y-71289882D01*
X123889218Y-71140105D01*
X123894177Y-70988517D01*
X123928783Y-70838992D01*
X123993943Y-70695400D01*
X124013114Y-70663984D01*
X124112826Y-70537125D01*
X124230623Y-70435255D01*
X124362429Y-70358904D01*
X124504167Y-70308602D01*
X124651758Y-70284879D01*
X124801127Y-70288265D01*
X124948197Y-70319288D01*
X125088889Y-70378480D01*
X125219127Y-70466369D01*
X125259414Y-70502042D01*
X125361945Y-70613706D01*
X125436659Y-70731257D01*
X125487910Y-70863020D01*
X125516454Y-70993507D01*
X125523500Y-71140216D01*
X125500004Y-71287653D01*
X125448351Y-71430834D01*
X125370929Y-71564777D01*
X125270125Y-71684498D01*
X125148324Y-71785014D01*
X125132316Y-71795609D01*
X125081602Y-71830306D01*
X125043050Y-71860370D01*
X125024619Y-71879565D01*
X125024351Y-71880172D01*
X125028308Y-71900936D01*
X125043993Y-71948062D01*
X125069778Y-72017673D01*
X125104031Y-72105893D01*
X125145123Y-72208844D01*
X125191424Y-72322650D01*
X125241304Y-72443435D01*
X125293133Y-72567321D01*
X125345281Y-72690432D01*
X125396118Y-72808891D01*
X125444013Y-72918823D01*
X125487338Y-73016349D01*
X125524462Y-73097593D01*
X125553756Y-73158679D01*
X125573588Y-73195730D01*
X125581574Y-73205460D01*
X125605979Y-73197883D01*
X125651642Y-73177560D01*
X125710690Y-73148125D01*
X125743160Y-73130916D01*
X125881053Y-73056359D01*
X126045323Y-73167469D01*
X126129179Y-73224390D01*
X126220987Y-73287030D01*
X126307020Y-73346011D01*
X126350113Y-73375711D01*
X126410723Y-73416410D01*
X126462045Y-73448663D01*
X126497385Y-73468384D01*
X126508863Y-73472554D01*
X126525570Y-73461307D01*
X126562546Y-73429911D01*
X126616205Y-73381624D01*
X126682962Y-73319708D01*
X126759234Y-73247421D01*
X126807473Y-73201008D01*
X126891867Y-73118087D01*
X126964803Y-73043920D01*
X127023331Y-72981680D01*
X127064503Y-72934541D01*
X127085372Y-72905673D01*
X127087374Y-72899815D01*
X127078083Y-72877532D01*
X127052409Y-72832477D01*
X127013200Y-72769211D01*
X126963303Y-72692295D01*
X126905567Y-72606292D01*
X126889149Y-72582315D01*
X126829323Y-72495170D01*
X126775650Y-72416710D01*
X126731130Y-72351345D01*
X126698765Y-72303484D01*
X126681555Y-72277535D01*
X126679893Y-72274852D01*
X126682379Y-72254172D01*
X126695577Y-72208704D01*
X126717186Y-72144444D01*
X126744904Y-72067387D01*
X126776430Y-71983529D01*
X126809463Y-71898866D01*
X126841701Y-71819392D01*
X126870843Y-71751104D01*
X126894588Y-71699997D01*
X126910635Y-71672067D01*
X126911775Y-71670727D01*
X126921588Y-71662745D01*
X126938161Y-71654851D01*
X126965132Y-71646229D01*
X127006139Y-71636062D01*
X127064820Y-71623531D01*
X127144813Y-71607821D01*
X127249755Y-71588113D01*
X127383285Y-71563592D01*
X127412196Y-71558319D01*
X127497882Y-71541764D01*
X127572582Y-71525569D01*
X127629694Y-71511296D01*
X127662617Y-71500508D01*
X127667031Y-71497993D01*
X127674306Y-71475696D01*
X127680219Y-71425869D01*
X127684766Y-71354304D01*
X127687945Y-71266793D01*
X127689749Y-71169128D01*
X127690177Y-71067101D01*
X127689223Y-70966503D01*
X127686884Y-70873127D01*
X127683156Y-70792765D01*
X127678034Y-70731209D01*
X127671516Y-70694250D01*
X127667586Y-70686686D01*
X127645708Y-70679056D01*
X127595891Y-70666642D01*
X127523097Y-70650522D01*
X127432289Y-70631773D01*
X127328431Y-70611471D01*
X127271846Y-70600830D01*
X127164486Y-70580760D01*
X127068746Y-70562580D01*
X126989306Y-70547199D01*
X126930846Y-70535531D01*
X126898045Y-70528488D01*
X126892646Y-70526926D01*
X126883522Y-70509322D01*
X126864235Y-70466918D01*
X126837355Y-70405772D01*
X126805454Y-70331943D01*
X126771102Y-70251489D01*
X126736871Y-70170468D01*
X126705331Y-70094937D01*
X126679054Y-70030955D01*
X126660611Y-69984580D01*
X126652571Y-69961869D01*
X126652422Y-69960876D01*
X126661535Y-69942961D01*
X126687086Y-69901733D01*
X126726388Y-69841291D01*
X126776757Y-69765731D01*
X126835506Y-69679152D01*
X126869658Y-69629421D01*
X126931890Y-69538236D01*
X126987164Y-69455449D01*
X127032782Y-69385249D01*
X127066048Y-69331824D01*
X127084264Y-69299361D01*
X127086895Y-69292083D01*
X127075586Y-69275145D01*
X127044319Y-69238978D01*
X126997090Y-69187635D01*
X126937892Y-69125167D01*
X126870719Y-69055626D01*
X126799566Y-68983065D01*
X126728426Y-68911535D01*
X126661293Y-68845087D01*
X126602161Y-68787774D01*
X126555025Y-68743647D01*
X126523877Y-68716759D01*
X126513457Y-68710342D01*
X126496491Y-68719365D01*
X126455911Y-68744715D01*
X126395663Y-68783810D01*
X126319693Y-68834071D01*
X126231946Y-68892917D01*
X126165756Y-68937748D01*
X125831332Y-69165154D01*
X125552567Y-69050238D01*
X125273803Y-68935322D01*
X125198254Y-68534576D01*
X125122706Y-68133829D01*
X124288585Y-68133829D01*
X124213036Y-68534576D01*
G37*
X124213036Y-68534576D02*
X124137487Y-68935322D01*
X123579959Y-69165154D01*
X123245535Y-68937748D01*
X123151878Y-68874431D01*
X123067218Y-68817896D01*
X122995505Y-68770727D01*
X122940689Y-68735502D01*
X122906720Y-68714805D01*
X122897470Y-68710342D01*
X122880805Y-68721820D01*
X122845194Y-68753551D01*
X122794629Y-68801483D01*
X122733100Y-68861562D01*
X122664601Y-68929733D01*
X122593121Y-69001945D01*
X122522653Y-69074142D01*
X122457189Y-69142273D01*
X122400720Y-69202283D01*
X122357237Y-69250119D01*
X122330732Y-69281727D01*
X122324395Y-69292305D01*
X122333514Y-69311806D01*
X122359080Y-69354531D01*
X122398403Y-69416298D01*
X122448797Y-69492931D01*
X122507573Y-69580248D01*
X122541632Y-69630052D01*
X122603711Y-69720993D01*
X122658874Y-69803059D01*
X122704446Y-69872163D01*
X122737750Y-69924222D01*
X122756110Y-69955150D01*
X122758869Y-69961650D01*
X122752615Y-69980121D01*
X122735566Y-70023172D01*
X122710297Y-70084749D01*
X122679378Y-70158799D01*
X122645382Y-70239270D01*
X122610882Y-70320107D01*
X122578449Y-70395258D01*
X122550657Y-70458671D01*
X122530077Y-70504293D01*
X122519281Y-70526069D01*
X122518644Y-70526926D01*
X122501693Y-70531084D01*
X122456549Y-70540361D01*
X122387890Y-70553844D01*
X122300398Y-70570621D01*
X122198750Y-70589781D01*
X122139444Y-70600830D01*
X122030828Y-70621510D01*
X121932723Y-70641189D01*
X121850091Y-70658789D01*
X121787896Y-70673233D01*
X121751101Y-70683446D01*
X121743704Y-70686686D01*
X121736460Y-70708617D01*
X121730615Y-70758147D01*
X121726165Y-70829485D01*
X121723107Y-70916839D01*
X121721435Y-71014417D01*
X121721147Y-71116426D01*
X121722239Y-71217075D01*
X121724706Y-71310572D01*
X121728544Y-71391125D01*
X121733750Y-71452942D01*
X121740319Y-71490230D01*
X121744259Y-71497993D01*
X121767812Y-71507298D01*
X121817718Y-71520600D01*
X121887377Y-71536337D01*
X121970187Y-71552946D01*
X121999095Y-71558319D01*
X122138469Y-71583848D01*
X122248564Y-71604408D01*
X122333018Y-71620815D01*
X122395470Y-71633887D01*
X122439556Y-71644441D01*
X122468915Y-71653294D01*
X122487185Y-71661263D01*
X122498002Y-71669165D01*
X122499515Y-71670727D01*
X122514623Y-71695886D01*
X122537671Y-71744850D01*
X122566356Y-71811621D01*
X122598378Y-71890205D01*
X122631435Y-71974607D01*
X122663227Y-72058830D01*
X122691451Y-72136879D01*
X122713807Y-72202759D01*
X122727993Y-72250473D01*
X122731707Y-72274027D01*
X122731398Y-72274852D01*
X122718811Y-72294104D01*
X122690256Y-72336463D01*
X122648733Y-72397521D01*
X122597244Y-72472868D01*
X122538789Y-72558096D01*
X122522142Y-72582315D01*
X122462785Y-72670123D01*
X122410553Y-72750238D01*
X122368292Y-72818062D01*
X122338847Y-72868993D01*
X122325063Y-72898431D01*
X122324395Y-72902048D01*
X122335976Y-72921057D01*
X122367976Y-72958714D01*
X122416282Y-73010973D01*
X122476780Y-73073786D01*
X122545356Y-73143106D01*
X122617896Y-73214885D01*
X122690288Y-73285077D01*
X122758416Y-73349635D01*
X122818168Y-73404510D01*
X122865429Y-73445656D01*
X122896087Y-73469026D01*
X122904568Y-73472842D01*
X122924309Y-73463855D01*
X122964726Y-73439616D01*
X123019237Y-73404209D01*
X123061177Y-73375711D01*
X123137171Y-73323418D01*
X123227166Y-73261845D01*
X123317436Y-73200370D01*
X123365968Y-73167469D01*
X123530238Y-73056359D01*
X123668131Y-73130916D01*
X123730951Y-73163578D01*
X123784371Y-73188966D01*
X123820516Y-73203446D01*
X123829716Y-73205460D01*
X123840779Y-73190584D01*
X123862606Y-73148547D01*
X123893566Y-73083227D01*
X123932030Y-72998500D01*
X123976368Y-72898245D01*
X124024953Y-72786339D01*
X124076154Y-72666659D01*
X124128341Y-72543084D01*
X124179887Y-72419491D01*
X124229160Y-72299757D01*
X124274533Y-72187759D01*
X124314375Y-72087377D01*
X124347058Y-72002486D01*
X124370951Y-71936965D01*
X124384426Y-71894690D01*
X124386594Y-71880172D01*
X124369417Y-71861653D01*
X124331810Y-71831590D01*
X124281634Y-71796232D01*
X124277422Y-71793434D01*
X124147736Y-71689625D01*
X124043166Y-71568515D01*
X123964619Y-71433976D01*
X123913001Y-71289882D01*
X123889218Y-71140105D01*
X123894177Y-70988517D01*
X123928783Y-70838992D01*
X123993943Y-70695400D01*
X124013114Y-70663984D01*
X124112826Y-70537125D01*
X124230623Y-70435255D01*
X124362429Y-70358904D01*
X124504167Y-70308602D01*
X124651758Y-70284879D01*
X124801127Y-70288265D01*
X124948197Y-70319288D01*
X125088889Y-70378480D01*
X125219127Y-70466369D01*
X125259414Y-70502042D01*
X125361945Y-70613706D01*
X125436659Y-70731257D01*
X125487910Y-70863020D01*
X125516454Y-70993507D01*
X125523500Y-71140216D01*
X125500004Y-71287653D01*
X125448351Y-71430834D01*
X125370929Y-71564777D01*
X125270125Y-71684498D01*
X125148324Y-71785014D01*
X125132316Y-71795609D01*
X125081602Y-71830306D01*
X125043050Y-71860370D01*
X125024619Y-71879565D01*
X125024351Y-71880172D01*
X125028308Y-71900936D01*
X125043993Y-71948062D01*
X125069778Y-72017673D01*
X125104031Y-72105893D01*
X125145123Y-72208844D01*
X125191424Y-72322650D01*
X125241304Y-72443435D01*
X125293133Y-72567321D01*
X125345281Y-72690432D01*
X125396118Y-72808891D01*
X125444013Y-72918823D01*
X125487338Y-73016349D01*
X125524462Y-73097593D01*
X125553756Y-73158679D01*
X125573588Y-73195730D01*
X125581574Y-73205460D01*
X125605979Y-73197883D01*
X125651642Y-73177560D01*
X125710690Y-73148125D01*
X125743160Y-73130916D01*
X125881053Y-73056359D01*
X126045323Y-73167469D01*
X126129179Y-73224390D01*
X126220987Y-73287030D01*
X126307020Y-73346011D01*
X126350113Y-73375711D01*
X126410723Y-73416410D01*
X126462045Y-73448663D01*
X126497385Y-73468384D01*
X126508863Y-73472554D01*
X126525570Y-73461307D01*
X126562546Y-73429911D01*
X126616205Y-73381624D01*
X126682962Y-73319708D01*
X126759234Y-73247421D01*
X126807473Y-73201008D01*
X126891867Y-73118087D01*
X126964803Y-73043920D01*
X127023331Y-72981680D01*
X127064503Y-72934541D01*
X127085372Y-72905673D01*
X127087374Y-72899815D01*
X127078083Y-72877532D01*
X127052409Y-72832477D01*
X127013200Y-72769211D01*
X126963303Y-72692295D01*
X126905567Y-72606292D01*
X126889149Y-72582315D01*
X126829323Y-72495170D01*
X126775650Y-72416710D01*
X126731130Y-72351345D01*
X126698765Y-72303484D01*
X126681555Y-72277535D01*
X126679893Y-72274852D01*
X126682379Y-72254172D01*
X126695577Y-72208704D01*
X126717186Y-72144444D01*
X126744904Y-72067387D01*
X126776430Y-71983529D01*
X126809463Y-71898866D01*
X126841701Y-71819392D01*
X126870843Y-71751104D01*
X126894588Y-71699997D01*
X126910635Y-71672067D01*
X126911775Y-71670727D01*
X126921588Y-71662745D01*
X126938161Y-71654851D01*
X126965132Y-71646229D01*
X127006139Y-71636062D01*
X127064820Y-71623531D01*
X127144813Y-71607821D01*
X127249755Y-71588113D01*
X127383285Y-71563592D01*
X127412196Y-71558319D01*
X127497882Y-71541764D01*
X127572582Y-71525569D01*
X127629694Y-71511296D01*
X127662617Y-71500508D01*
X127667031Y-71497993D01*
X127674306Y-71475696D01*
X127680219Y-71425869D01*
X127684766Y-71354304D01*
X127687945Y-71266793D01*
X127689749Y-71169128D01*
X127690177Y-71067101D01*
X127689223Y-70966503D01*
X127686884Y-70873127D01*
X127683156Y-70792765D01*
X127678034Y-70731209D01*
X127671516Y-70694250D01*
X127667586Y-70686686D01*
X127645708Y-70679056D01*
X127595891Y-70666642D01*
X127523097Y-70650522D01*
X127432289Y-70631773D01*
X127328431Y-70611471D01*
X127271846Y-70600830D01*
X127164486Y-70580760D01*
X127068746Y-70562580D01*
X126989306Y-70547199D01*
X126930846Y-70535531D01*
X126898045Y-70528488D01*
X126892646Y-70526926D01*
X126883522Y-70509322D01*
X126864235Y-70466918D01*
X126837355Y-70405772D01*
X126805454Y-70331943D01*
X126771102Y-70251489D01*
X126736871Y-70170468D01*
X126705331Y-70094937D01*
X126679054Y-70030955D01*
X126660611Y-69984580D01*
X126652571Y-69961869D01*
X126652422Y-69960876D01*
X126661535Y-69942961D01*
X126687086Y-69901733D01*
X126726388Y-69841291D01*
X126776757Y-69765731D01*
X126835506Y-69679152D01*
X126869658Y-69629421D01*
X126931890Y-69538236D01*
X126987164Y-69455449D01*
X127032782Y-69385249D01*
X127066048Y-69331824D01*
X127084264Y-69299361D01*
X127086895Y-69292083D01*
X127075586Y-69275145D01*
X127044319Y-69238978D01*
X126997090Y-69187635D01*
X126937892Y-69125167D01*
X126870719Y-69055626D01*
X126799566Y-68983065D01*
X126728426Y-68911535D01*
X126661293Y-68845087D01*
X126602161Y-68787774D01*
X126555025Y-68743647D01*
X126523877Y-68716759D01*
X126513457Y-68710342D01*
X126496491Y-68719365D01*
X126455911Y-68744715D01*
X126395663Y-68783810D01*
X126319693Y-68834071D01*
X126231946Y-68892917D01*
X126165756Y-68937748D01*
X125831332Y-69165154D01*
X125552567Y-69050238D01*
X125273803Y-68935322D01*
X125198254Y-68534576D01*
X125122706Y-68133829D01*
X124288585Y-68133829D01*
X124213036Y-68534576D01*
%TD*%
M02*
