%TF.GenerationSoftware,KiCad,Pcbnew,5.1.9-73d0e3b20d~88~ubuntu20.04.1*%
%TF.CreationDate,2021-03-06T12:21:06+00:00*%
%TF.ProjectId,RFID_tag,52464944-5f74-4616-972e-6b696361645f,1.0*%
%TF.SameCoordinates,Original*%
%TF.FileFunction,Copper,L1,Top*%
%TF.FilePolarity,Positive*%
%FSLAX46Y46*%
G04 Gerber Fmt 4.6, Leading zero omitted, Abs format (unit mm)*
G04 Created by KiCad (PCBNEW 5.1.9-73d0e3b20d~88~ubuntu20.04.1) date 2021-03-06 12:21:06*
%MOMM*%
%LPD*%
G01*
G04 APERTURE LIST*
%TA.AperFunction,EtchedComponent*%
%ADD10C,0.010000*%
%TD*%
%TA.AperFunction,SMDPad,CuDef*%
%ADD11R,0.270000X0.330000*%
%TD*%
%TA.AperFunction,SMDPad,CuDef*%
%ADD12C,1.000000*%
%TD*%
%TA.AperFunction,SMDPad,CuDef*%
%ADD13R,0.800000X0.500000*%
%TD*%
%TA.AperFunction,Conductor*%
%ADD14C,0.250000*%
%TD*%
G04 APERTURE END LIST*
D10*
%TO.C,AE1*%
G36*
X116765000Y-74297000D02*
G01*
X119765000Y-75922000D01*
X119765000Y-76422000D01*
X113765000Y-76422000D01*
X113765000Y-74297000D01*
X116765000Y-72672000D01*
X116765000Y-74297000D01*
G37*
X116765000Y-74297000D02*
X119765000Y-75922000D01*
X119765000Y-76422000D01*
X113765000Y-76422000D01*
X113765000Y-74297000D01*
X116765000Y-72672000D01*
X116765000Y-74297000D01*
G36*
X119765000Y-68422000D02*
G01*
X116765000Y-70047000D01*
X119765000Y-71672000D01*
X121265000Y-71672000D01*
X122265000Y-72672000D01*
X119765000Y-72672000D01*
X116765000Y-74297000D01*
X116765000Y-71672000D01*
X113765000Y-70047000D01*
X113765000Y-67922000D01*
X119765000Y-67922000D01*
X119765000Y-68422000D01*
G37*
X119765000Y-68422000D02*
X116765000Y-70047000D01*
X119765000Y-71672000D01*
X121265000Y-71672000D01*
X122265000Y-72672000D01*
X119765000Y-72672000D01*
X116765000Y-74297000D01*
X116765000Y-71672000D01*
X113765000Y-70047000D01*
X113765000Y-67922000D01*
X119765000Y-67922000D01*
X119765000Y-68422000D01*
G36*
X122265000Y-68922000D02*
G01*
X122265000Y-72672000D01*
X121265000Y-71672000D01*
X121265000Y-67922000D01*
X122265000Y-68922000D01*
G37*
X122265000Y-68922000D02*
X122265000Y-72672000D01*
X121265000Y-71672000D01*
X121265000Y-67922000D01*
X122265000Y-68922000D01*
G36*
X124665000Y-75422000D02*
G01*
X123665000Y-76422000D01*
X123665000Y-68922000D01*
X124665000Y-67922000D01*
X124665000Y-75422000D01*
G37*
X124665000Y-75422000D02*
X123665000Y-76422000D01*
X123665000Y-68922000D01*
X124665000Y-67922000D01*
X124665000Y-75422000D01*
G36*
X123665000Y-68922000D02*
G01*
X122265000Y-68922000D01*
X121265000Y-67922000D01*
X124665000Y-67922000D01*
X123665000Y-68922000D01*
G37*
X123665000Y-68922000D02*
X122265000Y-68922000D01*
X121265000Y-67922000D01*
X124665000Y-67922000D01*
X123665000Y-68922000D01*
G36*
X127065000Y-76422000D02*
G01*
X123665000Y-76422000D01*
X124665000Y-75422000D01*
X126065000Y-75422000D01*
X127065000Y-76422000D01*
G37*
X127065000Y-76422000D02*
X123665000Y-76422000D01*
X124665000Y-75422000D01*
X126065000Y-75422000D01*
X127065000Y-76422000D01*
G36*
X127065000Y-68922000D02*
G01*
X127065000Y-76422000D01*
X126065000Y-75422000D01*
X126065000Y-67922000D01*
X127065000Y-68922000D01*
G37*
X127065000Y-68922000D02*
X127065000Y-76422000D01*
X126065000Y-75422000D01*
X126065000Y-67922000D01*
X127065000Y-68922000D01*
G36*
X128465000Y-68922000D02*
G01*
X127065000Y-68922000D01*
X126065000Y-67922000D01*
X129465000Y-67922000D01*
X128465000Y-68922000D01*
G37*
X128465000Y-68922000D02*
X127065000Y-68922000D01*
X126065000Y-67922000D01*
X129465000Y-67922000D01*
X128465000Y-68922000D01*
G36*
X129465000Y-75422000D02*
G01*
X128465000Y-76422000D01*
X128465000Y-68922000D01*
X129465000Y-67922000D01*
X129465000Y-75422000D01*
G37*
X129465000Y-75422000D02*
X128465000Y-76422000D01*
X128465000Y-68922000D01*
X129465000Y-67922000D01*
X129465000Y-75422000D01*
G36*
X131865000Y-76422000D02*
G01*
X128465000Y-76422000D01*
X129465000Y-75422000D01*
X130865000Y-75422000D01*
X131865000Y-76422000D01*
G37*
X131865000Y-76422000D02*
X128465000Y-76422000D01*
X129465000Y-75422000D01*
X130865000Y-75422000D01*
X131865000Y-76422000D01*
G36*
X131865000Y-68922000D02*
G01*
X131865000Y-76422000D01*
X130865000Y-75422000D01*
X130865000Y-67922000D01*
X131865000Y-68922000D01*
G37*
X131865000Y-68922000D02*
X131865000Y-76422000D01*
X130865000Y-75422000D01*
X130865000Y-67922000D01*
X131865000Y-68922000D01*
G36*
X133265000Y-68922000D02*
G01*
X131865000Y-68922000D01*
X130865000Y-67922000D01*
X134265000Y-67922000D01*
X133265000Y-68922000D01*
G37*
X133265000Y-68922000D02*
X131865000Y-68922000D01*
X130865000Y-67922000D01*
X134265000Y-67922000D01*
X133265000Y-68922000D01*
G36*
X134265000Y-75422000D02*
G01*
X133265000Y-76422000D01*
X133265000Y-68922000D01*
X134265000Y-67922000D01*
X134265000Y-75422000D01*
G37*
X134265000Y-75422000D02*
X133265000Y-76422000D01*
X133265000Y-68922000D01*
X134265000Y-67922000D01*
X134265000Y-75422000D01*
G36*
X136665000Y-76422000D02*
G01*
X133265000Y-76422000D01*
X134265000Y-75422000D01*
X135665000Y-75422000D01*
X136665000Y-76422000D01*
G37*
X136665000Y-76422000D02*
X133265000Y-76422000D01*
X134265000Y-75422000D01*
X135665000Y-75422000D01*
X136665000Y-76422000D01*
G36*
X136665000Y-68922000D02*
G01*
X136665000Y-76422000D01*
X135665000Y-75422000D01*
X135665000Y-67922000D01*
X136665000Y-68922000D01*
G37*
X136665000Y-68922000D02*
X136665000Y-76422000D01*
X135665000Y-75422000D01*
X135665000Y-67922000D01*
X136665000Y-68922000D01*
G36*
X138065000Y-68922000D02*
G01*
X136665000Y-68922000D01*
X135665000Y-67922000D01*
X139065000Y-67922000D01*
X138065000Y-68922000D01*
G37*
X138065000Y-68922000D02*
X136665000Y-68922000D01*
X135665000Y-67922000D01*
X139065000Y-67922000D01*
X138065000Y-68922000D01*
G36*
X139065000Y-75422000D02*
G01*
X138065000Y-76422000D01*
X138065000Y-68922000D01*
X139065000Y-67922000D01*
X139065000Y-75422000D01*
G37*
X139065000Y-75422000D02*
X138065000Y-76422000D01*
X138065000Y-68922000D01*
X139065000Y-67922000D01*
X139065000Y-75422000D01*
G36*
X141465000Y-76422000D02*
G01*
X138065000Y-76422000D01*
X139065000Y-75422000D01*
X140465000Y-75422000D01*
X141465000Y-76422000D01*
G37*
X141465000Y-76422000D02*
X138065000Y-76422000D01*
X139065000Y-75422000D01*
X140465000Y-75422000D01*
X141465000Y-76422000D01*
G36*
X141465000Y-69838666D02*
G01*
X141465000Y-76422000D01*
X140465000Y-75422000D01*
X140465000Y-68838666D01*
X141465000Y-69838666D01*
G37*
X141465000Y-69838666D02*
X141465000Y-76422000D01*
X140465000Y-75422000D01*
X140465000Y-68838666D01*
X141465000Y-69838666D01*
G36*
X155455000Y-69842000D02*
G01*
X148215000Y-69838666D01*
X148215000Y-68838666D01*
X155465000Y-68838666D01*
X155455000Y-69842000D01*
G37*
X155455000Y-69842000D02*
X148215000Y-69838666D01*
X148215000Y-68838666D01*
X155465000Y-68838666D01*
X155455000Y-69842000D01*
G36*
X155455000Y-76342000D02*
G01*
X154465000Y-76422000D01*
X154455000Y-69142000D01*
X155465000Y-68838666D01*
X155455000Y-76342000D01*
G37*
X155455000Y-76342000D02*
X154465000Y-76422000D01*
X154455000Y-69142000D01*
X155465000Y-68838666D01*
X155455000Y-76342000D01*
G36*
X157855000Y-75442000D02*
G01*
X157865000Y-76422000D01*
X154465000Y-76422000D01*
X154555000Y-75742000D01*
X155465000Y-75422000D01*
X156865000Y-75422000D01*
X157855000Y-75442000D01*
G37*
X157855000Y-75442000D02*
X157865000Y-76422000D01*
X154465000Y-76422000D01*
X154555000Y-75742000D01*
X155465000Y-75422000D01*
X156865000Y-75422000D01*
X157855000Y-75442000D01*
G36*
X157865000Y-68922000D02*
G01*
X157865000Y-76422000D01*
X156865000Y-75422000D01*
X156865000Y-67922000D01*
X157865000Y-68922000D01*
G37*
X157865000Y-68922000D02*
X157865000Y-76422000D01*
X156865000Y-75422000D01*
X156865000Y-67922000D01*
X157865000Y-68922000D01*
G36*
X159265000Y-68922000D02*
G01*
X157865000Y-68922000D01*
X156865000Y-67922000D01*
X160265000Y-67922000D01*
X159265000Y-68922000D01*
G37*
X159265000Y-68922000D02*
X157865000Y-68922000D01*
X156865000Y-67922000D01*
X160265000Y-67922000D01*
X159265000Y-68922000D01*
G36*
X160265000Y-75422000D02*
G01*
X159265000Y-76422000D01*
X159265000Y-68922000D01*
X160265000Y-67922000D01*
X160265000Y-75422000D01*
G37*
X160265000Y-75422000D02*
X159265000Y-76422000D01*
X159265000Y-68922000D01*
X160265000Y-67922000D01*
X160265000Y-75422000D01*
G36*
X162665000Y-76422000D02*
G01*
X159265000Y-76422000D01*
X160265000Y-75422000D01*
X161665000Y-75422000D01*
X162665000Y-76422000D01*
G37*
X162665000Y-76422000D02*
X159265000Y-76422000D01*
X160265000Y-75422000D01*
X161665000Y-75422000D01*
X162665000Y-76422000D01*
G36*
X162665000Y-68922000D02*
G01*
X162665000Y-76422000D01*
X161665000Y-75422000D01*
X161665000Y-67922000D01*
X162665000Y-68922000D01*
G37*
X162665000Y-68922000D02*
X162665000Y-76422000D01*
X161665000Y-75422000D01*
X161665000Y-67922000D01*
X162665000Y-68922000D01*
G36*
X164065000Y-68922000D02*
G01*
X162665000Y-68922000D01*
X161665000Y-67922000D01*
X165065000Y-67922000D01*
X164065000Y-68922000D01*
G37*
X164065000Y-68922000D02*
X162665000Y-68922000D01*
X161665000Y-67922000D01*
X165065000Y-67922000D01*
X164065000Y-68922000D01*
G36*
X165065000Y-75422000D02*
G01*
X164065000Y-76422000D01*
X164065000Y-68922000D01*
X165065000Y-67922000D01*
X165065000Y-75422000D01*
G37*
X165065000Y-75422000D02*
X164065000Y-76422000D01*
X164065000Y-68922000D01*
X165065000Y-67922000D01*
X165065000Y-75422000D01*
G36*
X167455000Y-75442000D02*
G01*
X167465000Y-76422000D01*
X164065000Y-76422000D01*
X164155000Y-75742000D01*
X165065000Y-75422000D01*
X166465000Y-75422000D01*
X167455000Y-75442000D01*
G37*
X167455000Y-75442000D02*
X167465000Y-76422000D01*
X164065000Y-76422000D01*
X164155000Y-75742000D01*
X165065000Y-75422000D01*
X166465000Y-75422000D01*
X167455000Y-75442000D01*
G36*
X169865000Y-75422000D02*
G01*
X168865000Y-76422000D01*
X168865000Y-68922000D01*
X169865000Y-67922000D01*
X169865000Y-75422000D01*
G37*
X169865000Y-75422000D02*
X168865000Y-76422000D01*
X168865000Y-68922000D01*
X169865000Y-67922000D01*
X169865000Y-75422000D01*
G36*
X167465000Y-68922000D02*
G01*
X167465000Y-76422000D01*
X166465000Y-75422000D01*
X166465000Y-67922000D01*
X167465000Y-68922000D01*
G37*
X167465000Y-68922000D02*
X167465000Y-76422000D01*
X166465000Y-75422000D01*
X166465000Y-67922000D01*
X167465000Y-68922000D01*
G36*
X168865000Y-68922000D02*
G01*
X167465000Y-68922000D01*
X166465000Y-67922000D01*
X169865000Y-67922000D01*
X168865000Y-68922000D01*
G37*
X168865000Y-68922000D02*
X167465000Y-68922000D01*
X166465000Y-67922000D01*
X169865000Y-67922000D01*
X168865000Y-68922000D01*
G36*
X172265000Y-76422000D02*
G01*
X168865000Y-76422000D01*
X169865000Y-75422000D01*
X171265000Y-75422000D01*
X172265000Y-76422000D01*
G37*
X172265000Y-76422000D02*
X168865000Y-76422000D01*
X169865000Y-75422000D01*
X171265000Y-75422000D01*
X172265000Y-76422000D01*
G36*
X172265000Y-68922000D02*
G01*
X172265000Y-76422000D01*
X171265000Y-75422000D01*
X171265000Y-67922000D01*
X172265000Y-68922000D01*
G37*
X172265000Y-68922000D02*
X172265000Y-76422000D01*
X171265000Y-75422000D01*
X171265000Y-67922000D01*
X172265000Y-68922000D01*
G36*
X173665000Y-68922000D02*
G01*
X172265000Y-68922000D01*
X171265000Y-67922000D01*
X174665000Y-67922000D01*
X173665000Y-68922000D01*
G37*
X173665000Y-68922000D02*
X172265000Y-68922000D01*
X171265000Y-67922000D01*
X174665000Y-67922000D01*
X173665000Y-68922000D01*
G36*
X174665000Y-71672000D02*
G01*
X173665000Y-72672000D01*
X173665000Y-68922000D01*
X174665000Y-67922000D01*
X174665000Y-71672000D01*
G37*
X174665000Y-71672000D02*
X173665000Y-72672000D01*
X173665000Y-68922000D01*
X174665000Y-67922000D01*
X174665000Y-71672000D01*
G36*
X179165000Y-72672000D02*
G01*
X182165000Y-74297000D01*
X179165000Y-74297000D01*
X176165000Y-72672000D01*
X173665000Y-72672000D01*
X174665000Y-71672000D01*
X179165000Y-71672000D01*
X179165000Y-72672000D01*
G37*
X179165000Y-72672000D02*
X182165000Y-74297000D01*
X179165000Y-74297000D01*
X176165000Y-72672000D01*
X173665000Y-72672000D01*
X174665000Y-71672000D01*
X179165000Y-71672000D01*
X179165000Y-72672000D01*
G36*
X182165000Y-70047000D02*
G01*
X179165000Y-71672000D01*
X176165000Y-71672000D01*
X179165000Y-70047000D01*
X182165000Y-67922000D01*
X182165000Y-70047000D01*
G37*
X182165000Y-70047000D02*
X179165000Y-71672000D01*
X176165000Y-71672000D01*
X179165000Y-70047000D01*
X182165000Y-67922000D01*
X182165000Y-70047000D01*
G36*
X179165000Y-70047000D02*
G01*
X176165000Y-68422000D01*
X176165000Y-67922000D01*
X182165000Y-67922000D01*
X179165000Y-70047000D01*
G37*
X179165000Y-70047000D02*
X176165000Y-68422000D01*
X176165000Y-67922000D01*
X182165000Y-67922000D01*
X179165000Y-70047000D01*
G36*
X182165000Y-76422000D02*
G01*
X176165000Y-76422000D01*
X176165000Y-75922000D01*
X179165000Y-74297000D01*
X182165000Y-74297000D01*
X182165000Y-76422000D01*
G37*
X182165000Y-76422000D02*
X176165000Y-76422000D01*
X176165000Y-75922000D01*
X179165000Y-74297000D01*
X182165000Y-74297000D01*
X182165000Y-76422000D01*
G36*
X152265000Y-76438666D02*
G01*
X152064999Y-76238666D01*
X152064999Y-69838666D01*
X152265000Y-69838666D01*
X152265000Y-76438666D01*
G37*
X152265000Y-76438666D02*
X152064999Y-76238666D01*
X152064999Y-69838666D01*
X152265000Y-69838666D01*
X152265000Y-76438666D01*
G36*
X152265000Y-76438666D02*
G01*
X143665000Y-76438666D01*
X143865001Y-76238666D01*
X152064999Y-76238666D01*
X152265000Y-76438666D01*
G37*
X152265000Y-76438666D02*
X143665000Y-76438666D01*
X143865001Y-76238666D01*
X152064999Y-76238666D01*
X152265000Y-76438666D01*
G36*
X143865001Y-76238666D02*
G01*
X143665000Y-76438666D01*
X143665000Y-69838666D01*
X143865001Y-69838666D01*
X143865001Y-76238666D01*
G37*
X143865001Y-76238666D02*
X143665000Y-76438666D01*
X143665000Y-69838666D01*
X143865001Y-69838666D01*
X143865001Y-76238666D01*
G36*
X147715000Y-69838666D02*
G01*
X141465000Y-69838666D01*
X140465000Y-68838666D01*
X147715000Y-68838666D01*
X147715000Y-69838666D01*
G37*
X147715000Y-69838666D02*
X141465000Y-69838666D01*
X140465000Y-68838666D01*
X147715000Y-68838666D01*
X147715000Y-69838666D01*
%TD*%
D11*
%TO.P,U1,6*%
%TO.N,Net-(U1-Pad6)*%
X148455000Y-70317000D03*
%TO.P,U1,5*%
%TO.N,Net-(U1-Pad5)*%
X147955000Y-70317000D03*
%TO.P,U1,4*%
%TO.N,Net-(OUT1-Pad1)*%
X147455000Y-70317000D03*
%TO.P,U1,3*%
%TO.N,Net-(AE1-Pad1)*%
X147455000Y-69637000D03*
%TO.P,U1,2*%
%TO.N,Net-(U1-Pad2)*%
X147955000Y-69637000D03*
%TO.P,U1,1*%
%TO.N,Net-(AE1-Pad2)*%
X148455000Y-69637000D03*
%TD*%
D12*
%TO.P,OUT1,1*%
%TO.N,Net-(OUT1-Pad1)*%
X146304000Y-72263000D03*
%TD*%
%TO.P,VCC1,1*%
%TO.N,Net-(U1-Pad6)*%
X149479000Y-72263000D03*
%TD*%
D13*
%TO.P,AE1,1*%
%TO.N,Net-(AE1-Pad1)*%
X147255000Y-69542000D03*
%TO.P,AE1,2*%
%TO.N,Net-(AE1-Pad2)*%
X148655000Y-69542000D03*
%TD*%
D14*
%TO.N,Net-(OUT1-Pad1)*%
X147455000Y-71112000D02*
X146304000Y-72263000D01*
X147455000Y-70317000D02*
X147455000Y-71112000D01*
%TO.N,Net-(U1-Pad6)*%
X148455000Y-71239000D02*
X149479000Y-72263000D01*
X148455000Y-70317000D02*
X148455000Y-71239000D01*
%TD*%
M02*
