%TF.GenerationSoftware,KiCad,Pcbnew,5.1.9-73d0e3b20d~88~ubuntu20.04.1*%
%TF.CreationDate,2021-03-06T12:21:06+00:00*%
%TF.ProjectId,RFID_tag,52464944-5f74-4616-972e-6b696361645f,1.0*%
%TF.SameCoordinates,Original*%
%TF.FileFunction,Legend,Top*%
%TF.FilePolarity,Positive*%
%FSLAX46Y46*%
G04 Gerber Fmt 4.6, Leading zero omitted, Abs format (unit mm)*
G04 Created by KiCad (PCBNEW 5.1.9-73d0e3b20d~88~ubuntu20.04.1) date 2021-03-06 12:21:06*
%MOMM*%
%LPD*%
G01*
G04 APERTURE LIST*
%ADD10C,0.120000*%
%ADD11C,0.150000*%
%ADD12C,0.130000*%
G04 APERTURE END LIST*
D10*
%TO.C,U1*%
X148455000Y-69327000D02*
X147055000Y-69327000D01*
X147055000Y-69327000D02*
X147055000Y-70627000D01*
X147055000Y-70627000D02*
X148855000Y-70627000D01*
X148855000Y-70627000D02*
X148855000Y-69627000D01*
%TO.C,OUT1*%
X147004000Y-72263000D02*
G75*
G03*
X147004000Y-72263000I-700000J0D01*
G01*
%TO.C,VCC1*%
X150179000Y-72263000D02*
G75*
G03*
X150179000Y-72263000I-700000J0D01*
G01*
%TO.C,U1*%
D11*
X147193095Y-67651380D02*
X147193095Y-68460904D01*
X147240714Y-68556142D01*
X147288333Y-68603761D01*
X147383571Y-68651380D01*
X147574047Y-68651380D01*
X147669285Y-68603761D01*
X147716904Y-68556142D01*
X147764523Y-68460904D01*
X147764523Y-67651380D01*
X148764523Y-68651380D02*
X148193095Y-68651380D01*
X148478809Y-68651380D02*
X148478809Y-67651380D01*
X148383571Y-67794238D01*
X148288333Y-67889476D01*
X148193095Y-67937095D01*
%TO.C,OUT1*%
D12*
X145123047Y-73221904D02*
X145275428Y-73221904D01*
X145351619Y-73260000D01*
X145427809Y-73336190D01*
X145465904Y-73488571D01*
X145465904Y-73755238D01*
X145427809Y-73907619D01*
X145351619Y-73983809D01*
X145275428Y-74021904D01*
X145123047Y-74021904D01*
X145046857Y-73983809D01*
X144970666Y-73907619D01*
X144932571Y-73755238D01*
X144932571Y-73488571D01*
X144970666Y-73336190D01*
X145046857Y-73260000D01*
X145123047Y-73221904D01*
X145808761Y-73221904D02*
X145808761Y-73869523D01*
X145846857Y-73945714D01*
X145884952Y-73983809D01*
X145961142Y-74021904D01*
X146113523Y-74021904D01*
X146189714Y-73983809D01*
X146227809Y-73945714D01*
X146265904Y-73869523D01*
X146265904Y-73221904D01*
X146532571Y-73221904D02*
X146989714Y-73221904D01*
X146761142Y-74021904D02*
X146761142Y-73221904D01*
X147675428Y-74021904D02*
X147218285Y-74021904D01*
X147446857Y-74021904D02*
X147446857Y-73221904D01*
X147370666Y-73336190D01*
X147294476Y-73412380D01*
X147218285Y-73450476D01*
%TO.C,VCC1*%
X148031380Y-73221904D02*
X148298047Y-74021904D01*
X148564714Y-73221904D01*
X149288523Y-73945714D02*
X149250428Y-73983809D01*
X149136142Y-74021904D01*
X149059952Y-74021904D01*
X148945666Y-73983809D01*
X148869476Y-73907619D01*
X148831380Y-73831428D01*
X148793285Y-73679047D01*
X148793285Y-73564761D01*
X148831380Y-73412380D01*
X148869476Y-73336190D01*
X148945666Y-73260000D01*
X149059952Y-73221904D01*
X149136142Y-73221904D01*
X149250428Y-73260000D01*
X149288523Y-73298095D01*
X150088523Y-73945714D02*
X150050428Y-73983809D01*
X149936142Y-74021904D01*
X149859952Y-74021904D01*
X149745666Y-73983809D01*
X149669476Y-73907619D01*
X149631380Y-73831428D01*
X149593285Y-73679047D01*
X149593285Y-73564761D01*
X149631380Y-73412380D01*
X149669476Y-73336190D01*
X149745666Y-73260000D01*
X149859952Y-73221904D01*
X149936142Y-73221904D01*
X150050428Y-73260000D01*
X150088523Y-73298095D01*
X150850428Y-74021904D02*
X150393285Y-74021904D01*
X150621857Y-74021904D02*
X150621857Y-73221904D01*
X150545666Y-73336190D01*
X150469476Y-73412380D01*
X150393285Y-73450476D01*
%TO.C,AE1*%
D11*
X146788333Y-75604666D02*
X147264523Y-75604666D01*
X146693095Y-75890380D02*
X147026428Y-74890380D01*
X147359761Y-75890380D01*
X147693095Y-75366571D02*
X148026428Y-75366571D01*
X148169285Y-75890380D02*
X147693095Y-75890380D01*
X147693095Y-74890380D01*
X148169285Y-74890380D01*
X149121666Y-75890380D02*
X148550238Y-75890380D01*
X148835952Y-75890380D02*
X148835952Y-74890380D01*
X148740714Y-75033238D01*
X148645476Y-75128476D01*
X148550238Y-75176095D01*
%TD*%
M02*
